M48
; DRILL file {KiCad 9.0.4} date 2025-09-04T10:39:45+0200
; FORMAT={-:-/ absolute / metric / decimal}
; #@! TF.CreationDate,2025-09-04T10:39:45+02:00
; #@! TF.GenerationSoftware,Kicad,Pcbnew,9.0.4
; #@! TF.FileFunction,NonPlated,1,2,NPTH
FMAT,2
METRIC
; #@! TA.AperFunction,NonPlated,NPTH,ComponentDrill
T1C0.900
; #@! TA.AperFunction,NonPlated,NPTH,ComponentDrill
T2C1.500
; #@! TA.AperFunction,NonPlated,NPTH,ComponentDrill
T3C1.702
; #@! TA.AperFunction,NonPlated,NPTH,ComponentDrill
T4C3.000
; #@! TA.AperFunction,NonPlated,NPTH,ComponentDrill
T5C3.429
%
G90
G05
T1
X133.205Y-68.27
X133.205Y-68.27
X133.205Y-71.27
X133.205Y-71.27
T3
X21.375Y-38.09
X21.375Y-56.09
X21.375Y-74.09
X32.375Y-38.09
X32.375Y-56.09
X32.375Y-74.09
X39.375Y-30.89
X39.375Y-48.89
X39.375Y-66.89
X50.375Y-30.89
X50.375Y-48.89
X50.375Y-66.89
X57.375Y-25.85
X57.375Y-43.85
X57.375Y-61.85
X68.375Y-25.85
X68.375Y-43.85
X68.375Y-61.85
X75.375Y-31.79
X75.375Y-49.79
X75.375Y-67.79
X84.375Y-90.47
X86.375Y-31.79
X86.375Y-49.79
X86.375Y-67.79
X93.375Y-33.77
X93.375Y-51.77
X93.375Y-69.77
X95.375Y-90.47
X104.375Y-33.77
X104.375Y-51.77
X104.375Y-69.77
X104.554Y-91.051
X115.419Y-92.772
X124.518Y-94.869
X134.98Y-98.268
T4
X21.875Y-34.34
X21.875Y-52.34
X21.875Y-70.34
X26.875Y-32.14
X26.875Y-32.14
X26.875Y-50.14
X26.875Y-50.14
X26.875Y-68.14
X26.875Y-68.14
X31.875Y-34.34
X31.875Y-52.34
X31.875Y-70.34
X39.875Y-27.14
X39.875Y-45.14
X39.875Y-63.14
X44.875Y-24.94
X44.875Y-24.94
X44.875Y-42.94
X44.875Y-42.94
X44.875Y-60.94
X44.875Y-60.94
X49.875Y-27.14
X49.875Y-45.14
X49.875Y-63.14
X57.875Y-22.1
X57.875Y-40.1
X57.875Y-58.1
X62.875Y-19.9
X62.875Y-19.9
X62.875Y-37.9
X62.875Y-37.9
X62.875Y-55.9
X62.875Y-55.9
X67.875Y-22.1
X67.875Y-40.1
X67.875Y-58.1
X75.875Y-28.04
X75.875Y-46.04
X75.875Y-64.04
X80.875Y-25.84
X80.875Y-25.84
X80.875Y-43.84
X80.875Y-43.84
X80.875Y-61.84
X80.875Y-61.84
X84.875Y-86.72
X85.875Y-28.04
X85.875Y-46.04
X85.875Y-64.04
X89.875Y-84.52
X89.875Y-84.52
X93.875Y-30.02
X93.875Y-48.02
X93.875Y-66.02
X94.875Y-86.72
X98.875Y-27.82
X98.875Y-27.82
X98.875Y-45.82
X98.875Y-45.82
X98.875Y-63.82
X98.875Y-63.82
X103.875Y-30.02
X103.875Y-48.02
X103.875Y-66.02
X105.635Y-87.425
X110.917Y-86.034
X110.917Y-86.034
X115.512Y-88.989
X126.153Y-91.457
X131.588Y-90.91
X131.588Y-90.91
X135.663Y-94.547
T5
X26.875Y-38.09
X26.875Y-56.09
X26.875Y-74.09
X44.875Y-30.89
X44.875Y-48.89
X44.875Y-66.89
X62.875Y-25.85
X62.875Y-43.85
X62.875Y-61.85
X80.875Y-31.79
X80.875Y-49.79
X80.875Y-67.79
X89.875Y-90.47
X98.875Y-33.77
X98.875Y-51.77
X98.875Y-69.77
X109.987Y-91.911
X129.749Y-96.569
T2
G00X116.315Y-69.0
M15
G01X116.315Y-70.3
M16
G05
G00X127.515Y-69.0
M15
G01X127.515Y-70.3
M16
G05
M30
