%TF.GenerationSoftware,KiCad,Pcbnew,9.0.4*%
%TF.CreationDate,2025-09-04T10:39:47+02:00*%
%TF.ProjectId,avocado_v3,61766f63-6164-46f5-9f76-332e6b696361,0.0.3*%
%TF.SameCoordinates,Original*%
%TF.FileFunction,Legend,Top*%
%TF.FilePolarity,Positive*%
%FSLAX46Y46*%
G04 Gerber Fmt 4.6, Leading zero omitted, Abs format (unit mm)*
G04 Created by KiCad (PCBNEW 9.0.4) date 2025-09-04 10:39:47*
%MOMM*%
%LPD*%
G01*
G04 APERTURE LIST*
%ADD10C,0.150000*%
%ADD11C,0.100000*%
%ADD12C,0.120000*%
G04 APERTURE END LIST*
D10*
X115797493Y-57982676D02*
X115607017Y-57887438D01*
X115607017Y-57887438D02*
X115321303Y-57887438D01*
X115321303Y-57887438D02*
X115035588Y-57982676D01*
X115035588Y-57982676D02*
X114845112Y-58173152D01*
X114845112Y-58173152D02*
X114749874Y-58363628D01*
X114749874Y-58363628D02*
X114654636Y-58744580D01*
X114654636Y-58744580D02*
X114654636Y-59030295D01*
X114654636Y-59030295D02*
X114749874Y-59411247D01*
X114749874Y-59411247D02*
X114845112Y-59601723D01*
X114845112Y-59601723D02*
X115035588Y-59792200D01*
X115035588Y-59792200D02*
X115321303Y-59887438D01*
X115321303Y-59887438D02*
X115511779Y-59887438D01*
X115511779Y-59887438D02*
X115797493Y-59792200D01*
X115797493Y-59792200D02*
X115892731Y-59696961D01*
X115892731Y-59696961D02*
X115892731Y-59030295D01*
X115892731Y-59030295D02*
X115511779Y-59030295D01*
X117130826Y-57887438D02*
X117511779Y-57887438D01*
X117511779Y-57887438D02*
X117702255Y-57982676D01*
X117702255Y-57982676D02*
X117892731Y-58173152D01*
X117892731Y-58173152D02*
X117987969Y-58554104D01*
X117987969Y-58554104D02*
X117987969Y-59220771D01*
X117987969Y-59220771D02*
X117892731Y-59601723D01*
X117892731Y-59601723D02*
X117702255Y-59792200D01*
X117702255Y-59792200D02*
X117511779Y-59887438D01*
X117511779Y-59887438D02*
X117130826Y-59887438D01*
X117130826Y-59887438D02*
X116940350Y-59792200D01*
X116940350Y-59792200D02*
X116749874Y-59601723D01*
X116749874Y-59601723D02*
X116654636Y-59220771D01*
X116654636Y-59220771D02*
X116654636Y-58554104D01*
X116654636Y-58554104D02*
X116749874Y-58173152D01*
X116749874Y-58173152D02*
X116940350Y-57982676D01*
X116940350Y-57982676D02*
X117130826Y-57887438D01*
X120083208Y-57887438D02*
X120749874Y-59887438D01*
X120749874Y-59887438D02*
X121416541Y-57887438D01*
X122083208Y-58839819D02*
X122749875Y-58839819D01*
X123035589Y-59887438D02*
X122083208Y-59887438D01*
X122083208Y-59887438D02*
X122083208Y-57887438D01*
X122083208Y-57887438D02*
X123035589Y-57887438D01*
X124940351Y-57982676D02*
X124749875Y-57887438D01*
X124749875Y-57887438D02*
X124464161Y-57887438D01*
X124464161Y-57887438D02*
X124178446Y-57982676D01*
X124178446Y-57982676D02*
X123987970Y-58173152D01*
X123987970Y-58173152D02*
X123892732Y-58363628D01*
X123892732Y-58363628D02*
X123797494Y-58744580D01*
X123797494Y-58744580D02*
X123797494Y-59030295D01*
X123797494Y-59030295D02*
X123892732Y-59411247D01*
X123892732Y-59411247D02*
X123987970Y-59601723D01*
X123987970Y-59601723D02*
X124178446Y-59792200D01*
X124178446Y-59792200D02*
X124464161Y-59887438D01*
X124464161Y-59887438D02*
X124654637Y-59887438D01*
X124654637Y-59887438D02*
X124940351Y-59792200D01*
X124940351Y-59792200D02*
X125035589Y-59696961D01*
X125035589Y-59696961D02*
X125035589Y-59030295D01*
X125035589Y-59030295D02*
X124654637Y-59030295D01*
X125797494Y-59316009D02*
X126749875Y-59316009D01*
X125607018Y-59887438D02*
X126273684Y-57887438D01*
X126273684Y-57887438D02*
X126940351Y-59887438D01*
X127607018Y-59887438D02*
X127607018Y-57887438D01*
X127607018Y-57887438D02*
X128749875Y-59887438D01*
X128749875Y-59887438D02*
X128749875Y-57887438D01*
X119164160Y-79272438D02*
X119830826Y-79272438D01*
X119830826Y-79272438D02*
X119783207Y-79367676D01*
X119783207Y-79367676D02*
X119687969Y-79510533D01*
X119687969Y-79510533D02*
X119545112Y-79605771D01*
X119449874Y-79415295D02*
X119449874Y-79748628D01*
X119449874Y-79748628D02*
X119449874Y-79843866D01*
X119449874Y-79843866D02*
X119402255Y-79986723D01*
X119402255Y-79986723D02*
X119307017Y-80224819D01*
X120259398Y-79462914D02*
X120830826Y-79462914D01*
X120687969Y-79653390D02*
X120830826Y-80034342D01*
X120783207Y-79272438D02*
X120878445Y-79367676D01*
X120926064Y-79224819D02*
X121021303Y-79320057D01*
X120545112Y-79177200D02*
X120545112Y-80177200D01*
X120545112Y-80177200D02*
X120402255Y-80129580D01*
X120354636Y-79653390D02*
X120307017Y-79796247D01*
X120307017Y-79796247D02*
X120259398Y-79891485D01*
X120259398Y-79891485D02*
X120211779Y-80034342D01*
X121307017Y-79415295D02*
X121878445Y-79415295D01*
X121878445Y-79415295D02*
X121830826Y-80129580D01*
X121830826Y-80129580D02*
X121687969Y-80034342D01*
X121545112Y-79081961D02*
X121545112Y-79415295D01*
X121545112Y-79415295D02*
X121545112Y-79653390D01*
X121545112Y-79653390D02*
X121497493Y-79843866D01*
X121497493Y-79843866D02*
X121402255Y-79986723D01*
X121402255Y-79986723D02*
X121307017Y-80129580D01*
X122640350Y-79558152D02*
X122926064Y-79796247D01*
X122640350Y-79129580D02*
X122640350Y-80177200D01*
X122830826Y-79462914D02*
X122926064Y-79558152D01*
X122973683Y-79415295D02*
X123068921Y-79510533D01*
X124068922Y-79558152D02*
X124307017Y-80224819D01*
X124307017Y-80224819D02*
X124545112Y-79558152D01*
X125116541Y-79224819D02*
X125211779Y-79224819D01*
X125211779Y-79224819D02*
X125307017Y-79272438D01*
X125307017Y-79272438D02*
X125354636Y-79320057D01*
X125354636Y-79320057D02*
X125402255Y-79415295D01*
X125402255Y-79415295D02*
X125449874Y-79605771D01*
X125449874Y-79605771D02*
X125449874Y-79843866D01*
X125449874Y-79843866D02*
X125402255Y-80034342D01*
X125402255Y-80034342D02*
X125354636Y-80129580D01*
X125354636Y-80129580D02*
X125307017Y-80177200D01*
X125307017Y-80177200D02*
X125211779Y-80224819D01*
X125211779Y-80224819D02*
X125116541Y-80224819D01*
X125116541Y-80224819D02*
X125021303Y-80177200D01*
X125021303Y-80177200D02*
X124973684Y-80129580D01*
X124973684Y-80129580D02*
X124926065Y-80034342D01*
X124926065Y-80034342D02*
X124878446Y-79843866D01*
X124878446Y-79843866D02*
X124878446Y-79605771D01*
X124878446Y-79605771D02*
X124926065Y-79415295D01*
X124926065Y-79415295D02*
X124973684Y-79320057D01*
X124973684Y-79320057D02*
X125021303Y-79272438D01*
X125021303Y-79272438D02*
X125116541Y-79224819D01*
X125878446Y-80129580D02*
X125926065Y-80177200D01*
X125926065Y-80177200D02*
X125878446Y-80224819D01*
X125878446Y-80224819D02*
X125830827Y-80177200D01*
X125830827Y-80177200D02*
X125878446Y-80129580D01*
X125878446Y-80129580D02*
X125878446Y-80224819D01*
X126259398Y-79224819D02*
X126878445Y-79224819D01*
X126878445Y-79224819D02*
X126545112Y-79605771D01*
X126545112Y-79605771D02*
X126687969Y-79605771D01*
X126687969Y-79605771D02*
X126783207Y-79653390D01*
X126783207Y-79653390D02*
X126830826Y-79701009D01*
X126830826Y-79701009D02*
X126878445Y-79796247D01*
X126878445Y-79796247D02*
X126878445Y-80034342D01*
X126878445Y-80034342D02*
X126830826Y-80129580D01*
X126830826Y-80129580D02*
X126783207Y-80177200D01*
X126783207Y-80177200D02*
X126687969Y-80224819D01*
X126687969Y-80224819D02*
X126402255Y-80224819D01*
X126402255Y-80224819D02*
X126307017Y-80177200D01*
X126307017Y-80177200D02*
X126259398Y-80129580D01*
D11*
X128301466Y-84885788D02*
X128301466Y-84123884D01*
X128682419Y-84504836D02*
X127920514Y-84504836D01*
D12*
%TO.C,D9*%
X57925000Y-31710000D02*
X57925000Y-28050000D01*
X57925000Y-31710000D02*
X59825000Y-31710000D01*
X59825000Y-31710000D02*
X59825000Y-28050000D01*
%TO.C,D18*%
X123230651Y-100612159D02*
X124361653Y-97131292D01*
X123230651Y-100612159D02*
X125037658Y-101199291D01*
X125037658Y-101199291D02*
X126168660Y-97718424D01*
%TO.C,D4*%
X39925000Y-72750000D02*
X39925000Y-69090000D01*
X39925000Y-72750000D02*
X41825000Y-72750000D01*
X41825000Y-72750000D02*
X41825000Y-69090000D01*
%TO.C,D12*%
X75925000Y-37650000D02*
X75925000Y-33990000D01*
X75925000Y-37650000D02*
X77825000Y-37650000D01*
X77825000Y-37650000D02*
X77825000Y-33990000D01*
%TO.C,D14*%
X93925000Y-57630000D02*
X93925000Y-53970000D01*
X93925000Y-57630000D02*
X95825000Y-57630000D01*
X95825000Y-57630000D02*
X95825000Y-53970000D01*
%TO.C,D13*%
X93925000Y-75630000D02*
X93925000Y-71970000D01*
X93925000Y-75630000D02*
X95825000Y-75630000D01*
X95825000Y-75630000D02*
X95825000Y-71970000D01*
%TO.C,D7*%
X57925000Y-67710000D02*
X57925000Y-64050000D01*
X57925000Y-67710000D02*
X59825000Y-67710000D01*
X59825000Y-67710000D02*
X59825000Y-64050000D01*
%TO.C,D8*%
X57925000Y-49710000D02*
X57925000Y-46050000D01*
X57925000Y-49710000D02*
X59825000Y-49710000D01*
X59825000Y-49710000D02*
X59825000Y-46050000D01*
%TO.C,D5*%
X39925000Y-54750000D02*
X39925000Y-51090000D01*
X39925000Y-54750000D02*
X41825000Y-54750000D01*
X41825000Y-54750000D02*
X41825000Y-51090000D01*
%TO.C,D16*%
X84925000Y-96330000D02*
X84925000Y-92670000D01*
X84925000Y-96330000D02*
X86825000Y-96330000D01*
X86825000Y-96330000D02*
X86825000Y-92670000D01*
%TO.C,_1*%
X116015000Y-67650000D02*
X116015000Y-63550000D01*
X116015000Y-75750000D02*
X116015000Y-71650000D01*
X118615000Y-75750000D02*
X116015000Y-75750000D01*
X121915000Y-69150000D02*
X121915000Y-70150000D01*
X122415000Y-69650000D02*
X121415000Y-69650000D01*
X123215000Y-75750000D02*
X120615000Y-75750000D01*
X125715000Y-62150000D02*
X126015000Y-61850000D01*
X126015000Y-61850000D02*
X126015000Y-62450000D01*
X126015000Y-62450000D02*
X125715000Y-62150000D01*
X127715000Y-63550000D02*
X116015000Y-63550000D01*
X127715000Y-67650000D02*
X127715000Y-63550000D01*
X127815000Y-71650000D02*
X127815000Y-75750000D01*
X127815000Y-75750000D02*
X125215000Y-75750000D01*
X124915000Y-69650000D02*
G75*
G02*
X118915000Y-69650000I-3000000J0D01*
G01*
X118915000Y-69650000D02*
G75*
G02*
X124915000Y-69650000I3000000J0D01*
G01*
%TO.C,D19*%
X102925000Y-71110000D02*
X102925000Y-74770000D01*
X104825000Y-71110000D02*
X102925000Y-71110000D01*
X104825000Y-71110000D02*
X104825000Y-74770000D01*
%TO.C,D11*%
X75925000Y-55650000D02*
X75925000Y-51990000D01*
X75925000Y-55650000D02*
X77825000Y-55650000D01*
X77825000Y-55650000D02*
X77825000Y-51990000D01*
%TO.C,D17*%
X104180805Y-96924655D02*
X104753355Y-93309716D01*
X104180805Y-96924655D02*
X106057413Y-97221880D01*
X106057413Y-97221880D02*
X106629963Y-93606941D01*
%TO.C,D1*%
X21925000Y-79950000D02*
X21925000Y-76290000D01*
X21925000Y-79950000D02*
X23825000Y-79950000D01*
X23825000Y-79950000D02*
X23825000Y-76290000D01*
%TO.C,D15*%
X93925000Y-39630000D02*
X93925000Y-35970000D01*
X93925000Y-39630000D02*
X95825000Y-39630000D01*
X95825000Y-39630000D02*
X95825000Y-35970000D01*
%TO.C,D10*%
X75925000Y-73650000D02*
X75925000Y-69990000D01*
X75925000Y-73650000D02*
X77825000Y-73650000D01*
X77825000Y-73650000D02*
X77825000Y-69990000D01*
%TO.C,D6*%
X39925000Y-36750000D02*
X39925000Y-33090000D01*
X39925000Y-36750000D02*
X41825000Y-36750000D01*
X41825000Y-36750000D02*
X41825000Y-33090000D01*
%TO.C,D3*%
X21925000Y-43950000D02*
X21925000Y-40290000D01*
X21925000Y-43950000D02*
X23825000Y-43950000D01*
X23825000Y-43950000D02*
X23825000Y-40290000D01*
%TO.C,D2*%
X21925000Y-61950000D02*
X21925000Y-58290000D01*
X21925000Y-61950000D02*
X23825000Y-61950000D01*
X23825000Y-61950000D02*
X23825000Y-58290000D01*
%TD*%
M02*
