M48
; DRILL file {KiCad 9.0.4} date 2025-09-04T10:39:45+0200
; FORMAT={-:-/ absolute / metric / decimal}
; #@! TF.CreationDate,2025-09-04T10:39:45+02:00
; #@! TF.GenerationSoftware,Kicad,Pcbnew,9.0.4
; #@! TF.FileFunction,Plated,1,2,PTH
FMAT,2
METRIC
; #@! TA.AperFunction,Plated,PTH,ComponentDrill
T1C0.300
; #@! TA.AperFunction,Plated,PTH,ViaDrill
T2C0.400
; #@! TA.AperFunction,Plated,PTH,ComponentDrill
T3C1.000
; #@! TA.AperFunction,Plated,PTH,ComponentDrill
T4C1.016
; #@! TA.AperFunction,Plated,PTH,ComponentDrill
T5C2.200
%
G90
G05
T1
X22.875Y-40.29
X22.875Y-43.09
X22.875Y-58.29
X22.875Y-61.09
X22.875Y-76.29
X22.875Y-79.09
X40.875Y-33.09
X40.875Y-35.89
X40.875Y-51.09
X40.875Y-53.89
X40.875Y-69.09
X40.875Y-71.89
X58.875Y-28.05
X58.875Y-30.85
X58.875Y-46.05
X58.875Y-48.85
X58.875Y-64.05
X58.875Y-66.85
X76.875Y-33.99
X76.875Y-36.79
X76.875Y-51.99
X76.875Y-54.79
X76.875Y-69.99
X76.875Y-72.79
X85.875Y-92.67
X85.875Y-95.47
X94.875Y-35.97
X94.875Y-38.77
X94.875Y-53.97
X94.875Y-56.77
X94.875Y-71.97
X94.875Y-74.77
X103.875Y-71.97
X103.875Y-74.77
X105.254Y-96.224
X105.692Y-93.458
X124.4Y-100.088
X125.265Y-97.425
T2
X23.801Y-47.7
X23.9Y-35.9
X24.3Y-64.7
X34.7Y-55.7
X35.05Y-37.85
X41.801Y-29.1
X42.785Y-45.9
X42.785Y-58.4
X52.7Y-30.6
X52.8Y-48.2
X59.881Y-23.2
X60.4Y-41.7
X62.891Y-58.909
X66.2Y-28.4
X66.3Y-61.2
X67.3Y-42.7
X77.881Y-47.5
X78.0Y-29.6
X81.0Y-64.7
X83.4Y-82.2
X84.2Y-49.3
X85.25Y-66.65
X86.5Y-33.8
X95.8Y-50.0
X95.801Y-31.4
X99.15Y-66.65
X101.9Y-52.4
X102.5Y-68.4
X106.05Y-35.55
X109.3Y-88.9
X115.324Y-47.516
X115.5Y-50.025
X115.9Y-42.8
X116.4Y-43.83
X116.5Y-53.625
X116.695Y-51.218
X116.7Y-38.75
X118.876Y-60.1
X120.848Y-49.024
X121.51Y-50.95
X121.8Y-49.475
X124.6Y-42.875
X126.388Y-87.812
X127.8Y-52.401
X128.0Y-45.625
X128.7Y-64.6
X129.45Y-84.0
X129.45Y-81.4
X129.8Y-69.5
X129.812Y-65.888
X132.35Y-42.05
X132.4Y-50.1
T3
X119.415Y-62.15
X119.415Y-76.65
X121.915Y-62.15
X124.415Y-62.15
X124.415Y-76.65
T4
X117.43Y-46.053
X120.605Y-40.338
X123.145Y-40.338
X126.32Y-46.053
T5
X17.875Y-29.09
X17.875Y-83.09
X53.875Y-16.85
X71.875Y-16.85
X80.875Y-99.47
X107.875Y-24.77
X110.875Y-37.27
X110.875Y-56.77
X132.875Y-37.27
X132.875Y-56.77
X135.528Y-107.909
X141.09Y-90.79
M30
