%TF.GenerationSoftware,KiCad,Pcbnew,9.0.4*%
%TF.CreationDate,2025-09-04T10:39:47+02:00*%
%TF.ProjectId,avocado_v3,61766f63-6164-46f5-9f76-332e6b696361,0.0.3*%
%TF.SameCoordinates,Original*%
%TF.FileFunction,Legend,Bot*%
%TF.FilePolarity,Positive*%
%FSLAX46Y46*%
G04 Gerber Fmt 4.6, Leading zero omitted, Abs format (unit mm)*
G04 Created by KiCad (PCBNEW 9.0.4) date 2025-09-04 10:39:47*
%MOMM*%
%LPD*%
G01*
G04 APERTURE LIST*
%ADD10C,0.150000*%
%ADD11C,0.100000*%
%ADD12C,0.120000*%
G04 APERTURE END LIST*
D10*
X126878445Y-79272438D02*
X126211779Y-79272438D01*
X126211779Y-79272438D02*
X126259398Y-79367676D01*
X126259398Y-79367676D02*
X126354636Y-79510533D01*
X126354636Y-79510533D02*
X126497493Y-79605771D01*
X126592731Y-79415295D02*
X126592731Y-79748628D01*
X126592731Y-79748628D02*
X126592731Y-79843866D01*
X126592731Y-79843866D02*
X126640350Y-79986723D01*
X126640350Y-79986723D02*
X126735588Y-80224819D01*
X125783207Y-79462914D02*
X125211779Y-79462914D01*
X125354636Y-79653390D02*
X125211779Y-80034342D01*
X125259398Y-79272438D02*
X125164160Y-79367676D01*
X125116541Y-79224819D02*
X125021303Y-79320057D01*
X125497493Y-79177200D02*
X125497493Y-80177200D01*
X125497493Y-80177200D02*
X125640350Y-80129580D01*
X125687969Y-79653390D02*
X125735588Y-79796247D01*
X125735588Y-79796247D02*
X125783207Y-79891485D01*
X125783207Y-79891485D02*
X125830826Y-80034342D01*
X124735588Y-79415295D02*
X124164160Y-79415295D01*
X124164160Y-79415295D02*
X124211779Y-80129580D01*
X124211779Y-80129580D02*
X124354636Y-80034342D01*
X124497493Y-79081961D02*
X124497493Y-79415295D01*
X124497493Y-79415295D02*
X124497493Y-79653390D01*
X124497493Y-79653390D02*
X124545112Y-79843866D01*
X124545112Y-79843866D02*
X124640350Y-79986723D01*
X124640350Y-79986723D02*
X124735588Y-80129580D01*
X123402255Y-79558152D02*
X123116541Y-79796247D01*
X123402255Y-79129580D02*
X123402255Y-80177200D01*
X123211779Y-79462914D02*
X123116541Y-79558152D01*
X123068922Y-79415295D02*
X122973684Y-79510533D01*
X121973683Y-79558152D02*
X121735588Y-80224819D01*
X121735588Y-80224819D02*
X121497493Y-79558152D01*
X120926064Y-79224819D02*
X120830826Y-79224819D01*
X120830826Y-79224819D02*
X120735588Y-79272438D01*
X120735588Y-79272438D02*
X120687969Y-79320057D01*
X120687969Y-79320057D02*
X120640350Y-79415295D01*
X120640350Y-79415295D02*
X120592731Y-79605771D01*
X120592731Y-79605771D02*
X120592731Y-79843866D01*
X120592731Y-79843866D02*
X120640350Y-80034342D01*
X120640350Y-80034342D02*
X120687969Y-80129580D01*
X120687969Y-80129580D02*
X120735588Y-80177200D01*
X120735588Y-80177200D02*
X120830826Y-80224819D01*
X120830826Y-80224819D02*
X120926064Y-80224819D01*
X120926064Y-80224819D02*
X121021302Y-80177200D01*
X121021302Y-80177200D02*
X121068921Y-80129580D01*
X121068921Y-80129580D02*
X121116540Y-80034342D01*
X121116540Y-80034342D02*
X121164159Y-79843866D01*
X121164159Y-79843866D02*
X121164159Y-79605771D01*
X121164159Y-79605771D02*
X121116540Y-79415295D01*
X121116540Y-79415295D02*
X121068921Y-79320057D01*
X121068921Y-79320057D02*
X121021302Y-79272438D01*
X121021302Y-79272438D02*
X120926064Y-79224819D01*
X120164159Y-80129580D02*
X120116540Y-80177200D01*
X120116540Y-80177200D02*
X120164159Y-80224819D01*
X120164159Y-80224819D02*
X120211778Y-80177200D01*
X120211778Y-80177200D02*
X120164159Y-80129580D01*
X120164159Y-80129580D02*
X120164159Y-80224819D01*
X119783207Y-79224819D02*
X119164160Y-79224819D01*
X119164160Y-79224819D02*
X119497493Y-79605771D01*
X119497493Y-79605771D02*
X119354636Y-79605771D01*
X119354636Y-79605771D02*
X119259398Y-79653390D01*
X119259398Y-79653390D02*
X119211779Y-79701009D01*
X119211779Y-79701009D02*
X119164160Y-79796247D01*
X119164160Y-79796247D02*
X119164160Y-80034342D01*
X119164160Y-80034342D02*
X119211779Y-80129580D01*
X119211779Y-80129580D02*
X119259398Y-80177200D01*
X119259398Y-80177200D02*
X119354636Y-80224819D01*
X119354636Y-80224819D02*
X119640350Y-80224819D01*
X119640350Y-80224819D02*
X119735588Y-80177200D01*
X119735588Y-80177200D02*
X119783207Y-80129580D01*
D11*
X130801466Y-84123884D02*
X130801466Y-84885789D01*
X131182419Y-84504836D02*
X130420514Y-84504836D01*
D12*
%TO.C,D9*%
X57925000Y-31710000D02*
X57925000Y-28050000D01*
X57925000Y-31710000D02*
X59825000Y-31710000D01*
X59825000Y-31710000D02*
X59825000Y-28050000D01*
%TO.C,D18*%
X123230651Y-100612159D02*
X124361653Y-97131292D01*
X123230651Y-100612159D02*
X125037658Y-101199291D01*
X125037658Y-101199291D02*
X126168660Y-97718424D01*
%TO.C,D4*%
X39925000Y-72750000D02*
X39925000Y-69090000D01*
X39925000Y-72750000D02*
X41825000Y-72750000D01*
X41825000Y-72750000D02*
X41825000Y-69090000D01*
%TO.C,D12*%
X75925000Y-37650000D02*
X75925000Y-33990000D01*
X75925000Y-37650000D02*
X77825000Y-37650000D01*
X77825000Y-37650000D02*
X77825000Y-33990000D01*
%TO.C,D14*%
X93925000Y-57630000D02*
X93925000Y-53970000D01*
X93925000Y-57630000D02*
X95825000Y-57630000D01*
X95825000Y-57630000D02*
X95825000Y-53970000D01*
%TO.C,D13*%
X93925000Y-75630000D02*
X93925000Y-71970000D01*
X93925000Y-75630000D02*
X95825000Y-75630000D01*
X95825000Y-75630000D02*
X95825000Y-71970000D01*
%TO.C,D7*%
X57925000Y-67710000D02*
X57925000Y-64050000D01*
X57925000Y-67710000D02*
X59825000Y-67710000D01*
X59825000Y-67710000D02*
X59825000Y-64050000D01*
%TO.C,D8*%
X57925000Y-49710000D02*
X57925000Y-46050000D01*
X57925000Y-49710000D02*
X59825000Y-49710000D01*
X59825000Y-49710000D02*
X59825000Y-46050000D01*
%TO.C,D5*%
X39925000Y-54750000D02*
X39925000Y-51090000D01*
X39925000Y-54750000D02*
X41825000Y-54750000D01*
X41825000Y-54750000D02*
X41825000Y-51090000D01*
%TO.C,D16*%
X84925000Y-96330000D02*
X84925000Y-92670000D01*
X84925000Y-96330000D02*
X86825000Y-96330000D01*
X86825000Y-96330000D02*
X86825000Y-92670000D01*
%TO.C,_1*%
X116015000Y-67650000D02*
X116015000Y-63550000D01*
X116015000Y-75750000D02*
X116015000Y-71650000D01*
X118615000Y-75750000D02*
X116015000Y-75750000D01*
X121915000Y-69150000D02*
X121915000Y-70150000D01*
X122415000Y-69650000D02*
X121415000Y-69650000D01*
X123215000Y-75750000D02*
X120615000Y-75750000D01*
X125715000Y-62150000D02*
X126015000Y-61850000D01*
X126015000Y-61850000D02*
X126015000Y-62450000D01*
X126015000Y-62450000D02*
X125715000Y-62150000D01*
X127715000Y-63550000D02*
X116015000Y-63550000D01*
X127715000Y-67650000D02*
X127715000Y-63550000D01*
X127815000Y-71650000D02*
X127815000Y-75750000D01*
X127815000Y-75750000D02*
X125215000Y-75750000D01*
X124915000Y-69650000D02*
G75*
G02*
X118915000Y-69650000I-3000000J0D01*
G01*
X118915000Y-69650000D02*
G75*
G02*
X124915000Y-69650000I3000000J0D01*
G01*
%TO.C,D19*%
X102925000Y-71110000D02*
X102925000Y-74770000D01*
X104825000Y-71110000D02*
X102925000Y-71110000D01*
X104825000Y-71110000D02*
X104825000Y-74770000D01*
%TO.C,D11*%
X75925000Y-55650000D02*
X75925000Y-51990000D01*
X75925000Y-55650000D02*
X77825000Y-55650000D01*
X77825000Y-55650000D02*
X77825000Y-51990000D01*
%TO.C,D17*%
X104180805Y-96924655D02*
X104753355Y-93309716D01*
X104180805Y-96924655D02*
X106057413Y-97221880D01*
X106057413Y-97221880D02*
X106629963Y-93606941D01*
%TO.C,D1*%
X21925000Y-79950000D02*
X21925000Y-76290000D01*
X21925000Y-79950000D02*
X23825000Y-79950000D01*
X23825000Y-79950000D02*
X23825000Y-76290000D01*
%TO.C,D15*%
X93925000Y-39630000D02*
X93925000Y-35970000D01*
X93925000Y-39630000D02*
X95825000Y-39630000D01*
X95825000Y-39630000D02*
X95825000Y-35970000D01*
%TO.C,D10*%
X75925000Y-73650000D02*
X75925000Y-69990000D01*
X75925000Y-73650000D02*
X77825000Y-73650000D01*
X77825000Y-73650000D02*
X77825000Y-69990000D01*
%TO.C,D6*%
X39925000Y-36750000D02*
X39925000Y-33090000D01*
X39925000Y-36750000D02*
X41825000Y-36750000D01*
X41825000Y-36750000D02*
X41825000Y-33090000D01*
%TO.C,D3*%
X21925000Y-43950000D02*
X21925000Y-40290000D01*
X21925000Y-43950000D02*
X23825000Y-43950000D01*
X23825000Y-43950000D02*
X23825000Y-40290000D01*
%TO.C,D2*%
X21925000Y-61950000D02*
X21925000Y-58290000D01*
X21925000Y-61950000D02*
X23825000Y-61950000D01*
X23825000Y-61950000D02*
X23825000Y-58290000D01*
%TD*%
M02*
