%TF.GenerationSoftware,KiCad,Pcbnew,9.0.4*%
%TF.CreationDate,2025-09-04T10:39:47+02:00*%
%TF.ProjectId,avocado_v3,61766f63-6164-46f5-9f76-332e6b696361,0.0.3*%
%TF.SameCoordinates,Original*%
%TF.FileFunction,Paste,Bot*%
%TF.FilePolarity,Positive*%
%FSLAX46Y46*%
G04 Gerber Fmt 4.6, Leading zero omitted, Abs format (unit mm)*
G04 Created by KiCad (PCBNEW 9.0.4) date 2025-09-04 10:39:47*
%MOMM*%
%LPD*%
G01*
G04 APERTURE LIST*
G04 Aperture macros list*
%AMRotRect*
0 Rectangle, with rotation*
0 The origin of the aperture is its center*
0 $1 length*
0 $2 width*
0 $3 Rotation angle, in degrees counterclockwise*
0 Add horizontal line*
21,1,$1,$2,0,0,$3*%
G04 Aperture macros list end*
%ADD10O,2.750000X1.800000*%
%ADD11R,2.600000X2.600000*%
%ADD12RotRect,2.600000X2.600000X351.000000*%
%ADD13RotRect,2.600000X2.600000X342.000000*%
%ADD14R,1.250000X2.500000*%
%ADD15R,0.800000X1.000000*%
%ADD16R,1.500000X0.700000*%
G04 APERTURE END LIST*
D10*
%TO.C,MCU1*%
X113780040Y-38750000D03*
X113780040Y-41290000D03*
X113780040Y-43830000D03*
X113780040Y-46370000D03*
X113780040Y-48910000D03*
X113780040Y-51450000D03*
X113780040Y-53990000D03*
X129969960Y-53990000D03*
X129969960Y-51450000D03*
X129969960Y-48910000D03*
X129969960Y-46370000D03*
X129969960Y-43830000D03*
X129969960Y-41290000D03*
X129969960Y-38750000D03*
%TD*%
D11*
%TO.C,S9*%
X59600000Y-19900000D03*
X71150000Y-22100000D03*
%TD*%
%TO.C,S5*%
X41600000Y-42940000D03*
X53150000Y-45140000D03*
%TD*%
%TO.C,S16*%
X86600000Y-84520000D03*
X98150000Y-86720000D03*
%TD*%
D12*
%TO.C,S17*%
X107682674Y-85522084D03*
X118746318Y-89501816D03*
%TD*%
D13*
%TO.C,S18*%
X128473162Y-89897784D03*
X138778027Y-95559255D03*
%TD*%
D11*
%TO.C,S11*%
X77600000Y-43840000D03*
X89150000Y-46040000D03*
%TD*%
%TO.C,S10*%
X77600000Y-61840000D03*
X89150000Y-64040000D03*
%TD*%
%TO.C,S4*%
X41600000Y-60940000D03*
X53150000Y-63140000D03*
%TD*%
%TO.C,S8*%
X59600000Y-37900000D03*
X71150000Y-40100000D03*
%TD*%
%TO.C,S1*%
X23600000Y-68140000D03*
X35150000Y-70340000D03*
%TD*%
D14*
%TO.C,PAD1*%
X128225000Y-82370000D03*
X130725000Y-82370000D03*
%TD*%
D11*
%TO.C,S3*%
X23600000Y-32140000D03*
X35150000Y-34340000D03*
%TD*%
%TO.C,S12*%
X77600000Y-25840000D03*
X89150000Y-28040000D03*
%TD*%
%TO.C,S13*%
X95600000Y-63820000D03*
X107150000Y-66020000D03*
%TD*%
%TO.C,S15*%
X95600000Y-27820000D03*
X107150000Y-30020000D03*
%TD*%
%TO.C,S7*%
X59600000Y-55900000D03*
X71150000Y-58100000D03*
%TD*%
%TO.C,S6*%
X41600000Y-24940000D03*
X53150000Y-27140000D03*
%TD*%
%TO.C,S2*%
X23600000Y-50140000D03*
X35150000Y-52340000D03*
%TD*%
%TO.C,S14*%
X95600000Y-45820000D03*
X107150000Y-48020000D03*
%TD*%
D15*
%TO.C,T1*%
X132095000Y-73420000D03*
X134305000Y-73420000D03*
X132095000Y-66120000D03*
X134305000Y-66120000D03*
D16*
X131445000Y-67520000D03*
X131445000Y-70520000D03*
%TD*%
M02*
