%TF.GenerationSoftware,KiCad,Pcbnew,9.0.4*%
%TF.CreationDate,2025-09-04T10:39:47+02:00*%
%TF.ProjectId,avocado_v3,61766f63-6164-46f5-9f76-332e6b696361,0.0.3*%
%TF.SameCoordinates,Original*%
%TF.FileFunction,Copper,L2,Bot*%
%TF.FilePolarity,Positive*%
%FSLAX46Y46*%
G04 Gerber Fmt 4.6, Leading zero omitted, Abs format (unit mm)*
G04 Created by KiCad (PCBNEW 9.0.4) date 2025-09-04 10:39:47*
%MOMM*%
%LPD*%
G01*
G04 APERTURE LIST*
G04 Aperture macros list*
%AMRotRect*
0 Rectangle, with rotation*
0 The origin of the aperture is its center*
0 $1 length*
0 $2 width*
0 $3 Rotation angle, in degrees counterclockwise*
0 Add horizontal line*
21,1,$1,$2,0,0,$3*%
G04 Aperture macros list end*
%TA.AperFunction,CastellatedPad*%
%ADD10C,1.397000*%
%TD*%
%TA.AperFunction,SMDPad,CuDef*%
%ADD11O,2.750000X1.800000*%
%TD*%
%TA.AperFunction,SMDPad,CuDef*%
%ADD12R,2.600000X2.600000*%
%TD*%
%TA.AperFunction,ComponentPad*%
%ADD13R,1.200000X1.200000*%
%TD*%
%TA.AperFunction,ComponentPad*%
%ADD14RotRect,1.200000X1.200000X72.000000*%
%TD*%
%TA.AperFunction,ComponentPad*%
%ADD15C,2.600000*%
%TD*%
%TA.AperFunction,SMDPad,CuDef*%
%ADD16RotRect,2.600000X2.600000X351.000000*%
%TD*%
%TA.AperFunction,SMDPad,CuDef*%
%ADD17RotRect,2.600000X2.600000X342.000000*%
%TD*%
%TA.AperFunction,ComponentPad*%
%ADD18C,1.500000*%
%TD*%
%TA.AperFunction,ComponentPad*%
%ADD19R,2.000000X2.000000*%
%TD*%
%TA.AperFunction,ComponentPad*%
%ADD20C,2.000000*%
%TD*%
%TA.AperFunction,SMDPad,CuDef*%
%ADD21R,1.250000X2.500000*%
%TD*%
%TA.AperFunction,ComponentPad*%
%ADD22RotRect,1.200000X1.200000X81.000000*%
%TD*%
%TA.AperFunction,SMDPad,CuDef*%
%ADD23R,0.800000X1.000000*%
%TD*%
%TA.AperFunction,SMDPad,CuDef*%
%ADD24R,1.500000X0.700000*%
%TD*%
%TA.AperFunction,ViaPad*%
%ADD25C,0.800000*%
%TD*%
%TA.AperFunction,Conductor*%
%ADD26C,0.250000*%
%TD*%
G04 APERTURE END LIST*
D10*
%TO.P,MCU1,19*%
%TO.N,pos*%
X126320000Y-46053000D03*
X117430000Y-46053000D03*
%TO.P,MCU1,18*%
%TO.N,RST*%
X123145000Y-40338000D03*
%TO.P,MCU1,17*%
%TO.N,GND*%
X120605000Y-40338000D03*
D11*
%TO.P,MCU1,14*%
%TO.N,5V*%
X113780040Y-38750000D03*
%TO.P,MCU1,13*%
%TO.N,GND*%
X113780040Y-41290000D03*
%TO.P,MCU1,12*%
%TO.N,3V3*%
X113780040Y-43830000D03*
%TO.P,MCU1,11*%
%TO.N,D10*%
X113780040Y-46370000D03*
%TO.P,MCU1,10*%
%TO.N,D9*%
X113780040Y-48910000D03*
%TO.P,MCU1,9*%
%TO.N,D8*%
X113780040Y-51450000D03*
%TO.P,MCU1,8*%
%TO.N,D7*%
X113780040Y-53990000D03*
%TO.P,MCU1,7*%
%TO.N,D6*%
X129969960Y-53990000D03*
%TO.P,MCU1,6*%
%TO.N,D5*%
X129969960Y-51450000D03*
%TO.P,MCU1,5*%
%TO.N,D4*%
X129969960Y-48910000D03*
%TO.P,MCU1,4*%
%TO.N,D3*%
X129969960Y-46370000D03*
%TO.P,MCU1,3*%
%TO.N,D2*%
X129969960Y-43830000D03*
%TO.P,MCU1,2*%
%TO.N,D1*%
X129969960Y-41290000D03*
%TO.P,MCU1,1*%
%TO.N,D0*%
X129969960Y-38750000D03*
%TD*%
D12*
%TO.P,S9,1*%
%TO.N,D4*%
X59600000Y-19900000D03*
%TO.P,S9,2*%
%TO.N,D0*%
X71150000Y-22100000D03*
%TD*%
D13*
%TO.P,D9,1*%
%TO.N,D0*%
X58875000Y-30850000D03*
%TO.P,D9,2*%
X58875000Y-28050000D03*
%TD*%
D12*
%TO.P,S5,1*%
%TO.N,D3*%
X41600000Y-42940000D03*
%TO.P,S5,2*%
%TO.N,D1*%
X53150000Y-45140000D03*
%TD*%
D14*
%TO.P,D18,1*%
%TO.N,D7*%
X124399909Y-100087816D03*
%TO.P,D18,2*%
X125265157Y-97424858D03*
%TD*%
D13*
%TO.P,D4,1*%
%TO.N,D6*%
X40875000Y-71890000D03*
%TO.P,D4,2*%
X40875000Y-69090000D03*
%TD*%
D15*
%TO.P,H4,*%
%TO.N,*%
X17875000Y-83090000D03*
%TD*%
D12*
%TO.P,S16,1*%
%TO.N,D4*%
X86600000Y-84520000D03*
%TO.P,S16,2*%
%TO.N,D7*%
X98150000Y-86720000D03*
%TD*%
D13*
%TO.P,D12,1*%
%TO.N,D0*%
X76875000Y-36790000D03*
%TO.P,D12,2*%
X76875000Y-33990000D03*
%TD*%
D16*
%TO.P,S17,1*%
%TO.N,D5*%
X107682674Y-85522084D03*
%TO.P,S17,2*%
%TO.N,D7*%
X118746318Y-89501816D03*
%TD*%
D13*
%TO.P,D14,1*%
%TO.N,D1*%
X94875000Y-56770000D03*
%TO.P,D14,2*%
X94875000Y-53970000D03*
%TD*%
D17*
%TO.P,S18,1*%
%TO.N,D8*%
X128473162Y-89897784D03*
%TO.P,S18,2*%
%TO.N,D7*%
X138778027Y-95559255D03*
%TD*%
D12*
%TO.P,S11,1*%
%TO.N,D5*%
X77600000Y-43840000D03*
%TO.P,S11,2*%
%TO.N,D1*%
X89150000Y-46040000D03*
%TD*%
D13*
%TO.P,D13,1*%
%TO.N,D6*%
X94875000Y-74770000D03*
%TO.P,D13,2*%
X94875000Y-71970000D03*
%TD*%
D15*
%TO.P,H5,*%
%TO.N,*%
X107875000Y-24770000D03*
%TD*%
D13*
%TO.P,D7,1*%
%TO.N,D6*%
X58875000Y-66850000D03*
%TO.P,D7,2*%
X58875000Y-64050000D03*
%TD*%
D12*
%TO.P,S10,1*%
%TO.N,D5*%
X77600000Y-61840000D03*
%TO.P,S10,2*%
%TO.N,D6*%
X89150000Y-64040000D03*
%TD*%
%TO.P,S4,1*%
%TO.N,D3*%
X41600000Y-60940000D03*
%TO.P,S4,2*%
%TO.N,D6*%
X53150000Y-63140000D03*
%TD*%
D13*
%TO.P,D8,1*%
%TO.N,D1*%
X58875000Y-48850000D03*
%TO.P,D8,2*%
X58875000Y-46050000D03*
%TD*%
%TO.P,D5,1*%
%TO.N,D1*%
X40875000Y-53890000D03*
%TO.P,D5,2*%
X40875000Y-51090000D03*
%TD*%
%TO.P,D16,1*%
%TO.N,D7*%
X85875000Y-95470000D03*
%TO.P,D16,2*%
X85875000Y-92670000D03*
%TD*%
D15*
%TO.P,H1,*%
%TO.N,*%
X17875000Y-29090000D03*
%TD*%
D18*
%TO.P,_1,1*%
%TO.N,D6*%
X124415000Y-76650000D03*
%TO.P,_1,2*%
%TO.N,D3*%
X119415000Y-76650000D03*
D19*
%TO.P,_1,A*%
%TO.N,D9*%
X124415000Y-62150000D03*
D20*
%TO.P,_1,B*%
%TO.N,D10*%
X119415000Y-62150000D03*
%TO.P,_1,C*%
%TO.N,GND*%
X121915000Y-62150000D03*
%TD*%
D12*
%TO.P,S8,1*%
%TO.N,D4*%
X59600000Y-37900000D03*
%TO.P,S8,2*%
%TO.N,D1*%
X71150000Y-40100000D03*
%TD*%
%TO.P,S1,1*%
%TO.N,D2*%
X23600000Y-68140000D03*
%TO.P,S1,2*%
%TO.N,D6*%
X35150000Y-70340000D03*
%TD*%
D15*
%TO.P,H2,*%
%TO.N,*%
X53875000Y-16850000D03*
%TD*%
D21*
%TO.P,PAD1,1*%
%TO.N,GND*%
X128225000Y-82370000D03*
%TO.P,PAD1,2*%
%TO.N,B+*%
X130725000Y-82370000D03*
%TD*%
D15*
%TO.P,H10,*%
%TO.N,*%
X110875000Y-37270000D03*
%TD*%
D13*
%TO.P,D19,1*%
%TO.N,D6*%
X103875000Y-71970000D03*
%TO.P,D19,2*%
X103875000Y-74770000D03*
%TD*%
%TO.P,D11,1*%
%TO.N,D1*%
X76875000Y-54790000D03*
%TO.P,D11,2*%
X76875000Y-51990000D03*
%TD*%
D15*
%TO.P,H12,*%
%TO.N,*%
X135527576Y-107909263D03*
%TD*%
D12*
%TO.P,S3,1*%
%TO.N,D2*%
X23600000Y-32140000D03*
%TO.P,S3,2*%
%TO.N,D0*%
X35150000Y-34340000D03*
%TD*%
D22*
%TO.P,D17,1*%
%TO.N,D7*%
X105253643Y-96223856D03*
%TO.P,D17,2*%
X105691659Y-93458328D03*
%TD*%
D13*
%TO.P,D1,1*%
%TO.N,D6*%
X22875000Y-79090000D03*
%TO.P,D1,2*%
X22875000Y-76290000D03*
%TD*%
D15*
%TO.P,H9,*%
%TO.N,*%
X132875000Y-37270000D03*
%TD*%
D13*
%TO.P,D15,1*%
%TO.N,D0*%
X94875000Y-38770000D03*
%TO.P,D15,2*%
X94875000Y-35970000D03*
%TD*%
D15*
%TO.P,H3,*%
%TO.N,*%
X71875000Y-16850000D03*
%TD*%
%TO.P,H11,*%
%TO.N,*%
X141089882Y-90790246D03*
%TD*%
D13*
%TO.P,D10,1*%
%TO.N,D6*%
X76875000Y-72790000D03*
%TO.P,D10,2*%
X76875000Y-69990000D03*
%TD*%
%TO.P,D6,1*%
%TO.N,D0*%
X40875000Y-35890000D03*
%TO.P,D6,2*%
X40875000Y-33090000D03*
%TD*%
D12*
%TO.P,S12,1*%
%TO.N,D5*%
X77600000Y-25840000D03*
%TO.P,S12,2*%
%TO.N,D0*%
X89150000Y-28040000D03*
%TD*%
D13*
%TO.P,D3,1*%
%TO.N,D0*%
X22875000Y-43090000D03*
%TO.P,D3,2*%
X22875000Y-40290000D03*
%TD*%
D12*
%TO.P,S13,1*%
%TO.N,D8*%
X95600000Y-63820000D03*
%TO.P,S13,2*%
%TO.N,D6*%
X107150000Y-66020000D03*
%TD*%
%TO.P,S15,1*%
%TO.N,D8*%
X95600000Y-27820000D03*
%TO.P,S15,2*%
%TO.N,D0*%
X107150000Y-30020000D03*
%TD*%
D15*
%TO.P,H8,*%
%TO.N,*%
X110875000Y-56770000D03*
%TD*%
D12*
%TO.P,S7,1*%
%TO.N,D4*%
X59600000Y-55900000D03*
%TO.P,S7,2*%
%TO.N,D6*%
X71150000Y-58100000D03*
%TD*%
%TO.P,S6,1*%
%TO.N,D3*%
X41600000Y-24940000D03*
%TO.P,S6,2*%
%TO.N,D0*%
X53150000Y-27140000D03*
%TD*%
%TO.P,S2,1*%
%TO.N,D2*%
X23600000Y-50140000D03*
%TO.P,S2,2*%
%TO.N,D1*%
X35150000Y-52340000D03*
%TD*%
%TO.P,S14,1*%
%TO.N,D8*%
X95600000Y-45820000D03*
%TO.P,S14,2*%
%TO.N,D1*%
X107150000Y-48020000D03*
%TD*%
D15*
%TO.P,H7,*%
%TO.N,*%
X132875000Y-56770000D03*
%TD*%
%TO.P,H6,*%
%TO.N,*%
X80875000Y-99470000D03*
%TD*%
D23*
%TO.P,T1,*%
%TO.N,*%
X132095000Y-73420000D03*
X134305000Y-73420000D03*
X132095000Y-66120000D03*
X134305000Y-66120000D03*
D24*
%TO.P,T1,1*%
%TO.N,pos*%
X131445000Y-67520000D03*
%TO.P,T1,2*%
%TO.N,B+*%
X131445000Y-70520000D03*
%TD*%
D13*
%TO.P,D2,1*%
%TO.N,D1*%
X22875000Y-61090000D03*
%TO.P,D2,2*%
X22875000Y-58290000D03*
%TD*%
D25*
%TO.N,D4*%
X83400000Y-82200000D03*
%TO.N,D0*%
X66200000Y-28400000D03*
%TO.N,D1*%
X84200000Y-49300000D03*
%TO.N,D5*%
X77881413Y-47500000D03*
%TO.N,D3*%
X42784500Y-45900000D03*
%TO.N,D2*%
X23801000Y-47700000D03*
%TO.N,B+*%
X129450002Y-81400000D03*
X129800000Y-69500000D03*
%TO.N,GND*%
X124600000Y-42875000D03*
X132350000Y-42050000D03*
X129450000Y-84000000D03*
%TO.N,pos*%
X128700000Y-64600000D03*
X118876000Y-60100000D03*
X129812500Y-65887500D03*
%TO.N,D0*%
X106050000Y-35550000D03*
X52700000Y-30600000D03*
X86500000Y-33800000D03*
X116700000Y-38750000D03*
X35050000Y-37850000D03*
%TO.N,D1*%
X67300000Y-42700000D03*
X34700000Y-55700000D03*
X52800000Y-48200000D03*
X101900000Y-52400000D03*
X115900000Y-42800000D03*
%TO.N,D2*%
X116400000Y-43830000D03*
X23900000Y-35900000D03*
X24300000Y-64700000D03*
%TO.N,D3*%
X120848456Y-49024000D03*
X41801000Y-29100000D03*
X42784500Y-58400000D03*
X115324000Y-47516021D03*
%TO.N,D4*%
X60400000Y-41700000D03*
X62890706Y-58909294D03*
X121800000Y-49475000D03*
X59881413Y-23200000D03*
%TO.N,D5*%
X121510164Y-50949684D03*
X81000000Y-64700000D03*
X78000000Y-29600000D03*
X109300000Y-88900000D03*
%TO.N,D6*%
X85250000Y-66650000D03*
X102500000Y-68400000D03*
X66300000Y-61200000D03*
X127800000Y-52400684D03*
%TO.N,D7*%
X116500000Y-53625000D03*
%TO.N,D8*%
X126387689Y-87812311D03*
X95801000Y-31400000D03*
X116694765Y-51218351D03*
X95800000Y-50000000D03*
X99150000Y-66650000D03*
%TO.N,D9*%
X132400000Y-50100000D03*
X115500000Y-50025000D03*
%TO.N,D10*%
X128000000Y-45625000D03*
%TD*%
D26*
%TO.N,pos*%
X128700000Y-64600000D02*
X128700000Y-64775000D01*
X128700000Y-64775000D02*
X129812500Y-65887500D01*
X118876000Y-60100000D02*
X118700000Y-59924000D01*
X118700000Y-50800000D02*
X116500000Y-48600000D01*
X116500000Y-48600000D02*
X116500000Y-46600000D01*
X118700000Y-59924000D02*
X118700000Y-50800000D01*
X117047000Y-46053000D02*
X117430000Y-46053000D01*
X116500000Y-46600000D02*
X117047000Y-46053000D01*
%TO.N,D2*%
X23801000Y-67939000D02*
X23600000Y-68140000D01*
X23801000Y-65199000D02*
X23801000Y-67939000D01*
X24300000Y-50840000D02*
X23600000Y-50140000D01*
X24300000Y-64700000D02*
X24300000Y-50840000D01*
X24300000Y-64700000D02*
X23801000Y-65199000D01*
%TO.N,D3*%
X41801000Y-29100000D02*
X41801000Y-25141000D01*
X41801000Y-25141000D02*
X41600000Y-24940000D01*
X41801000Y-29100000D02*
X41801000Y-42739000D01*
X41801000Y-42739000D02*
X41600000Y-42940000D01*
%TO.N,D1*%
X107150000Y-48020000D02*
X104870000Y-50300000D01*
X104000000Y-50300000D02*
X101900000Y-52400000D01*
X104870000Y-50300000D02*
X104000000Y-50300000D01*
X89150000Y-46040000D02*
X86890000Y-48300000D01*
X86890000Y-48300000D02*
X85200000Y-48300000D01*
X85200000Y-48300000D02*
X84200000Y-49300000D01*
%TO.N,D5*%
X77881413Y-61558587D02*
X77600000Y-61840000D01*
X77881413Y-47500000D02*
X77881413Y-44121413D01*
X77881413Y-47500000D02*
X77881413Y-61558587D01*
X77881413Y-44121413D02*
X77600000Y-43840000D01*
%TO.N,D0*%
X86500000Y-33800000D02*
X86600000Y-33800000D01*
X86600000Y-33800000D02*
X89150000Y-31250000D01*
X89150000Y-31250000D02*
X89150000Y-28040000D01*
%TO.N,D5*%
X81000000Y-64700000D02*
X100800000Y-84500000D01*
X100800000Y-84500000D02*
X106660590Y-84500000D01*
X106660590Y-84500000D02*
X107682674Y-85522084D01*
%TO.N,D3*%
X115324000Y-47516021D02*
X115324000Y-47604042D01*
X117700000Y-51075620D02*
X117700000Y-74935000D01*
X117700000Y-74935000D02*
X119415000Y-76650000D01*
X115324000Y-47604042D02*
X115598000Y-47878042D01*
X115598000Y-47878042D02*
X115598000Y-48973620D01*
X115598000Y-48973620D02*
X117700000Y-51075620D01*
%TO.N,D10*%
X128000000Y-45625000D02*
X127957609Y-45582609D01*
X127957609Y-45582609D02*
X127617391Y-45582609D01*
X126634782Y-44600000D02*
X117200000Y-44600000D01*
X127617391Y-45582609D02*
X126634782Y-44600000D01*
X117200000Y-44600000D02*
X115430000Y-46370000D01*
X115430000Y-46370000D02*
X113305040Y-46370000D01*
%TO.N,D1*%
X115900000Y-42800000D02*
X116202604Y-43102604D01*
X116202604Y-43102604D02*
X116902604Y-43102604D01*
X116902604Y-43102604D02*
X117400000Y-43600000D01*
X117400000Y-43600000D02*
X127100000Y-43600000D01*
X127100000Y-43600000D02*
X129410000Y-41290000D01*
X129410000Y-41290000D02*
X130444960Y-41290000D01*
%TO.N,D5*%
X121510164Y-50949684D02*
X121560480Y-51000000D01*
X121560480Y-51000000D02*
X129994960Y-51000000D01*
X129994960Y-51000000D02*
X130444960Y-51450000D01*
%TO.N,D6*%
X127800000Y-52400684D02*
X127900684Y-52400684D01*
X129490000Y-53990000D02*
X130444960Y-53990000D01*
X127900684Y-52400684D02*
X129490000Y-53990000D01*
%TO.N,D3*%
X120848456Y-49024000D02*
X120948655Y-49024000D01*
X120948655Y-49024000D02*
X121272655Y-48700000D01*
X122622371Y-48800000D02*
X127500000Y-48800000D01*
X122522371Y-48700000D02*
X122622371Y-48800000D01*
X121272655Y-48700000D02*
X122522371Y-48700000D01*
X129930000Y-46370000D02*
X130444960Y-46370000D01*
X127500000Y-48800000D02*
X129930000Y-46370000D01*
%TO.N,D4*%
X121800000Y-49475000D02*
X121920651Y-49475000D01*
X122095651Y-49300000D02*
X130054960Y-49300000D01*
X130054960Y-49300000D02*
X130444960Y-48910000D01*
X121920651Y-49475000D02*
X122095651Y-49300000D01*
X83400000Y-82200000D02*
X85720000Y-84520000D01*
%TO.N,D0*%
X66200000Y-28400000D02*
X68100000Y-28400000D01*
X68100000Y-28400000D02*
X71150000Y-25350000D01*
X71150000Y-25350000D02*
X71150000Y-22100000D01*
%TO.N,D3*%
X42784500Y-45900000D02*
X42784500Y-58400000D01*
%TO.N,D2*%
X23801000Y-47700000D02*
X23801000Y-49939000D01*
%TO.N,D4*%
X62890706Y-58909294D02*
X73900000Y-69918588D01*
X73900000Y-72700000D02*
X83400000Y-82200000D01*
X73900000Y-69918588D02*
X73900000Y-72700000D01*
X85720000Y-84520000D02*
X86600000Y-84520000D01*
%TO.N,B+*%
X129450002Y-81400000D02*
X130300000Y-81400000D01*
X130820000Y-70520000D02*
X129800000Y-69500000D01*
X130300000Y-81400000D02*
X130725000Y-81825000D01*
X131445000Y-70520000D02*
X130657946Y-70520000D01*
X129800000Y-69500000D02*
X129800000Y-69400000D01*
X129800000Y-74075000D02*
X130725000Y-75000000D01*
X131445000Y-70520000D02*
X130820000Y-70520000D01*
X130725000Y-81825000D02*
X130725000Y-82370000D01*
X129800000Y-69500000D02*
X129800000Y-74075000D01*
X130725000Y-75000000D02*
X130725000Y-82370000D01*
X129800000Y-69400000D02*
X129700000Y-69300000D01*
%TO.N,GND*%
X133126000Y-42826000D02*
X132350000Y-42050000D01*
X126600000Y-80745000D02*
X128225000Y-82370000D01*
X129450000Y-84000000D02*
X130600000Y-85150000D01*
X133126000Y-53680596D02*
X133126000Y-42826000D01*
X128300000Y-84000000D02*
X128225000Y-83925000D01*
X132821000Y-60121000D02*
X130600000Y-57900000D01*
X130600000Y-57900000D02*
X130600000Y-56206596D01*
X121915000Y-62150000D02*
X118151000Y-65914000D01*
X130600000Y-56206596D02*
X133126000Y-53680596D01*
X124213298Y-42875000D02*
X123939298Y-43149000D01*
X134031000Y-67398000D02*
X132821000Y-66188000D01*
X118151000Y-72451000D02*
X121274000Y-75574000D01*
X126600000Y-76200000D02*
X126600000Y-80745000D01*
X125974000Y-75574000D02*
X126600000Y-76200000D01*
X129450000Y-84000000D02*
X128300000Y-84000000D01*
X123939298Y-43149000D02*
X117586810Y-43149000D01*
X132821000Y-72822140D02*
X134031000Y-71612140D01*
X130650000Y-85150000D02*
X132821000Y-82979000D01*
X130600000Y-85150000D02*
X130650000Y-85150000D01*
X134031000Y-71612140D02*
X134031000Y-67398000D01*
X117586810Y-43149000D02*
X115727810Y-41290000D01*
X128225000Y-83925000D02*
X128225000Y-82370000D01*
X132821000Y-82979000D02*
X132821000Y-72822140D01*
X124600000Y-42875000D02*
X124213298Y-42875000D01*
X118151000Y-65914000D02*
X118151000Y-72451000D01*
X132821000Y-66188000D02*
X132821000Y-60121000D01*
X121274000Y-75574000D02*
X125974000Y-75574000D01*
X115727810Y-41290000D02*
X113305040Y-41290000D01*
%TO.N,pos*%
X126320000Y-46053000D02*
X126320000Y-45780000D01*
X125640000Y-45100000D02*
X118000000Y-45100000D01*
X131445000Y-67520000D02*
X129812500Y-65887500D01*
X126320000Y-45780000D02*
X125640000Y-45100000D01*
X117430000Y-46053000D02*
X117430000Y-45670000D01*
X117430000Y-46053000D02*
X116947000Y-46053000D01*
X117430000Y-45670000D02*
X118000000Y-45100000D01*
%TO.N,D0*%
X53150000Y-30150000D02*
X52700000Y-30600000D01*
X107150000Y-34450000D02*
X106050000Y-35550000D01*
X116700000Y-38750000D02*
X130444960Y-38750000D01*
X35150000Y-37750000D02*
X35050000Y-37850000D01*
X35150000Y-34340000D02*
X35150000Y-37750000D01*
X53150000Y-27140000D02*
X53150000Y-30150000D01*
X107150000Y-30020000D02*
X107150000Y-34450000D01*
%TO.N,D1*%
X53150000Y-47850000D02*
X52800000Y-48200000D01*
X67376900Y-42623100D02*
X67300000Y-42700000D01*
X53150000Y-45140000D02*
X53150000Y-47850000D01*
X71150000Y-40100000D02*
X68626900Y-42623100D01*
X68626900Y-42623100D02*
X67376900Y-42623100D01*
X35150000Y-52340000D02*
X35150000Y-55250000D01*
X35150000Y-55250000D02*
X34700000Y-55700000D01*
%TO.N,D2*%
X130125960Y-44149000D02*
X130444960Y-43830000D01*
X23801000Y-49939000D02*
X23600000Y-50140000D01*
X23600000Y-32140000D02*
X23801000Y-32341000D01*
X116719000Y-44149000D02*
X130125960Y-44149000D01*
X23801000Y-32341000D02*
X23801000Y-47700000D01*
X116400000Y-43830000D02*
X116719000Y-44149000D01*
%TO.N,D3*%
X42784500Y-58400000D02*
X42784500Y-59755500D01*
X41600000Y-42940000D02*
X42784500Y-44124500D01*
X42784500Y-44124500D02*
X42784500Y-45900000D01*
X42784500Y-59755500D02*
X41600000Y-60940000D01*
%TO.N,D4*%
X59881413Y-23200000D02*
X59881413Y-37618587D01*
X59600000Y-37900000D02*
X60400000Y-38700000D01*
X59881413Y-37618587D02*
X59600000Y-37900000D01*
X60400000Y-55100000D02*
X59600000Y-55900000D01*
X60400000Y-41700000D02*
X60400000Y-55100000D01*
X59600000Y-19900000D02*
X59881413Y-20181413D01*
X59881413Y-55900000D02*
X62890706Y-58909294D01*
X59881413Y-20181413D02*
X59881413Y-23200000D01*
X59600000Y-55900000D02*
X59881413Y-55900000D01*
X60400000Y-38700000D02*
X60400000Y-41700000D01*
%TO.N,D5*%
X77600000Y-61840000D02*
X78140000Y-61840000D01*
X78000000Y-26240000D02*
X78000000Y-29600000D01*
X107682674Y-87282674D02*
X109300000Y-88900000D01*
X78000000Y-43440000D02*
X77600000Y-43840000D01*
X78000000Y-29600000D02*
X78000000Y-43440000D01*
X77600000Y-25840000D02*
X78000000Y-26240000D01*
X78140000Y-61840000D02*
X81000000Y-64700000D01*
X107682674Y-85522084D02*
X107682674Y-87282674D01*
%TO.N,D6*%
X53150000Y-65850099D02*
X49910099Y-69090000D01*
X69274000Y-59976000D02*
X67524000Y-59976000D01*
X53150000Y-63140000D02*
X53150000Y-65850099D01*
X35150000Y-70340000D02*
X35150000Y-73050099D01*
X67524000Y-59976000D02*
X66300000Y-61200000D01*
X85336900Y-66563100D02*
X85250000Y-66650000D01*
X49910099Y-69090000D02*
X40875000Y-69090000D01*
X89150000Y-64040000D02*
X86626900Y-66563100D01*
X71150000Y-58100000D02*
X69274000Y-59976000D01*
X104626900Y-68543100D02*
X102643100Y-68543100D01*
X107150000Y-66020000D02*
X104626900Y-68543100D01*
X86626900Y-66563100D02*
X85336900Y-66563100D01*
X35150000Y-73050099D02*
X31910099Y-76290000D01*
X31910099Y-76290000D02*
X22875000Y-76290000D01*
X102643100Y-68543100D02*
X102500000Y-68400000D01*
%TO.N,D7*%
X94058313Y-89243100D02*
X90631413Y-92670000D01*
X115410000Y-54715000D02*
X114515000Y-54715000D01*
X110852481Y-94001652D02*
X106234983Y-94001652D01*
X114515000Y-54715000D02*
X113790000Y-53990000D01*
X98150000Y-86720000D02*
X95626900Y-89243100D01*
X95626900Y-89243100D02*
X94058313Y-89243100D01*
X138778027Y-96926156D02*
X136209089Y-99495094D01*
X106234983Y-94001652D02*
X105691659Y-93458328D01*
X136209089Y-99495094D02*
X127335393Y-99495094D01*
X113790000Y-53990000D02*
X113305040Y-53990000D01*
X113988640Y-90865493D02*
X110852481Y-94001652D01*
X138778027Y-95559255D02*
X138778027Y-96926156D01*
X90631413Y-92670000D02*
X85875000Y-92670000D01*
X116500000Y-53625000D02*
X115410000Y-54715000D01*
X127335393Y-99495094D02*
X125265157Y-97424858D01*
X117382641Y-90865493D02*
X113988640Y-90865493D01*
X118746318Y-89501816D02*
X117382641Y-90865493D01*
%TO.N,D8*%
X95600000Y-27820000D02*
X95801000Y-28021000D01*
X95600000Y-63820000D02*
X97476000Y-65696000D01*
X95801000Y-46021000D02*
X95801000Y-63619000D01*
X116694765Y-51218351D02*
X115581649Y-51218351D01*
X95801000Y-28021000D02*
X95801000Y-31400000D01*
X109619378Y-71044000D02*
X126387689Y-87812311D01*
X126387689Y-87812311D02*
X128473162Y-89897784D01*
X95801000Y-31400000D02*
X95801000Y-45619000D01*
X99150000Y-66650000D02*
X103544000Y-71044000D01*
X115581649Y-51218351D02*
X115350000Y-51450000D01*
X95600000Y-45820000D02*
X95801000Y-46021000D01*
X95801000Y-45619000D02*
X95600000Y-45820000D01*
X103544000Y-71044000D02*
X109619378Y-71044000D01*
X115350000Y-51450000D02*
X113305040Y-51450000D01*
X98196000Y-65696000D02*
X99150000Y-66650000D01*
X95801000Y-63619000D02*
X95600000Y-63820000D01*
X97476000Y-65696000D02*
X98196000Y-65696000D01*
%TO.N,D9*%
X124415000Y-61753786D02*
X132400000Y-53768786D01*
X115343950Y-49868950D02*
X115343950Y-49643950D01*
X114610000Y-48910000D02*
X113305040Y-48910000D01*
X115343950Y-49643950D02*
X114610000Y-48910000D01*
X132400000Y-53768786D02*
X132400000Y-50100000D01*
X124415000Y-62150000D02*
X124415000Y-61753786D01*
X115500000Y-50025000D02*
X115343950Y-49868950D01*
%TO.N,D10*%
X116049000Y-48786810D02*
X116049000Y-48159426D01*
X116049000Y-47555986D02*
X116049000Y-47149000D01*
X118151000Y-50888810D02*
X116049000Y-48786810D01*
X118151000Y-60886000D02*
X118151000Y-50888810D01*
X116050000Y-48158426D02*
X116050000Y-47556986D01*
X116050000Y-47556986D02*
X116049000Y-47555986D01*
X119415000Y-62150000D02*
X118151000Y-60886000D01*
X116049000Y-48159426D02*
X116050000Y-48158426D01*
X115270000Y-46370000D02*
X113305040Y-46370000D01*
X116049000Y-47149000D02*
X115270000Y-46370000D01*
%TD*%
%TA.AperFunction,Conductor*%
%TO.N,D1*%
G36*
X107140921Y-48018439D02*
G01*
X107148865Y-48022572D01*
X107151560Y-48029078D01*
X107263452Y-49311277D01*
X107260757Y-49319817D01*
X107256059Y-49323190D01*
X105238406Y-50112706D01*
X105229453Y-50112529D01*
X105225870Y-50110083D01*
X105059916Y-49944129D01*
X105056489Y-49935856D01*
X105057293Y-49931593D01*
X105296612Y-49320000D01*
X105846809Y-47913939D01*
X105853015Y-47907484D01*
X105858721Y-47906547D01*
X107140921Y-48018439D01*
G37*
%TD.AperFunction*%
%TD*%
%TA.AperFunction,Conductor*%
%TO.N,D1*%
G36*
X102377599Y-51757098D02*
G01*
X102542901Y-51922400D01*
X102546328Y-51930673D01*
X102545276Y-51935522D01*
X102238277Y-52609733D01*
X102231730Y-52615842D01*
X102222780Y-52615532D01*
X102221153Y-52614628D01*
X101901256Y-52402011D01*
X101897988Y-52398743D01*
X101685371Y-52078846D01*
X101683645Y-52070059D01*
X101688639Y-52062626D01*
X101690256Y-52061727D01*
X102364478Y-51754722D01*
X102373427Y-51754413D01*
X102377599Y-51757098D01*
G37*
%TD.AperFunction*%
%TD*%
%TA.AperFunction,Conductor*%
%TO.N,D1*%
G36*
X89140921Y-46038439D02*
G01*
X89148865Y-46042572D01*
X89151560Y-46049078D01*
X89263452Y-47331277D01*
X89260757Y-47339817D01*
X89256059Y-47343190D01*
X87238406Y-48132706D01*
X87229453Y-48132529D01*
X87225870Y-48130083D01*
X87059916Y-47964129D01*
X87056489Y-47955856D01*
X87057293Y-47951593D01*
X87296612Y-47340000D01*
X87846809Y-45933939D01*
X87853015Y-45927484D01*
X87858721Y-45926547D01*
X89140921Y-46038439D01*
G37*
%TD.AperFunction*%
%TD*%
%TA.AperFunction,Conductor*%
%TO.N,D1*%
G36*
X84677599Y-48657098D02*
G01*
X84842901Y-48822400D01*
X84846328Y-48830673D01*
X84845276Y-48835522D01*
X84538277Y-49509733D01*
X84531730Y-49515842D01*
X84522780Y-49515532D01*
X84521153Y-49514628D01*
X84201256Y-49302011D01*
X84197988Y-49298743D01*
X83985371Y-48978846D01*
X83983645Y-48970059D01*
X83988639Y-48962626D01*
X83990256Y-48961727D01*
X84664478Y-48654722D01*
X84673427Y-48654413D01*
X84677599Y-48657098D01*
G37*
%TD.AperFunction*%
%TD*%
%TA.AperFunction,Conductor*%
%TO.N,D5*%
G36*
X77607861Y-43848365D02*
G01*
X77610181Y-43850355D01*
X78760110Y-45132804D01*
X78763082Y-45141251D01*
X78760713Y-45147695D01*
X78009925Y-46135380D01*
X78002191Y-46139893D01*
X78000611Y-46140000D01*
X77761244Y-46140000D01*
X77752990Y-46136593D01*
X77628946Y-46013135D01*
X77625500Y-46004870D01*
X77625500Y-45925266D01*
X77595548Y-45697763D01*
X77536158Y-45476114D01*
X77536154Y-45476103D01*
X77448347Y-45264120D01*
X77448344Y-45264112D01*
X77333611Y-45065388D01*
X77193919Y-44883339D01*
X77034235Y-44723655D01*
X77030808Y-44715382D01*
X77032705Y-44708994D01*
X77591670Y-43851773D01*
X77599059Y-43846717D01*
X77607861Y-43848365D01*
G37*
%TD.AperFunction*%
%TD*%
%TA.AperFunction,Conductor*%
%TO.N,D5*%
G36*
X78006572Y-46711113D02*
G01*
X78009257Y-46715285D01*
X78268914Y-47409104D01*
X78268604Y-47418054D01*
X78262057Y-47424163D01*
X78260267Y-47424675D01*
X77883724Y-47500534D01*
X77879102Y-47500534D01*
X77502558Y-47424675D01*
X77495125Y-47419681D01*
X77493399Y-47410894D01*
X77493908Y-47409112D01*
X77753569Y-46715284D01*
X77759678Y-46708738D01*
X77764527Y-46707686D01*
X77998299Y-46707686D01*
X78006572Y-46711113D01*
G37*
%TD.AperFunction*%
%TD*%
%TA.AperFunction,Conductor*%
%TO.N,D5*%
G36*
X78008884Y-59543427D02*
G01*
X78009925Y-59544620D01*
X78760713Y-60532304D01*
X78762992Y-60540964D01*
X78760110Y-60547195D01*
X77610181Y-61829644D01*
X77602106Y-61833516D01*
X77593659Y-61830544D01*
X77591669Y-61828224D01*
X76756858Y-60547969D01*
X76755211Y-60539169D01*
X76758404Y-60533288D01*
X77752990Y-59543407D01*
X77761244Y-59540000D01*
X78000611Y-59540000D01*
X78008884Y-59543427D01*
G37*
%TD.AperFunction*%
%TD*%
%TA.AperFunction,Conductor*%
%TO.N,D5*%
G36*
X78260267Y-47575324D02*
G01*
X78267700Y-47580318D01*
X78269426Y-47589105D01*
X78268914Y-47590895D01*
X78009257Y-48284715D01*
X78003148Y-48291262D01*
X77998299Y-48292314D01*
X77764527Y-48292314D01*
X77756254Y-48288887D01*
X77753569Y-48284715D01*
X77493911Y-47590895D01*
X77494221Y-47581945D01*
X77500768Y-47575836D01*
X77502551Y-47575325D01*
X77879105Y-47499465D01*
X77883721Y-47499465D01*
X78260267Y-47575324D01*
G37*
%TD.AperFunction*%
%TD*%
%TA.AperFunction,Conductor*%
%TO.N,D0*%
G36*
X87023889Y-33204287D02*
G01*
X87027029Y-33206528D01*
X87192335Y-33371834D01*
X87195762Y-33380107D01*
X87194234Y-33385888D01*
X86838787Y-34011320D01*
X86831720Y-34016819D01*
X86822834Y-34015711D01*
X86822139Y-34015283D01*
X86503355Y-33803407D01*
X86498362Y-33795975D01*
X86423932Y-33417690D01*
X86425697Y-33408913D01*
X86431605Y-33404369D01*
X87014953Y-33203737D01*
X87023889Y-33204287D01*
G37*
%TD.AperFunction*%
%TD*%
%TA.AperFunction,Conductor*%
%TO.N,D0*%
G36*
X89157130Y-28048922D02*
G01*
X89159276Y-28051068D01*
X90144149Y-29332389D01*
X90146474Y-29341037D01*
X90143678Y-29347223D01*
X89278496Y-30336004D01*
X89270469Y-30339974D01*
X89269691Y-30340000D01*
X89030309Y-30340000D01*
X89022036Y-30336573D01*
X89021504Y-30336005D01*
X89021503Y-30336004D01*
X88156321Y-29347224D01*
X88153452Y-29338741D01*
X88155850Y-29332389D01*
X89140724Y-28051068D01*
X89148482Y-28046597D01*
X89157130Y-28048922D01*
G37*
%TD.AperFunction*%
%TD*%
%TA.AperFunction,Conductor*%
%TO.N,D5*%
G36*
X81337373Y-64488639D02*
G01*
X81338277Y-64490266D01*
X81645276Y-65164477D01*
X81645586Y-65173427D01*
X81642901Y-65177599D01*
X81477599Y-65342901D01*
X81469326Y-65346328D01*
X81464477Y-65345276D01*
X80790266Y-65038277D01*
X80784157Y-65031730D01*
X80784467Y-65022780D01*
X80785365Y-65021163D01*
X80997988Y-64701255D01*
X81001256Y-64697988D01*
X81321155Y-64485370D01*
X81329940Y-64483645D01*
X81337373Y-64488639D01*
G37*
%TD.AperFunction*%
%TD*%
%TA.AperFunction,Conductor*%
%TO.N,D5*%
G36*
X106602928Y-84038038D02*
G01*
X106607002Y-84041542D01*
X107674181Y-85509030D01*
X107676276Y-85517736D01*
X107671600Y-85525373D01*
X107668315Y-85527045D01*
X106506100Y-85902462D01*
X106497174Y-85901744D01*
X106496654Y-85901461D01*
X106463693Y-85882432D01*
X106410644Y-85851804D01*
X106410636Y-85851800D01*
X106410635Y-85851800D01*
X106198652Y-85763993D01*
X106198641Y-85763989D01*
X106178647Y-85758632D01*
X106171543Y-85753181D01*
X105529887Y-84627694D01*
X105528351Y-84621899D01*
X105528351Y-84383565D01*
X105531778Y-84375292D01*
X105536514Y-84372412D01*
X106594007Y-84037271D01*
X106602928Y-84038038D01*
G37*
%TD.AperFunction*%
%TD*%
%TA.AperFunction,Conductor*%
%TO.N,D3*%
G36*
X118459917Y-75513688D02*
G01*
X119551894Y-75910982D01*
X119558497Y-75917031D01*
X119559372Y-75924247D01*
X119417227Y-76643019D01*
X119412260Y-76650470D01*
X119408019Y-76652227D01*
X118689247Y-76794372D01*
X118680466Y-76792615D01*
X118675982Y-76786894D01*
X118623636Y-76643019D01*
X118278689Y-75694919D01*
X118279081Y-75685976D01*
X118281408Y-75682652D01*
X118447650Y-75516410D01*
X118455922Y-75512984D01*
X118459917Y-75513688D01*
G37*
%TD.AperFunction*%
%TD*%
%TA.AperFunction,Conductor*%
%TO.N,D3*%
G36*
X115711258Y-47442470D02*
G01*
X115716215Y-47449928D01*
X115716434Y-47452082D01*
X115722899Y-48208822D01*
X115719543Y-48217124D01*
X115711299Y-48220622D01*
X115477852Y-48220622D01*
X115469579Y-48217195D01*
X115469572Y-48217188D01*
X115284636Y-48031951D01*
X115001453Y-47748306D01*
X114998034Y-47740032D01*
X115001468Y-47731762D01*
X115003209Y-47730330D01*
X115322047Y-47516331D01*
X115326308Y-47514567D01*
X115702481Y-47440701D01*
X115711258Y-47442470D01*
G37*
%TD.AperFunction*%
%TD*%
%TA.AperFunction,Conductor*%
%TO.N,D10*%
G36*
X127418357Y-45201912D02*
G01*
X128064482Y-45232053D01*
X128072586Y-45235861D01*
X128075623Y-45244285D01*
X128075416Y-45245999D01*
X128001648Y-45620922D01*
X127996688Y-45628378D01*
X127996644Y-45628407D01*
X127675736Y-45841695D01*
X127666949Y-45843421D01*
X127660647Y-45839869D01*
X127244047Y-45386708D01*
X127240970Y-45378299D01*
X127244386Y-45370518D01*
X127409578Y-45205326D01*
X127417850Y-45201900D01*
X127418357Y-45201912D01*
G37*
%TD.AperFunction*%
%TD*%
%TA.AperFunction,Conductor*%
%TO.N,D10*%
G36*
X114436285Y-45488833D02*
G01*
X115768351Y-45851053D01*
X115773553Y-45854070D01*
X115939437Y-46019954D01*
X115942864Y-46028227D01*
X115939437Y-46036500D01*
X115939019Y-46036898D01*
X114855951Y-47017944D01*
X114847518Y-47020959D01*
X114843548Y-47020053D01*
X113322640Y-46378430D01*
X113316350Y-46372057D01*
X113316408Y-46363102D01*
X113319967Y-46358444D01*
X114426000Y-45490917D01*
X114434623Y-45488509D01*
X114436285Y-45488833D01*
G37*
%TD.AperFunction*%
%TD*%
%TA.AperFunction,Conductor*%
%TO.N,D1*%
G36*
X116239317Y-42585818D02*
G01*
X116564246Y-42974346D01*
X116566971Y-42981851D01*
X116566971Y-43215336D01*
X116563544Y-43223609D01*
X116555271Y-43227036D01*
X116554717Y-43227023D01*
X115835502Y-43192955D01*
X115827401Y-43189140D01*
X115824369Y-43180714D01*
X115824573Y-43179022D01*
X115898061Y-42804780D01*
X115903018Y-42797323D01*
X116223858Y-42583587D01*
X116232641Y-42581853D01*
X116239317Y-42585818D01*
G37*
%TD.AperFunction*%
%TD*%
%TA.AperFunction,Conductor*%
%TO.N,D1*%
G36*
X130436226Y-41289129D02*
G01*
X130444438Y-41292698D01*
X130447500Y-41298555D01*
X130618231Y-42161040D01*
X130616476Y-42169821D01*
X130609026Y-42174789D01*
X130608839Y-42174825D01*
X128286331Y-42595380D01*
X128277579Y-42593482D01*
X128275973Y-42592140D01*
X128109176Y-42425343D01*
X128105749Y-42417070D01*
X128106731Y-42412378D01*
X128609127Y-41264739D01*
X128615584Y-41258536D01*
X128620043Y-41257734D01*
X130436226Y-41289129D01*
G37*
%TD.AperFunction*%
%TD*%
%TA.AperFunction,Conductor*%
%TO.N,D5*%
G36*
X129322862Y-50570074D02*
G01*
X129323645Y-50570636D01*
X130430225Y-51437671D01*
X130434624Y-51445471D01*
X130432219Y-51454097D01*
X130427506Y-51457682D01*
X128899962Y-52093607D01*
X128891007Y-52093623D01*
X128887589Y-52091458D01*
X127829745Y-51128481D01*
X127825934Y-51120378D01*
X127825921Y-51119829D01*
X127825921Y-50884534D01*
X127829348Y-50876261D01*
X127835257Y-50873076D01*
X129314068Y-50568387D01*
X129322862Y-50570074D01*
G37*
%TD.AperFunction*%
%TD*%
%TA.AperFunction,Conductor*%
%TO.N,D5*%
G36*
X121741410Y-50621175D02*
G01*
X122295600Y-50871888D01*
X122301726Y-50878420D01*
X122302478Y-50882548D01*
X122302478Y-51116326D01*
X122299051Y-51124599D01*
X122294179Y-51127521D01*
X121600526Y-51338253D01*
X121591614Y-51337379D01*
X121585930Y-51330459D01*
X121585658Y-51329383D01*
X121510127Y-50954464D01*
X121511853Y-50945678D01*
X121511882Y-50945634D01*
X121726875Y-50625314D01*
X121734330Y-50620356D01*
X121741410Y-50621175D01*
G37*
%TD.AperFunction*%
%TD*%
%TA.AperFunction,Conductor*%
%TO.N,D6*%
G36*
X128326446Y-52644766D02*
G01*
X130609113Y-53104989D01*
X130616545Y-53109982D01*
X130618277Y-53118729D01*
X130447540Y-53981241D01*
X130442572Y-53988691D01*
X130436017Y-53990669D01*
X128620118Y-53983540D01*
X128611858Y-53980081D01*
X128609313Y-53976215D01*
X128146419Y-52827479D01*
X128146505Y-52818526D01*
X128148995Y-52814837D01*
X128315870Y-52647962D01*
X128324142Y-52644536D01*
X128326446Y-52644766D01*
G37*
%TD.AperFunction*%
%TD*%
%TA.AperFunction,Conductor*%
%TO.N,D6*%
G36*
X128138366Y-52188664D02*
G01*
X128138790Y-52189353D01*
X128494568Y-52814451D01*
X128495682Y-52823336D01*
X128492673Y-52828511D01*
X128327368Y-52993816D01*
X128319095Y-52997243D01*
X128315297Y-52996610D01*
X127731616Y-52796310D01*
X127724903Y-52790383D01*
X127723934Y-52782984D01*
X127798352Y-52404759D01*
X127803309Y-52397307D01*
X128122146Y-52185395D01*
X128130933Y-52183670D01*
X128138366Y-52188664D01*
G37*
%TD.AperFunction*%
%TD*%
%TA.AperFunction,Conductor*%
%TO.N,D3*%
G36*
X121531853Y-48578736D02*
G01*
X121535881Y-48586734D01*
X121535913Y-48587598D01*
X121535913Y-48820728D01*
X121533161Y-48828266D01*
X121187779Y-49238233D01*
X121179828Y-49242352D01*
X121172344Y-49240432D01*
X120851511Y-49026701D01*
X120846526Y-49019262D01*
X120846517Y-49019218D01*
X120772962Y-48644633D01*
X120774731Y-48635855D01*
X120782189Y-48630898D01*
X120783569Y-48630712D01*
X121523349Y-48575930D01*
X121531853Y-48578736D01*
G37*
%TD.AperFunction*%
%TD*%
%TA.AperFunction,Conductor*%
%TO.N,D3*%
G36*
X130443517Y-46373004D02*
G01*
X130447774Y-46379938D01*
X130618507Y-47242434D01*
X130616752Y-47251215D01*
X130610555Y-47255862D01*
X128585752Y-47895658D01*
X128576831Y-47894883D01*
X128573954Y-47892775D01*
X128406635Y-47725456D01*
X128403208Y-47717183D01*
X128403437Y-47714881D01*
X128628485Y-46597086D01*
X128633476Y-46589655D01*
X128638546Y-46587784D01*
X130434894Y-46370595D01*
X130443517Y-46373004D01*
G37*
%TD.AperFunction*%
%TD*%
%TA.AperFunction,Conductor*%
%TO.N,D4*%
G36*
X128940020Y-48226360D02*
G01*
X130428402Y-48902029D01*
X130434518Y-48908569D01*
X130434219Y-48917518D01*
X130430781Y-48921892D01*
X129323839Y-49789211D01*
X129315213Y-49791616D01*
X129313869Y-49791372D01*
X127810014Y-49427166D01*
X127802780Y-49421888D01*
X127801068Y-49415795D01*
X127801068Y-49180449D01*
X127804495Y-49172176D01*
X127805240Y-49171493D01*
X128927663Y-48228059D01*
X128936199Y-48225360D01*
X128940020Y-48226360D01*
G37*
%TD.AperFunction*%
%TD*%
%TA.AperFunction,Conductor*%
%TO.N,D4*%
G36*
X122542037Y-49173615D02*
G01*
X122549769Y-49178133D01*
X122552150Y-49185207D01*
X122552150Y-49419016D01*
X122548723Y-49427289D01*
X122547299Y-49428502D01*
X122032044Y-49800500D01*
X122023330Y-49802564D01*
X122015709Y-49797863D01*
X122015480Y-49797534D01*
X121801718Y-49479049D01*
X121799953Y-49470270D01*
X121799963Y-49470218D01*
X121875866Y-49093454D01*
X121880859Y-49086024D01*
X121888919Y-49084176D01*
X122542037Y-49173615D01*
G37*
%TD.AperFunction*%
%TD*%
%TA.AperFunction,Conductor*%
%TO.N,D4*%
G36*
X85302908Y-83223060D02*
G01*
X85304104Y-83224104D01*
X86587139Y-84507139D01*
X86590566Y-84515412D01*
X86587139Y-84523685D01*
X86582433Y-84526555D01*
X85309201Y-84934099D01*
X85300277Y-84933357D01*
X85295367Y-84928566D01*
X84508706Y-83488969D01*
X84507746Y-83480066D01*
X84510698Y-83475088D01*
X84678497Y-83307289D01*
X84685183Y-83303972D01*
X85294249Y-83220785D01*
X85302908Y-83223060D01*
G37*
%TD.AperFunction*%
%TD*%
%TA.AperFunction,Conductor*%
%TO.N,D4*%
G36*
X83737373Y-81988639D02*
G01*
X83738277Y-81990266D01*
X84045276Y-82664477D01*
X84045586Y-82673427D01*
X84042901Y-82677599D01*
X83877599Y-82842901D01*
X83869326Y-82846328D01*
X83864477Y-82845276D01*
X83190266Y-82538277D01*
X83184157Y-82531730D01*
X83184467Y-82522780D01*
X83185365Y-82521163D01*
X83397988Y-82201255D01*
X83401256Y-82197988D01*
X83721155Y-81985370D01*
X83729940Y-81983645D01*
X83737373Y-81988639D01*
G37*
%TD.AperFunction*%
%TD*%
%TA.AperFunction,Conductor*%
%TO.N,D0*%
G36*
X66290890Y-28012496D02*
G01*
X66984715Y-28272156D01*
X66991262Y-28278265D01*
X66992314Y-28283114D01*
X66992314Y-28516885D01*
X66988887Y-28525158D01*
X66984715Y-28527843D01*
X66290895Y-28787501D01*
X66281945Y-28787191D01*
X66275836Y-28780644D01*
X66275324Y-28778854D01*
X66224214Y-28525158D01*
X66199465Y-28402308D01*
X66199465Y-28397691D01*
X66275324Y-28021143D01*
X66280318Y-28013712D01*
X66289105Y-28011986D01*
X66290890Y-28012496D01*
G37*
%TD.AperFunction*%
%TD*%
%TA.AperFunction,Conductor*%
%TO.N,D0*%
G36*
X71157130Y-22108922D02*
G01*
X71159276Y-22111068D01*
X72144149Y-23392389D01*
X72146474Y-23401037D01*
X72143678Y-23407223D01*
X71278496Y-24396004D01*
X71270469Y-24399974D01*
X71269691Y-24400000D01*
X71030309Y-24400000D01*
X71022036Y-24396573D01*
X71021504Y-24396005D01*
X71021503Y-24396004D01*
X70156321Y-23407224D01*
X70153452Y-23398741D01*
X70155850Y-23392389D01*
X71140724Y-22111068D01*
X71148482Y-22106597D01*
X71157130Y-22108922D01*
G37*
%TD.AperFunction*%
%TD*%
%TA.AperFunction,Conductor*%
%TO.N,D3*%
G36*
X43163354Y-45975324D02*
G01*
X43170787Y-45980318D01*
X43172513Y-45989105D01*
X43172001Y-45990895D01*
X42912344Y-46684715D01*
X42906235Y-46691262D01*
X42901386Y-46692314D01*
X42667614Y-46692314D01*
X42659341Y-46688887D01*
X42656656Y-46684715D01*
X42396998Y-45990895D01*
X42397308Y-45981945D01*
X42403855Y-45975836D01*
X42405638Y-45975325D01*
X42782192Y-45899465D01*
X42786808Y-45899465D01*
X43163354Y-45975324D01*
G37*
%TD.AperFunction*%
%TD*%
%TA.AperFunction,Conductor*%
%TO.N,D3*%
G36*
X42909659Y-57611113D02*
G01*
X42912344Y-57615285D01*
X43172001Y-58309104D01*
X43171691Y-58318054D01*
X43165144Y-58324163D01*
X43163354Y-58324675D01*
X42786811Y-58400534D01*
X42782189Y-58400534D01*
X42405645Y-58324675D01*
X42398212Y-58319681D01*
X42396486Y-58310894D01*
X42396995Y-58309112D01*
X42656656Y-57615284D01*
X42662765Y-57608738D01*
X42667614Y-57607686D01*
X42901386Y-57607686D01*
X42909659Y-57611113D01*
G37*
%TD.AperFunction*%
%TD*%
%TA.AperFunction,Conductor*%
%TO.N,D2*%
G36*
X24179854Y-47775324D02*
G01*
X24187287Y-47780318D01*
X24189013Y-47789105D01*
X24188501Y-47790895D01*
X23928844Y-48484715D01*
X23922735Y-48491262D01*
X23917886Y-48492314D01*
X23684114Y-48492314D01*
X23675841Y-48488887D01*
X23673156Y-48484715D01*
X23413498Y-47790895D01*
X23413808Y-47781945D01*
X23420355Y-47775836D01*
X23422138Y-47775325D01*
X23798692Y-47699465D01*
X23803308Y-47699465D01*
X24179854Y-47775324D01*
G37*
%TD.AperFunction*%
%TD*%
%TA.AperFunction,Conductor*%
%TO.N,D4*%
G36*
X63228079Y-58697933D02*
G01*
X63228983Y-58699560D01*
X63535982Y-59373771D01*
X63536292Y-59382721D01*
X63533607Y-59386893D01*
X63368305Y-59552195D01*
X63360032Y-59555622D01*
X63355183Y-59554570D01*
X62680972Y-59247571D01*
X62674863Y-59241024D01*
X62675173Y-59232074D01*
X62676071Y-59230457D01*
X62888694Y-58910549D01*
X62891962Y-58907282D01*
X63211861Y-58694664D01*
X63220646Y-58692939D01*
X63228079Y-58697933D01*
G37*
%TD.AperFunction*%
%TD*%
%TA.AperFunction,Conductor*%
%TO.N,D4*%
G36*
X82935520Y-81554722D02*
G01*
X83609733Y-81861722D01*
X83615842Y-81868269D01*
X83615532Y-81877219D01*
X83614628Y-81878846D01*
X83402011Y-82198743D01*
X83398743Y-82202011D01*
X83078846Y-82414628D01*
X83070059Y-82416354D01*
X83062626Y-82411360D01*
X83061722Y-82409733D01*
X82754723Y-81735522D01*
X82754413Y-81726572D01*
X82757096Y-81722402D01*
X82922401Y-81557097D01*
X82930673Y-81553671D01*
X82935520Y-81554722D01*
G37*
%TD.AperFunction*%
%TD*%
%TA.AperFunction,Conductor*%
%TO.N,B+*%
G36*
X130099768Y-81123588D02*
G01*
X130104191Y-81128370D01*
X130720706Y-82359430D01*
X130721347Y-82368362D01*
X130715484Y-82375130D01*
X130715376Y-82375184D01*
X130110065Y-82670569D01*
X130101127Y-82671117D01*
X130094653Y-82665639D01*
X129476419Y-81527612D01*
X129475000Y-81522027D01*
X129475000Y-81284152D01*
X129478427Y-81275879D01*
X129483881Y-81272797D01*
X130090914Y-81122253D01*
X130099768Y-81123588D01*
G37*
%TD.AperFunction*%
%TD*%
%TA.AperFunction,Conductor*%
%TO.N,B+*%
G36*
X129540892Y-81012496D02*
G01*
X130234717Y-81272156D01*
X130241264Y-81278265D01*
X130242316Y-81283114D01*
X130242316Y-81516885D01*
X130238889Y-81525158D01*
X130234717Y-81527843D01*
X129540897Y-81787501D01*
X129531947Y-81787191D01*
X129525838Y-81780644D01*
X129525326Y-81778854D01*
X129474216Y-81525158D01*
X129449467Y-81402308D01*
X129449467Y-81397691D01*
X129525326Y-81021143D01*
X129530320Y-81013712D01*
X129539107Y-81011986D01*
X129540892Y-81012496D01*
G37*
%TD.AperFunction*%
%TD*%
%TA.AperFunction,Conductor*%
%TO.N,B+*%
G36*
X130541505Y-70059764D02*
G01*
X131494764Y-70168591D01*
X131502595Y-70172934D01*
X131505061Y-70181542D01*
X131504962Y-70182233D01*
X131447200Y-70512178D01*
X131442398Y-70519736D01*
X131437113Y-70521771D01*
X130701099Y-70612946D01*
X130692468Y-70610562D01*
X130690917Y-70609109D01*
X130366455Y-70244146D01*
X130363519Y-70235686D01*
X130366925Y-70228100D01*
X130531910Y-70063115D01*
X130540182Y-70059689D01*
X130541505Y-70059764D01*
G37*
%TD.AperFunction*%
%TD*%
%TA.AperFunction,Conductor*%
%TO.N,B+*%
G36*
X130137373Y-69288639D02*
G01*
X130138277Y-69290266D01*
X130445276Y-69964477D01*
X130445586Y-69973427D01*
X130442901Y-69977599D01*
X130277599Y-70142901D01*
X130269326Y-70146328D01*
X130264477Y-70145276D01*
X129590266Y-69838277D01*
X129584157Y-69831730D01*
X129584467Y-69822780D01*
X129585365Y-69821163D01*
X129797988Y-69501255D01*
X129801256Y-69497988D01*
X130121155Y-69285370D01*
X130129940Y-69283645D01*
X130137373Y-69288639D01*
G37*
%TD.AperFunction*%
%TD*%
%TA.AperFunction,Conductor*%
%TO.N,B+*%
G36*
X130708979Y-70176515D02*
G01*
X131423244Y-70509395D01*
X131429296Y-70515996D01*
X131428907Y-70524942D01*
X131423244Y-70530605D01*
X130708979Y-70863484D01*
X130700033Y-70863873D01*
X130693432Y-70857821D01*
X130692495Y-70854790D01*
X130658100Y-70645935D01*
X130657946Y-70644046D01*
X130657946Y-70395953D01*
X130658099Y-70394065D01*
X130692494Y-70185215D01*
X130697218Y-70177612D01*
X130705938Y-70175575D01*
X130708979Y-70176515D01*
G37*
%TD.AperFunction*%
%TD*%
%TA.AperFunction,Conductor*%
%TO.N,B+*%
G36*
X130178854Y-69575324D02*
G01*
X130186287Y-69580318D01*
X130188013Y-69589105D01*
X130187501Y-69590895D01*
X129927844Y-70284715D01*
X129921735Y-70291262D01*
X129916886Y-70292314D01*
X129683114Y-70292314D01*
X129674841Y-70288887D01*
X129672156Y-70284715D01*
X129412498Y-69590895D01*
X129412808Y-69581945D01*
X129419355Y-69575836D01*
X129421138Y-69575325D01*
X129797692Y-69499465D01*
X129802308Y-69499465D01*
X130178854Y-69575324D01*
G37*
%TD.AperFunction*%
%TD*%
%TA.AperFunction,Conductor*%
%TO.N,B+*%
G36*
X130852650Y-80498427D02*
G01*
X130853513Y-80499391D01*
X131345325Y-81114156D01*
X131347817Y-81122757D01*
X131346655Y-81126694D01*
X130735466Y-82350051D01*
X130728703Y-82355920D01*
X130719771Y-82355288D01*
X130714534Y-82350051D01*
X130103344Y-81126694D01*
X130102712Y-81117762D01*
X130104671Y-81114160D01*
X130596487Y-80499390D01*
X130604331Y-80495072D01*
X130605623Y-80495000D01*
X130844377Y-80495000D01*
X130852650Y-80498427D01*
G37*
%TD.AperFunction*%
%TD*%
%TA.AperFunction,Conductor*%
%TO.N,GND*%
G36*
X132687373Y-41838639D02*
G01*
X132688277Y-41840266D01*
X132995276Y-42514477D01*
X132995586Y-42523427D01*
X132992901Y-42527599D01*
X132827599Y-42692901D01*
X132819326Y-42696328D01*
X132814477Y-42695276D01*
X132140266Y-42388277D01*
X132134157Y-42381730D01*
X132134467Y-42372780D01*
X132135365Y-42371163D01*
X132347988Y-42051255D01*
X132351256Y-42047988D01*
X132671155Y-41835370D01*
X132679940Y-41833645D01*
X132687373Y-41838639D01*
G37*
%TD.AperFunction*%
%TD*%
%TA.AperFunction,Conductor*%
%TO.N,GND*%
G36*
X127599658Y-81123638D02*
G01*
X127604270Y-81128535D01*
X128220078Y-82359455D01*
X128220714Y-82368387D01*
X128214849Y-82375154D01*
X128214077Y-82375505D01*
X127610670Y-82624481D01*
X127601715Y-82624469D01*
X127595453Y-82618275D01*
X127491258Y-82375154D01*
X127072790Y-81398727D01*
X127072681Y-81389773D01*
X127075269Y-81385847D01*
X127244231Y-81216885D01*
X127249472Y-81213859D01*
X127590782Y-81122468D01*
X127599658Y-81123638D01*
G37*
%TD.AperFunction*%
%TD*%
%TA.AperFunction,Conductor*%
%TO.N,GND*%
G36*
X129787373Y-83788639D02*
G01*
X129788277Y-83790266D01*
X130095276Y-84464477D01*
X130095586Y-84473427D01*
X130092901Y-84477599D01*
X129927599Y-84642901D01*
X129919326Y-84646328D01*
X129914477Y-84645276D01*
X129240266Y-84338277D01*
X129234157Y-84331730D01*
X129234467Y-84322780D01*
X129235365Y-84321163D01*
X129447988Y-84001255D01*
X129451256Y-83997988D01*
X129771155Y-83785370D01*
X129779940Y-83783645D01*
X129787373Y-83788639D01*
G37*
%TD.AperFunction*%
%TD*%
%TA.AperFunction,Conductor*%
%TO.N,GND*%
G36*
X121908024Y-62147771D02*
G01*
X121915474Y-62152740D01*
X121917228Y-62156975D01*
X122108094Y-63120707D01*
X122106340Y-63129488D01*
X122100355Y-63134067D01*
X120609639Y-63636695D01*
X120600705Y-63636091D01*
X120597628Y-63633881D01*
X120431118Y-63467371D01*
X120427691Y-63459098D01*
X120428304Y-63455360D01*
X120541140Y-63120707D01*
X120930933Y-61964642D01*
X120936823Y-61957899D01*
X120944289Y-61956905D01*
X121908024Y-62147771D01*
G37*
%TD.AperFunction*%
%TD*%
%TA.AperFunction,Conductor*%
%TO.N,GND*%
G36*
X124275651Y-42658260D02*
G01*
X124590289Y-42867865D01*
X124596944Y-42872298D01*
X124601929Y-42879737D01*
X124601938Y-42879781D01*
X124675320Y-43253484D01*
X124673551Y-43262262D01*
X124666093Y-43267219D01*
X124663942Y-43267438D01*
X123930659Y-43273896D01*
X123922356Y-43270542D01*
X123918856Y-43262299D01*
X123918856Y-43028632D01*
X123922025Y-43020624D01*
X124260636Y-42659988D01*
X124268797Y-42656304D01*
X124275651Y-42658260D01*
G37*
%TD.AperFunction*%
%TD*%
%TA.AperFunction,Conductor*%
%TO.N,GND*%
G36*
X129368054Y-83612808D02*
G01*
X129374163Y-83619355D01*
X129374675Y-83621145D01*
X129450534Y-83997689D01*
X129450534Y-84002311D01*
X129374675Y-84378854D01*
X129369681Y-84386287D01*
X129360894Y-84388013D01*
X129359104Y-84387501D01*
X128665285Y-84127843D01*
X128658738Y-84121734D01*
X128657686Y-84116885D01*
X128657686Y-83883114D01*
X128661113Y-83874841D01*
X128665285Y-83872156D01*
X129359105Y-83612498D01*
X129368054Y-83612808D01*
G37*
%TD.AperFunction*%
%TD*%
%TA.AperFunction,Conductor*%
%TO.N,GND*%
G36*
X128229641Y-82385817D02*
G01*
X128235270Y-82391236D01*
X128845261Y-83610528D01*
X128845897Y-83619460D01*
X128841046Y-83625655D01*
X128388382Y-83911616D01*
X128219215Y-84080784D01*
X128210942Y-84084211D01*
X128203395Y-84081452D01*
X127663451Y-83625711D01*
X127659340Y-83617756D01*
X127660343Y-83611939D01*
X128214153Y-82391634D01*
X128220691Y-82385518D01*
X128229641Y-82385817D01*
G37*
%TD.AperFunction*%
%TD*%
%TA.AperFunction,Conductor*%
%TO.N,GND*%
G36*
X114760815Y-40545633D02*
G01*
X116023754Y-41412804D01*
X116028634Y-41420311D01*
X116026776Y-41429071D01*
X116025404Y-41430721D01*
X115860268Y-41595857D01*
X115856366Y-41598437D01*
X114436892Y-42170180D01*
X114427938Y-42170092D01*
X114425300Y-42168533D01*
X113318680Y-41300546D01*
X113314286Y-41292744D01*
X113316695Y-41284119D01*
X113320539Y-41280940D01*
X114748838Y-40544879D01*
X114757759Y-40544136D01*
X114760815Y-40545633D01*
G37*
%TD.AperFunction*%
%TD*%
%TA.AperFunction,Conductor*%
%TO.N,pos*%
G36*
X130943487Y-66838021D02*
G01*
X131276862Y-67009213D01*
X131569951Y-67159718D01*
X131580407Y-67165087D01*
X131586201Y-67171915D01*
X131585882Y-67179946D01*
X131450371Y-67509368D01*
X131444055Y-67515715D01*
X131435100Y-67515737D01*
X131434599Y-67515517D01*
X130705044Y-67174692D01*
X130698999Y-67168086D01*
X130699144Y-67159718D01*
X130758235Y-67013108D01*
X130760810Y-67009215D01*
X130929870Y-66840155D01*
X130938142Y-66836729D01*
X130943487Y-66838021D01*
G37*
%TD.AperFunction*%
%TD*%
%TA.AperFunction,Conductor*%
%TO.N,pos*%
G36*
X125450540Y-44981114D02*
G01*
X126447086Y-45364388D01*
X126453578Y-45370556D01*
X126454364Y-45377574D01*
X126408459Y-45610066D01*
X126403495Y-45617519D01*
X126396981Y-45619500D01*
X125526099Y-45619500D01*
X125517826Y-45616073D01*
X125514643Y-45610179D01*
X125434885Y-45226174D01*
X125434641Y-45223795D01*
X125434641Y-44992035D01*
X125438068Y-44983762D01*
X125446341Y-44980335D01*
X125450540Y-44981114D01*
G37*
%TD.AperFunction*%
%TD*%
%TA.AperFunction,Conductor*%
%TO.N,D0*%
G36*
X53268038Y-29997509D02*
G01*
X53271465Y-30005782D01*
X53271069Y-30008797D01*
X53158925Y-30428651D01*
X53095137Y-30667466D01*
X53089691Y-30674575D01*
X53081579Y-30675928D01*
X52704781Y-30601938D01*
X52697323Y-30596981D01*
X52697298Y-30596944D01*
X52695124Y-30593680D01*
X52485119Y-30278441D01*
X52483385Y-30269658D01*
X52488370Y-30262219D01*
X52489620Y-30261493D01*
X53022531Y-29995314D01*
X53027759Y-29994082D01*
X53259765Y-29994082D01*
X53268038Y-29997509D01*
G37*
%TD.AperFunction*%
%TD*%
%TA.AperFunction,Conductor*%
%TO.N,D0*%
G36*
X106527599Y-34907098D02*
G01*
X106692901Y-35072400D01*
X106696328Y-35080673D01*
X106695276Y-35085522D01*
X106388277Y-35759733D01*
X106381730Y-35765842D01*
X106372780Y-35765532D01*
X106371153Y-35764628D01*
X106051256Y-35552011D01*
X106047988Y-35548743D01*
X105835371Y-35228846D01*
X105833645Y-35220059D01*
X105838639Y-35212626D01*
X105840256Y-35211727D01*
X106514478Y-34904722D01*
X106523427Y-34904413D01*
X106527599Y-34907098D01*
G37*
%TD.AperFunction*%
%TD*%
%TA.AperFunction,Conductor*%
%TO.N,D0*%
G36*
X129000153Y-38004362D02*
G01*
X130425796Y-38739601D01*
X130431578Y-38746439D01*
X130430832Y-38755363D01*
X130425796Y-38760399D01*
X129000153Y-39495637D01*
X128991229Y-39496383D01*
X128989676Y-39495761D01*
X127718839Y-38878200D01*
X127712896Y-38871502D01*
X127712253Y-38867677D01*
X127712253Y-38632322D01*
X127715680Y-38624049D01*
X127718836Y-38621800D01*
X128989677Y-38004237D01*
X128998615Y-38003704D01*
X129000153Y-38004362D01*
G37*
%TD.AperFunction*%
%TD*%
%TA.AperFunction,Conductor*%
%TO.N,D0*%
G36*
X116790890Y-38362496D02*
G01*
X117484715Y-38622156D01*
X117491262Y-38628265D01*
X117492314Y-38633114D01*
X117492314Y-38866885D01*
X117488887Y-38875158D01*
X117484715Y-38877843D01*
X116790895Y-39137501D01*
X116781945Y-39137191D01*
X116775836Y-39130644D01*
X116775324Y-39128854D01*
X116724214Y-38875158D01*
X116699465Y-38752308D01*
X116699465Y-38747691D01*
X116775324Y-38371143D01*
X116780318Y-38363712D01*
X116789105Y-38361986D01*
X116790890Y-38362496D01*
G37*
%TD.AperFunction*%
%TD*%
%TA.AperFunction,Conductor*%
%TO.N,D0*%
G36*
X35157130Y-34348922D02*
G01*
X35159276Y-34351068D01*
X36144149Y-35632389D01*
X36146474Y-35641037D01*
X36143678Y-35647223D01*
X35278496Y-36636004D01*
X35270469Y-36639974D01*
X35269691Y-36640000D01*
X35030309Y-36640000D01*
X35022036Y-36636573D01*
X35021504Y-36636005D01*
X35021503Y-36636004D01*
X34156321Y-35647224D01*
X34153452Y-35638741D01*
X34155850Y-35632389D01*
X35140724Y-34351068D01*
X35148482Y-34346597D01*
X35157130Y-34348922D01*
G37*
%TD.AperFunction*%
%TD*%
%TA.AperFunction,Conductor*%
%TO.N,D0*%
G36*
X35274024Y-37070211D02*
G01*
X35277135Y-37075783D01*
X35408102Y-37627772D01*
X35439519Y-37760183D01*
X35438095Y-37769024D01*
X35430836Y-37774268D01*
X35430446Y-37774354D01*
X35054781Y-37850036D01*
X35045994Y-37848310D01*
X35045950Y-37848281D01*
X34726293Y-37633733D01*
X34721333Y-37626277D01*
X34722554Y-37618393D01*
X35021669Y-37072859D01*
X35028651Y-37067252D01*
X35031928Y-37066784D01*
X35265751Y-37066784D01*
X35274024Y-37070211D01*
G37*
%TD.AperFunction*%
%TD*%
%TA.AperFunction,Conductor*%
%TO.N,D0*%
G36*
X53157130Y-27148922D02*
G01*
X53159276Y-27151068D01*
X54144149Y-28432389D01*
X54146474Y-28441037D01*
X54143678Y-28447223D01*
X53278496Y-29436004D01*
X53270469Y-29439974D01*
X53269691Y-29440000D01*
X53030309Y-29440000D01*
X53022036Y-29436573D01*
X53021504Y-29436005D01*
X53021503Y-29436004D01*
X52156321Y-28447224D01*
X52153452Y-28438741D01*
X52155850Y-28432389D01*
X53140724Y-27151068D01*
X53148482Y-27146597D01*
X53157130Y-27148922D01*
G37*
%TD.AperFunction*%
%TD*%
%TA.AperFunction,Conductor*%
%TO.N,D0*%
G36*
X107157130Y-30028922D02*
G01*
X107159276Y-30031068D01*
X108144149Y-31312389D01*
X108146474Y-31321037D01*
X108143678Y-31327223D01*
X107278496Y-32316004D01*
X107270469Y-32319974D01*
X107269691Y-32320000D01*
X107030309Y-32320000D01*
X107022036Y-32316573D01*
X107021504Y-32316005D01*
X107021503Y-32316004D01*
X106156321Y-31327224D01*
X106153452Y-31318741D01*
X106155850Y-31312389D01*
X107140724Y-30031068D01*
X107148482Y-30026597D01*
X107157130Y-30028922D01*
G37*
%TD.AperFunction*%
%TD*%
%TA.AperFunction,Conductor*%
%TO.N,D1*%
G36*
X53270163Y-47556088D02*
G01*
X53273590Y-47564361D01*
X53273515Y-47565686D01*
X53193750Y-48265436D01*
X53189408Y-48273268D01*
X53180800Y-48275736D01*
X53179871Y-48275592D01*
X52804781Y-48201938D01*
X52797323Y-48196981D01*
X52797298Y-48196944D01*
X52584095Y-47876903D01*
X52582360Y-47868118D01*
X52587097Y-47860848D01*
X53021971Y-47554793D01*
X53028705Y-47552661D01*
X53261890Y-47552661D01*
X53270163Y-47556088D01*
G37*
%TD.AperFunction*%
%TD*%
%TA.AperFunction,Conductor*%
%TO.N,D1*%
G36*
X53157130Y-45148922D02*
G01*
X53159276Y-45151068D01*
X54144149Y-46432389D01*
X54146474Y-46441037D01*
X54143678Y-46447223D01*
X53278496Y-47436004D01*
X53270469Y-47439974D01*
X53269691Y-47440000D01*
X53030309Y-47440000D01*
X53022036Y-47436573D01*
X53021504Y-47436005D01*
X53021503Y-47436004D01*
X52156321Y-46447224D01*
X52153452Y-46438741D01*
X52155850Y-46432389D01*
X53140724Y-45151068D01*
X53148482Y-45146597D01*
X53157130Y-45148922D01*
G37*
%TD.AperFunction*%
%TD*%
%TA.AperFunction,Conductor*%
%TO.N,D1*%
G36*
X71140921Y-40098439D02*
G01*
X71148865Y-40102572D01*
X71151560Y-40109078D01*
X71263452Y-41391277D01*
X71260757Y-41399817D01*
X71256059Y-41403190D01*
X69238406Y-42192706D01*
X69229453Y-42192529D01*
X69225870Y-42190083D01*
X69059916Y-42024129D01*
X69056489Y-42015856D01*
X69057293Y-42011593D01*
X69296612Y-41400000D01*
X69846809Y-39993939D01*
X69853015Y-39987484D01*
X69858721Y-39986547D01*
X71140921Y-40098439D01*
G37*
%TD.AperFunction*%
%TD*%
%TA.AperFunction,Conductor*%
%TO.N,D1*%
G36*
X67390033Y-42310884D02*
G01*
X68083628Y-42495784D01*
X68090739Y-42501226D01*
X68092314Y-42507089D01*
X68092314Y-42740862D01*
X68088887Y-42749135D01*
X68085838Y-42751331D01*
X67531433Y-43027994D01*
X67522500Y-43028622D01*
X67516494Y-43024045D01*
X67301718Y-42704049D01*
X67299953Y-42695270D01*
X67299963Y-42695218D01*
X67340142Y-42495784D01*
X67375578Y-42319884D01*
X67380572Y-42312452D01*
X67389359Y-42310726D01*
X67390033Y-42310884D01*
G37*
%TD.AperFunction*%
%TD*%
%TA.AperFunction,Conductor*%
%TO.N,D1*%
G36*
X35157130Y-52348922D02*
G01*
X35159276Y-52351068D01*
X36144149Y-53632389D01*
X36146474Y-53641037D01*
X36143678Y-53647223D01*
X35278496Y-54636004D01*
X35270469Y-54639974D01*
X35269691Y-54640000D01*
X35030309Y-54640000D01*
X35022036Y-54636573D01*
X35021504Y-54636005D01*
X35021503Y-54636004D01*
X34156321Y-53647224D01*
X34153452Y-53638741D01*
X34155850Y-53632389D01*
X35140724Y-52351068D01*
X35148482Y-52346597D01*
X35157130Y-52348922D01*
G37*
%TD.AperFunction*%
%TD*%
%TA.AperFunction,Conductor*%
%TO.N,D1*%
G36*
X35268038Y-55097509D02*
G01*
X35271465Y-55105782D01*
X35271069Y-55108797D01*
X35158925Y-55528651D01*
X35095137Y-55767466D01*
X35089691Y-55774575D01*
X35081579Y-55775928D01*
X34704781Y-55701938D01*
X34697323Y-55696981D01*
X34697298Y-55696944D01*
X34695124Y-55693680D01*
X34485119Y-55378441D01*
X34483385Y-55369658D01*
X34488370Y-55362219D01*
X34489620Y-55361493D01*
X35022531Y-55095314D01*
X35027759Y-55094082D01*
X35259765Y-55094082D01*
X35268038Y-55097509D01*
G37*
%TD.AperFunction*%
%TD*%
%TA.AperFunction,Conductor*%
%TO.N,D2*%
G36*
X128984425Y-43101992D02*
G01*
X130429380Y-43821741D01*
X130435257Y-43828497D01*
X130434636Y-43837431D01*
X130431379Y-43841424D01*
X129324062Y-44709037D01*
X129315436Y-44711442D01*
X129313655Y-44711084D01*
X127780168Y-44276411D01*
X127773143Y-44270857D01*
X127771659Y-44265154D01*
X127771659Y-44029770D01*
X127775086Y-44021497D01*
X127776232Y-44020491D01*
X128972090Y-43103182D01*
X128980738Y-43100866D01*
X128984425Y-43101992D01*
G37*
%TD.AperFunction*%
%TD*%
%TA.AperFunction,Conductor*%
%TO.N,D2*%
G36*
X23607659Y-32148525D02*
G01*
X23609925Y-32150555D01*
X24711168Y-33432681D01*
X24713958Y-33441189D01*
X24711466Y-33447565D01*
X23929513Y-34435561D01*
X23921692Y-34439922D01*
X23920339Y-34440000D01*
X23680965Y-34440000D01*
X23672692Y-34436573D01*
X23672551Y-34436430D01*
X23628786Y-34391132D01*
X23625500Y-34383002D01*
X23625500Y-34225266D01*
X23595548Y-33997763D01*
X23536158Y-33776114D01*
X23536154Y-33776103D01*
X23448347Y-33564120D01*
X23448344Y-33564112D01*
X23333611Y-33365388D01*
X23193919Y-33183339D01*
X23031661Y-33021081D01*
X23017373Y-33010117D01*
X23012896Y-33002362D01*
X23014838Y-32994232D01*
X23591397Y-32151573D01*
X23598896Y-32146681D01*
X23607659Y-32148525D01*
G37*
%TD.AperFunction*%
%TD*%
%TA.AperFunction,Conductor*%
%TO.N,D2*%
G36*
X23829283Y-35887057D02*
G01*
X23832710Y-35895330D01*
X23829283Y-35903603D01*
X23823586Y-35906743D01*
X23586061Y-35960347D01*
X23577236Y-35958825D01*
X23572072Y-35951510D01*
X23573594Y-35942685D01*
X23577757Y-35938733D01*
X23673335Y-35885124D01*
X23679057Y-35883630D01*
X23821010Y-35883630D01*
X23829283Y-35887057D01*
G37*
%TD.AperFunction*%
%TD*%
%TA.AperFunction,Conductor*%
%TO.N,D2*%
G36*
X23926159Y-46911113D02*
G01*
X23928844Y-46915285D01*
X24188501Y-47609104D01*
X24188191Y-47618054D01*
X24181644Y-47624163D01*
X24179854Y-47624675D01*
X23803311Y-47700534D01*
X23798689Y-47700534D01*
X23422145Y-47624675D01*
X23414712Y-47619681D01*
X23412986Y-47610894D01*
X23413495Y-47609112D01*
X23673156Y-46915284D01*
X23679265Y-46908738D01*
X23684114Y-46907686D01*
X23917886Y-46907686D01*
X23926159Y-46911113D01*
G37*
%TD.AperFunction*%
%TD*%
%TA.AperFunction,Conductor*%
%TO.N,D2*%
G36*
X116739271Y-43616264D02*
G01*
X117057674Y-44020816D01*
X117060180Y-44028051D01*
X117060180Y-44261452D01*
X117056753Y-44269725D01*
X117048480Y-44273152D01*
X117047663Y-44273123D01*
X116335180Y-44223239D01*
X116327166Y-44219243D01*
X116324326Y-44210751D01*
X116324514Y-44209325D01*
X116398061Y-43834780D01*
X116403018Y-43827323D01*
X116723593Y-43613763D01*
X116732377Y-43612029D01*
X116739271Y-43616264D01*
G37*
%TD.AperFunction*%
%TD*%
%TA.AperFunction,Conductor*%
%TO.N,D3*%
G36*
X42906016Y-58643427D02*
G01*
X42909443Y-58651700D01*
X42909443Y-58651757D01*
X42900043Y-60591516D01*
X42896576Y-60599772D01*
X42891307Y-60602777D01*
X41610443Y-60938264D01*
X41601572Y-60937045D01*
X41596435Y-60930809D01*
X41148013Y-59648603D01*
X41148517Y-59639663D01*
X41152608Y-59634979D01*
X42656568Y-58641936D01*
X42663015Y-58640000D01*
X42897743Y-58640000D01*
X42906016Y-58643427D01*
G37*
%TD.AperFunction*%
%TD*%
%TA.AperFunction,Conductor*%
%TO.N,D3*%
G36*
X43163354Y-58475324D02*
G01*
X43170787Y-58480318D01*
X43172513Y-58489105D01*
X43172001Y-58490895D01*
X42912344Y-59184715D01*
X42906235Y-59191262D01*
X42901386Y-59192314D01*
X42667614Y-59192314D01*
X42659341Y-59188887D01*
X42656656Y-59184715D01*
X42396998Y-58490895D01*
X42397308Y-58481945D01*
X42403855Y-58475836D01*
X42405638Y-58475325D01*
X42782192Y-58399465D01*
X42786808Y-58399465D01*
X43163354Y-58475324D01*
G37*
%TD.AperFunction*%
%TD*%
%TA.AperFunction,Conductor*%
%TO.N,D3*%
G36*
X42909659Y-45111113D02*
G01*
X42912344Y-45115285D01*
X43172001Y-45809104D01*
X43171691Y-45818054D01*
X43165144Y-45824163D01*
X43163354Y-45824675D01*
X42786811Y-45900534D01*
X42782189Y-45900534D01*
X42405645Y-45824675D01*
X42398212Y-45819681D01*
X42396486Y-45810894D01*
X42396995Y-45809112D01*
X42656656Y-45115284D01*
X42662765Y-45108738D01*
X42667614Y-45107686D01*
X42901386Y-45107686D01*
X42909659Y-45111113D01*
G37*
%TD.AperFunction*%
%TD*%
%TA.AperFunction,Conductor*%
%TO.N,D4*%
G36*
X60008884Y-35603427D02*
G01*
X60009925Y-35604620D01*
X60760713Y-36592304D01*
X60762992Y-36600964D01*
X60760110Y-36607195D01*
X59610181Y-37889644D01*
X59602106Y-37893516D01*
X59593659Y-37890544D01*
X59591669Y-37888224D01*
X58756858Y-36607969D01*
X58755211Y-36599169D01*
X58758404Y-36593288D01*
X59752990Y-35603407D01*
X59761244Y-35600000D01*
X60000611Y-35600000D01*
X60008884Y-35603427D01*
G37*
%TD.AperFunction*%
%TD*%
%TA.AperFunction,Conductor*%
%TO.N,D4*%
G36*
X60260267Y-23275324D02*
G01*
X60267700Y-23280318D01*
X60269426Y-23289105D01*
X60268914Y-23290895D01*
X60009257Y-23984715D01*
X60003148Y-23991262D01*
X59998299Y-23992314D01*
X59764527Y-23992314D01*
X59756254Y-23988887D01*
X59753569Y-23984715D01*
X59493911Y-23290895D01*
X59494221Y-23281945D01*
X59500768Y-23275836D01*
X59502551Y-23275325D01*
X59879105Y-23199465D01*
X59883721Y-23199465D01*
X60260267Y-23275324D01*
G37*
%TD.AperFunction*%
%TD*%
%TA.AperFunction,Conductor*%
%TO.N,D4*%
G36*
X60525165Y-53603427D02*
G01*
X60527847Y-53607592D01*
X60897355Y-54592949D01*
X60897051Y-54601899D01*
X60894676Y-54605327D01*
X59611817Y-55889173D01*
X59603545Y-55892603D01*
X59595271Y-55889179D01*
X59592938Y-55885849D01*
X58997543Y-54608438D01*
X58997154Y-54599491D01*
X59000948Y-54594272D01*
X60271827Y-53602475D01*
X60279025Y-53600000D01*
X60516892Y-53600000D01*
X60525165Y-53603427D01*
G37*
%TD.AperFunction*%
%TD*%
%TA.AperFunction,Conductor*%
%TO.N,D4*%
G36*
X60778854Y-41775324D02*
G01*
X60786287Y-41780318D01*
X60788013Y-41789105D01*
X60787501Y-41790895D01*
X60527844Y-42484715D01*
X60521735Y-42491262D01*
X60516886Y-42492314D01*
X60283114Y-42492314D01*
X60274841Y-42488887D01*
X60272156Y-42484715D01*
X60012498Y-41790895D01*
X60012808Y-41781945D01*
X60019355Y-41775836D01*
X60021138Y-41775325D01*
X60397692Y-41699465D01*
X60402308Y-41699465D01*
X60778854Y-41775324D01*
G37*
%TD.AperFunction*%
%TD*%
%TA.AperFunction,Conductor*%
%TO.N,D4*%
G36*
X60899767Y-55702362D02*
G01*
X60903588Y-55707153D01*
X61185552Y-56358793D01*
X61186115Y-56360411D01*
X61213841Y-56463885D01*
X61213845Y-56463896D01*
X61287366Y-56641389D01*
X61301656Y-56675888D01*
X61385554Y-56821204D01*
X61386154Y-56822398D01*
X61692336Y-57530008D01*
X61692476Y-57538961D01*
X61689871Y-57542927D01*
X61523479Y-57709320D01*
X61515206Y-57712747D01*
X61512210Y-57712357D01*
X59587059Y-57202344D01*
X59579939Y-57196913D01*
X59578357Y-57190844D01*
X59584330Y-56822398D01*
X59599133Y-55909162D01*
X59602693Y-55900947D01*
X59609047Y-55897789D01*
X60891068Y-55700235D01*
X60899767Y-55702362D01*
G37*
%TD.AperFunction*%
%TD*%
%TA.AperFunction,Conductor*%
%TO.N,D4*%
G36*
X62426226Y-58264016D02*
G01*
X63100439Y-58571016D01*
X63106548Y-58577563D01*
X63106238Y-58586513D01*
X63105334Y-58588140D01*
X62892717Y-58908037D01*
X62889449Y-58911305D01*
X62569552Y-59123922D01*
X62560765Y-59125648D01*
X62553332Y-59120654D01*
X62552428Y-59119027D01*
X62245429Y-58444816D01*
X62245119Y-58435866D01*
X62247802Y-58431696D01*
X62413107Y-58266391D01*
X62421379Y-58262965D01*
X62426226Y-58264016D01*
G37*
%TD.AperFunction*%
%TD*%
%TA.AperFunction,Conductor*%
%TO.N,D4*%
G36*
X59607861Y-19908365D02*
G01*
X59610181Y-19910355D01*
X60760110Y-21192804D01*
X60763082Y-21201251D01*
X60760713Y-21207695D01*
X60009925Y-22195380D01*
X60002191Y-22199893D01*
X60000611Y-22200000D01*
X59761244Y-22200000D01*
X59752990Y-22196593D01*
X59628946Y-22073135D01*
X59625500Y-22064870D01*
X59625500Y-21985266D01*
X59595548Y-21757763D01*
X59536158Y-21536114D01*
X59536154Y-21536103D01*
X59448347Y-21324120D01*
X59448344Y-21324112D01*
X59333611Y-21125388D01*
X59193919Y-20943339D01*
X59034235Y-20783655D01*
X59030808Y-20775382D01*
X59032705Y-20768994D01*
X59591670Y-19911773D01*
X59599059Y-19906717D01*
X59607861Y-19908365D01*
G37*
%TD.AperFunction*%
%TD*%
%TA.AperFunction,Conductor*%
%TO.N,D4*%
G36*
X60006572Y-22411113D02*
G01*
X60009257Y-22415285D01*
X60268914Y-23109104D01*
X60268604Y-23118054D01*
X60262057Y-23124163D01*
X60260267Y-23124675D01*
X59883724Y-23200534D01*
X59879102Y-23200534D01*
X59502558Y-23124675D01*
X59495125Y-23119681D01*
X59493399Y-23110894D01*
X59493908Y-23109112D01*
X59753569Y-22415284D01*
X59759678Y-22408738D01*
X59764527Y-22407686D01*
X59998299Y-22407686D01*
X60006572Y-22411113D01*
G37*
%TD.AperFunction*%
%TD*%
%TA.AperFunction,Conductor*%
%TO.N,D4*%
G36*
X59608484Y-37908491D02*
G01*
X59611817Y-37910826D01*
X60894676Y-39194672D01*
X60898100Y-39202946D01*
X60897355Y-39207050D01*
X60527847Y-40192408D01*
X60521734Y-40198951D01*
X60516892Y-40200000D01*
X60279025Y-40200000D01*
X60271827Y-40197524D01*
X59568818Y-39648894D01*
X59564718Y-39642702D01*
X59536158Y-39536113D01*
X59448344Y-39324112D01*
X59333611Y-39125388D01*
X59193919Y-38943339D01*
X59144680Y-38894100D01*
X59141253Y-38885827D01*
X59142348Y-38880884D01*
X59592938Y-37914150D01*
X59599537Y-37908102D01*
X59608484Y-37908491D01*
G37*
%TD.AperFunction*%
%TD*%
%TA.AperFunction,Conductor*%
%TO.N,D4*%
G36*
X60525159Y-40911113D02*
G01*
X60527844Y-40915285D01*
X60787501Y-41609104D01*
X60787191Y-41618054D01*
X60780644Y-41624163D01*
X60778854Y-41624675D01*
X60402311Y-41700534D01*
X60397689Y-41700534D01*
X60021145Y-41624675D01*
X60013712Y-41619681D01*
X60011986Y-41610894D01*
X60012495Y-41609112D01*
X60272156Y-40915284D01*
X60278265Y-40908738D01*
X60283114Y-40907686D01*
X60516886Y-40907686D01*
X60525159Y-40911113D01*
G37*
%TD.AperFunction*%
%TD*%
%TA.AperFunction,Conductor*%
%TO.N,D5*%
G36*
X77608148Y-25848127D02*
G01*
X77610545Y-25850054D01*
X78834472Y-27132989D01*
X78837703Y-27141340D01*
X78835518Y-27147877D01*
X78128501Y-28135112D01*
X78120898Y-28139843D01*
X78118989Y-28140000D01*
X77879635Y-28140000D01*
X77871622Y-28136825D01*
X77625567Y-27905534D01*
X77621981Y-27898538D01*
X77595548Y-27697762D01*
X77536158Y-27476113D01*
X77448344Y-27264112D01*
X77333611Y-27065388D01*
X77193919Y-26883339D01*
X77059010Y-26748430D01*
X77055583Y-26740157D01*
X77057275Y-26734098D01*
X77592078Y-25852065D01*
X77599297Y-25846768D01*
X77608148Y-25848127D01*
G37*
%TD.AperFunction*%
%TD*%
%TA.AperFunction,Conductor*%
%TO.N,D5*%
G36*
X78125159Y-28811113D02*
G01*
X78127844Y-28815285D01*
X78387501Y-29509104D01*
X78387191Y-29518054D01*
X78380644Y-29524163D01*
X78378854Y-29524675D01*
X78002311Y-29600534D01*
X77997689Y-29600534D01*
X77621145Y-29524675D01*
X77613712Y-29519681D01*
X77611986Y-29510894D01*
X77612495Y-29509112D01*
X77872156Y-28815284D01*
X77878265Y-28808738D01*
X77883114Y-28807686D01*
X78116886Y-28807686D01*
X78125159Y-28811113D01*
G37*
%TD.AperFunction*%
%TD*%
%TA.AperFunction,Conductor*%
%TO.N,D5*%
G36*
X108835520Y-88254722D02*
G01*
X109509733Y-88561722D01*
X109515842Y-88568269D01*
X109515532Y-88577219D01*
X109514628Y-88578846D01*
X109302011Y-88898743D01*
X109298743Y-88902011D01*
X108978846Y-89114628D01*
X108970059Y-89116354D01*
X108962626Y-89111360D01*
X108961722Y-89109733D01*
X108654723Y-88435522D01*
X108654413Y-88426572D01*
X108657096Y-88422402D01*
X108822401Y-88257097D01*
X108830673Y-88253671D01*
X108835520Y-88254722D01*
G37*
%TD.AperFunction*%
%TD*%
%TA.AperFunction,Conductor*%
%TO.N,D5*%
G36*
X78127262Y-41543427D02*
G01*
X78128501Y-41544888D01*
X78835518Y-42532122D01*
X78837549Y-42540843D01*
X78834472Y-42547010D01*
X77610548Y-43829943D01*
X77602357Y-43833564D01*
X77594006Y-43830333D01*
X77592077Y-43827933D01*
X76816078Y-42548101D01*
X76814719Y-42539250D01*
X76818070Y-42533510D01*
X77871622Y-41543175D01*
X77879635Y-41540000D01*
X78118989Y-41540000D01*
X78127262Y-41543427D01*
G37*
%TD.AperFunction*%
%TD*%
%TA.AperFunction,Conductor*%
%TO.N,D5*%
G36*
X78378854Y-29675324D02*
G01*
X78386287Y-29680318D01*
X78388013Y-29689105D01*
X78387501Y-29690895D01*
X78127844Y-30384715D01*
X78121735Y-30391262D01*
X78116886Y-30392314D01*
X77883114Y-30392314D01*
X77874841Y-30388887D01*
X77872156Y-30384715D01*
X77612498Y-29690895D01*
X77612808Y-29681945D01*
X77619355Y-29675836D01*
X77621138Y-29675325D01*
X77997692Y-29599465D01*
X78002308Y-29599465D01*
X78378854Y-29675324D01*
G37*
%TD.AperFunction*%
%TD*%
%TA.AperFunction,Conductor*%
%TO.N,D5*%
G36*
X78899735Y-61555020D02*
G01*
X78904005Y-61559847D01*
X79135928Y-62045931D01*
X79136968Y-62049442D01*
X79154451Y-62182236D01*
X79213841Y-62403885D01*
X79213845Y-62403896D01*
X79287366Y-62581389D01*
X79301656Y-62615888D01*
X79416389Y-62814612D01*
X79556081Y-62996661D01*
X79556086Y-62996666D01*
X79618660Y-63059240D01*
X79620947Y-63062475D01*
X79691934Y-63211254D01*
X79692403Y-63220196D01*
X79689647Y-63224565D01*
X79522836Y-63391376D01*
X79514563Y-63394803D01*
X79512949Y-63394691D01*
X77693520Y-63141314D01*
X77685799Y-63136779D01*
X77683460Y-63130489D01*
X77599945Y-61849306D01*
X77602826Y-61840831D01*
X77609090Y-61837124D01*
X78890919Y-61553461D01*
X78899735Y-61555020D01*
G37*
%TD.AperFunction*%
%TD*%
%TA.AperFunction,Conductor*%
%TO.N,D5*%
G36*
X80535520Y-64054722D02*
G01*
X81209733Y-64361722D01*
X81215842Y-64368269D01*
X81215532Y-64377219D01*
X81214628Y-64378846D01*
X81002011Y-64698743D01*
X80998743Y-64702011D01*
X80678846Y-64914628D01*
X80670059Y-64916354D01*
X80662626Y-64911360D01*
X80661722Y-64909733D01*
X80354723Y-64235522D01*
X80354413Y-64226572D01*
X80357096Y-64222402D01*
X80522401Y-64057097D01*
X80530673Y-64053671D01*
X80535520Y-64054722D01*
G37*
%TD.AperFunction*%
%TD*%
%TA.AperFunction,Conductor*%
%TO.N,D5*%
G36*
X107688868Y-85532088D02*
G01*
X107691811Y-85534924D01*
X108757318Y-87001207D01*
X108759409Y-87009914D01*
X108755973Y-87016509D01*
X108163919Y-87587185D01*
X107995239Y-87755865D01*
X107986966Y-87759292D01*
X107978896Y-87756062D01*
X107370171Y-87175978D01*
X107366643Y-87169037D01*
X107355304Y-87082910D01*
X107295914Y-86861261D01*
X107208100Y-86649260D01*
X107093367Y-86450536D01*
X107091624Y-86448265D01*
X107079703Y-86432728D01*
X107077385Y-86424079D01*
X107079268Y-86419091D01*
X107672633Y-85535278D01*
X107680089Y-85530322D01*
X107688868Y-85532088D01*
G37*
%TD.AperFunction*%
%TD*%
%TA.AperFunction,Conductor*%
%TO.N,D6*%
G36*
X53157130Y-63148922D02*
G01*
X53159276Y-63151068D01*
X54144149Y-64432389D01*
X54146474Y-64441037D01*
X54143678Y-64447223D01*
X53278496Y-65436004D01*
X53270469Y-65439974D01*
X53269691Y-65440000D01*
X53030309Y-65440000D01*
X53022036Y-65436573D01*
X53021504Y-65436005D01*
X53021503Y-65436004D01*
X52156321Y-64447224D01*
X52153452Y-64438741D01*
X52155850Y-64432389D01*
X53140724Y-63151068D01*
X53148482Y-63146597D01*
X53157130Y-63148922D01*
G37*
%TD.AperFunction*%
%TD*%
%TA.AperFunction,Conductor*%
%TO.N,D6*%
G36*
X35157130Y-70348922D02*
G01*
X35159276Y-70351068D01*
X36144149Y-71632389D01*
X36146474Y-71641037D01*
X36143678Y-71647223D01*
X35278496Y-72636004D01*
X35270469Y-72639974D01*
X35269691Y-72640000D01*
X35030309Y-72640000D01*
X35022036Y-72636573D01*
X35021504Y-72636005D01*
X35021503Y-72636004D01*
X34156321Y-71647224D01*
X34153452Y-71638741D01*
X34155850Y-71632389D01*
X35140724Y-70351068D01*
X35148482Y-70346597D01*
X35157130Y-70348922D01*
G37*
%TD.AperFunction*%
%TD*%
%TA.AperFunction,Conductor*%
%TO.N,D6*%
G36*
X66777599Y-60557098D02*
G01*
X66942901Y-60722400D01*
X66946328Y-60730673D01*
X66945276Y-60735522D01*
X66638277Y-61409733D01*
X66631730Y-61415842D01*
X66622780Y-61415532D01*
X66621153Y-61414628D01*
X66301256Y-61202011D01*
X66297988Y-61198743D01*
X66085371Y-60878846D01*
X66083645Y-60870059D01*
X66088639Y-60862626D01*
X66090256Y-60861727D01*
X66764478Y-60554722D01*
X66773427Y-60554413D01*
X66777599Y-60557098D01*
G37*
%TD.AperFunction*%
%TD*%
%TA.AperFunction,Conductor*%
%TO.N,D6*%
G36*
X41483161Y-68496461D02*
G01*
X42070562Y-68961487D01*
X42074922Y-68969308D01*
X42075000Y-68970659D01*
X42075000Y-69209340D01*
X42071573Y-69217613D01*
X42070562Y-69218513D01*
X41483161Y-69683538D01*
X41474548Y-69685987D01*
X41467633Y-69682645D01*
X41002727Y-69218513D01*
X40882292Y-69098278D01*
X40878859Y-69090010D01*
X40882278Y-69081735D01*
X41467634Y-68497353D01*
X41475909Y-68493934D01*
X41483161Y-68496461D01*
G37*
%TD.AperFunction*%
%TD*%
%TA.AperFunction,Conductor*%
%TO.N,D6*%
G36*
X89140921Y-64038439D02*
G01*
X89148865Y-64042572D01*
X89151560Y-64049078D01*
X89263452Y-65331277D01*
X89260757Y-65339817D01*
X89256059Y-65343190D01*
X87238406Y-66132706D01*
X87229453Y-66132529D01*
X87225870Y-66130083D01*
X87059916Y-65964129D01*
X87056489Y-65955856D01*
X87057293Y-65951593D01*
X87296612Y-65340000D01*
X87846809Y-63933939D01*
X87853015Y-63927484D01*
X87858721Y-63926547D01*
X89140921Y-64038439D01*
G37*
%TD.AperFunction*%
%TD*%
%TA.AperFunction,Conductor*%
%TO.N,D6*%
G36*
X71141243Y-58098737D02*
G01*
X71149008Y-58103197D01*
X71151430Y-58109828D01*
X71207573Y-59391159D01*
X71204511Y-59399574D01*
X71199558Y-59402779D01*
X69103961Y-60095914D01*
X69095030Y-60095259D01*
X69089179Y-60088480D01*
X69088587Y-60084806D01*
X69088587Y-59853236D01*
X69089411Y-59848922D01*
X69846645Y-57940050D01*
X69852881Y-57933624D01*
X69859019Y-57932762D01*
X71141243Y-58098737D01*
G37*
%TD.AperFunction*%
%TD*%
%TA.AperFunction,Conductor*%
%TO.N,D6*%
G36*
X102731883Y-68073646D02*
G01*
X103260010Y-68414643D01*
X103265102Y-68422009D01*
X103265364Y-68424472D01*
X103265364Y-68658325D01*
X103261937Y-68666598D01*
X103255745Y-68669838D01*
X102589322Y-68790274D01*
X102580571Y-68788374D01*
X102575771Y-68781072D01*
X102499963Y-68404781D01*
X102501689Y-68395994D01*
X102501718Y-68395950D01*
X102715823Y-68076953D01*
X102723278Y-68071995D01*
X102731883Y-68073646D01*
G37*
%TD.AperFunction*%
%TD*%
%TA.AperFunction,Conductor*%
%TO.N,D6*%
G36*
X107140921Y-66018439D02*
G01*
X107148865Y-66022572D01*
X107151560Y-66029078D01*
X107263452Y-67311277D01*
X107260757Y-67319817D01*
X107256059Y-67323190D01*
X105238406Y-68112706D01*
X105229453Y-68112529D01*
X105225870Y-68110083D01*
X105059916Y-67944129D01*
X105056489Y-67935856D01*
X105057293Y-67931593D01*
X105296612Y-67320000D01*
X105846809Y-65913939D01*
X105853015Y-65907484D01*
X105858721Y-65906547D01*
X107140921Y-66018439D01*
G37*
%TD.AperFunction*%
%TD*%
%TA.AperFunction,Conductor*%
%TO.N,D6*%
G36*
X85339942Y-66260708D02*
G01*
X86029821Y-66435860D01*
X86036997Y-66441217D01*
X86038642Y-66447200D01*
X86038642Y-66680996D01*
X86035215Y-66689269D01*
X86032339Y-66691377D01*
X85481509Y-66977762D01*
X85472588Y-66978538D01*
X85466397Y-66973901D01*
X85251718Y-66654049D01*
X85249953Y-66645270D01*
X85249963Y-66645218D01*
X85291062Y-66441217D01*
X85325607Y-66269740D01*
X85330601Y-66262308D01*
X85339388Y-66260582D01*
X85339942Y-66260708D01*
G37*
%TD.AperFunction*%
%TD*%
%TA.AperFunction,Conductor*%
%TO.N,D6*%
G36*
X23483161Y-75696461D02*
G01*
X24070562Y-76161487D01*
X24074922Y-76169308D01*
X24075000Y-76170659D01*
X24075000Y-76409340D01*
X24071573Y-76417613D01*
X24070562Y-76418513D01*
X23483161Y-76883538D01*
X23474548Y-76885987D01*
X23467633Y-76882645D01*
X23002727Y-76418513D01*
X22882292Y-76298278D01*
X22878859Y-76290010D01*
X22882278Y-76281735D01*
X23467634Y-75697353D01*
X23475909Y-75693934D01*
X23483161Y-75696461D01*
G37*
%TD.AperFunction*%
%TD*%
%TA.AperFunction,Conductor*%
%TO.N,D7*%
G36*
X115003145Y-53493624D02*
G01*
X115007858Y-53498366D01*
X115511382Y-54436842D01*
X115672806Y-54598266D01*
X115676233Y-54606539D01*
X115672806Y-54614812D01*
X115666894Y-54617998D01*
X114435929Y-54871613D01*
X114427134Y-54869926D01*
X114426361Y-54869371D01*
X113874034Y-54436842D01*
X113322224Y-54004717D01*
X113317824Y-53996918D01*
X113320226Y-53988291D01*
X113326128Y-53984283D01*
X114994241Y-53492675D01*
X115003145Y-53493624D01*
G37*
%TD.AperFunction*%
%TD*%
%TA.AperFunction,Conductor*%
%TO.N,D7*%
G36*
X98140921Y-86718439D02*
G01*
X98148865Y-86722572D01*
X98151560Y-86729078D01*
X98263452Y-88011277D01*
X98260757Y-88019817D01*
X98256059Y-88023190D01*
X96238406Y-88812706D01*
X96229453Y-88812529D01*
X96225870Y-88810083D01*
X96059916Y-88644129D01*
X96056489Y-88635856D01*
X96057293Y-88631593D01*
X96296612Y-88020000D01*
X96846809Y-86613939D01*
X96853015Y-86607484D01*
X96858721Y-86606547D01*
X98140921Y-86718439D01*
G37*
%TD.AperFunction*%
%TD*%
%TA.AperFunction,Conductor*%
%TO.N,D7*%
G36*
X138782342Y-95570220D02*
G01*
X138783695Y-95572937D01*
X139306570Y-97089561D01*
X139306027Y-97098499D01*
X139301078Y-97103663D01*
X138166981Y-97717497D01*
X138158074Y-97718422D01*
X138153139Y-97715481D01*
X137983740Y-97546082D01*
X137981720Y-97543372D01*
X137741533Y-97098941D01*
X137412537Y-96490182D01*
X137411619Y-96481275D01*
X137416299Y-96474914D01*
X138766105Y-95567041D01*
X138774882Y-95565268D01*
X138782342Y-95570220D01*
G37*
%TD.AperFunction*%
%TD*%
%TA.AperFunction,Conductor*%
%TO.N,D7*%
G36*
X106359397Y-93123033D02*
G01*
X106806599Y-93873885D01*
X106808247Y-93879872D01*
X106808247Y-94115290D01*
X106804820Y-94123563D01*
X106796891Y-94126985D01*
X106196581Y-94144620D01*
X106188210Y-94141438D01*
X106186778Y-94139811D01*
X105698662Y-93469321D01*
X105696563Y-93460616D01*
X105701235Y-93452976D01*
X105702711Y-93452060D01*
X106343949Y-93118638D01*
X106352869Y-93117863D01*
X106359397Y-93123033D01*
G37*
%TD.AperFunction*%
%TD*%
%TA.AperFunction,Conductor*%
%TO.N,D7*%
G36*
X86483161Y-92076461D02*
G01*
X87070562Y-92541487D01*
X87074922Y-92549308D01*
X87075000Y-92550659D01*
X87075000Y-92789340D01*
X87071573Y-92797613D01*
X87070562Y-92798513D01*
X86483161Y-93263538D01*
X86474548Y-93265987D01*
X86467633Y-93262645D01*
X86002727Y-92798513D01*
X85882292Y-92678278D01*
X85878859Y-92670010D01*
X85882278Y-92661735D01*
X86467634Y-92077353D01*
X86475909Y-92073934D01*
X86483161Y-92076461D01*
G37*
%TD.AperFunction*%
%TD*%
%TA.AperFunction,Conductor*%
%TO.N,D7*%
G36*
X116177219Y-53409467D02*
G01*
X116178841Y-53410368D01*
X116364610Y-53533837D01*
X116498743Y-53622988D01*
X116502011Y-53626256D01*
X116714628Y-53946153D01*
X116716354Y-53954940D01*
X116711360Y-53962373D01*
X116709733Y-53963277D01*
X116035522Y-54270276D01*
X116026572Y-54270586D01*
X116022400Y-54267901D01*
X115857098Y-54102599D01*
X115853671Y-54094326D01*
X115854722Y-54089480D01*
X116161723Y-53415264D01*
X116168269Y-53409157D01*
X116177219Y-53409467D01*
G37*
%TD.AperFunction*%
%TD*%
%TA.AperFunction,Conductor*%
%TO.N,D7*%
G36*
X125947621Y-97264533D02*
G01*
X125952664Y-97271016D01*
X126000082Y-97423020D01*
X126251865Y-98230141D01*
X126251058Y-98239059D01*
X126248969Y-98241898D01*
X126082690Y-98408177D01*
X126074417Y-98411604D01*
X126069999Y-98410738D01*
X125627207Y-98230141D01*
X124955484Y-97956172D01*
X124949118Y-97949874D01*
X124949069Y-97940919D01*
X124949911Y-97939251D01*
X125261916Y-97428300D01*
X125269150Y-97423028D01*
X125938780Y-97263121D01*
X125947621Y-97264533D01*
G37*
%TD.AperFunction*%
%TD*%
%TA.AperFunction,Conductor*%
%TO.N,D7*%
G36*
X118737865Y-89499105D02*
G01*
X118744873Y-89504680D01*
X118746274Y-89511593D01*
X118610209Y-90786867D01*
X118605924Y-90794730D01*
X118599762Y-90797266D01*
X116717170Y-90989179D01*
X116708592Y-90986609D01*
X116704343Y-90978726D01*
X116704283Y-90977539D01*
X116704283Y-90743202D01*
X116705474Y-90738059D01*
X117309112Y-89504680D01*
X117483026Y-89149329D01*
X117489741Y-89143405D01*
X117496759Y-89143226D01*
X118737865Y-89499105D01*
G37*
%TD.AperFunction*%
%TD*%
%TA.AperFunction,Conductor*%
%TO.N,D8*%
G36*
X96899621Y-63655098D02*
G01*
X96903354Y-63660051D01*
X97660589Y-65568922D01*
X97661413Y-65573236D01*
X97661413Y-65804806D01*
X97657986Y-65813079D01*
X97649713Y-65816506D01*
X97646039Y-65815914D01*
X95550441Y-65122779D01*
X95543662Y-65116928D01*
X95542426Y-65111159D01*
X95598569Y-63829828D01*
X95602355Y-63821713D01*
X95608755Y-63818737D01*
X96890978Y-63652762D01*
X96899621Y-63655098D01*
G37*
%TD.AperFunction*%
%TD*%
%TA.AperFunction,Conductor*%
%TO.N,D8*%
G36*
X95607659Y-45828525D02*
G01*
X95609925Y-45830555D01*
X96711168Y-47112681D01*
X96713958Y-47121189D01*
X96711466Y-47127565D01*
X95929513Y-48115561D01*
X95921692Y-48119922D01*
X95920339Y-48120000D01*
X95680965Y-48120000D01*
X95672692Y-48116573D01*
X95672551Y-48116430D01*
X95628786Y-48071132D01*
X95625500Y-48063002D01*
X95625500Y-47905266D01*
X95595548Y-47677763D01*
X95536158Y-47456114D01*
X95536154Y-47456103D01*
X95448347Y-47244120D01*
X95448344Y-47244112D01*
X95333611Y-47045388D01*
X95193919Y-46863339D01*
X95031661Y-46701081D01*
X95017373Y-46690117D01*
X95012896Y-46682362D01*
X95014838Y-46674232D01*
X95591397Y-45831573D01*
X95598896Y-45826681D01*
X95607659Y-45828525D01*
G37*
%TD.AperFunction*%
%TD*%
%TA.AperFunction,Conductor*%
%TO.N,D8*%
G36*
X95928612Y-61523427D02*
G01*
X95929513Y-61524439D01*
X96711466Y-62512434D01*
X96713914Y-62521048D01*
X96711168Y-62527318D01*
X95609928Y-63809441D01*
X95601937Y-63813484D01*
X95593429Y-63810694D01*
X95591396Y-63808425D01*
X94715227Y-62527874D01*
X94713383Y-62519111D01*
X94716468Y-62513138D01*
X95672551Y-61523570D01*
X95680764Y-61520002D01*
X95680965Y-61520000D01*
X95920339Y-61520000D01*
X95928612Y-61523427D01*
G37*
%TD.AperFunction*%
%TD*%
%TA.AperFunction,Conductor*%
%TO.N,D8*%
G36*
X95791826Y-49995741D02*
G01*
X95795253Y-50004014D01*
X95791826Y-50012287D01*
X95785462Y-50015557D01*
X95566258Y-50051810D01*
X95557537Y-50049779D01*
X95552806Y-50042176D01*
X95554837Y-50033455D01*
X95560787Y-50029122D01*
X95674263Y-49992869D01*
X95677824Y-49992314D01*
X95783553Y-49992314D01*
X95791826Y-49995741D01*
G37*
%TD.AperFunction*%
%TD*%
%TA.AperFunction,Conductor*%
%TO.N,D8*%
G36*
X116612819Y-50831159D02*
G01*
X116618928Y-50837706D01*
X116619440Y-50839496D01*
X116695299Y-51216040D01*
X116695299Y-51220662D01*
X116619440Y-51597205D01*
X116614446Y-51604638D01*
X116605659Y-51606364D01*
X116603869Y-51605852D01*
X115910050Y-51346194D01*
X115903503Y-51340085D01*
X115902451Y-51335236D01*
X115902451Y-51101465D01*
X115905878Y-51093192D01*
X115910050Y-51090507D01*
X116603870Y-50830849D01*
X116612819Y-50831159D01*
G37*
%TD.AperFunction*%
%TD*%
%TA.AperFunction,Conductor*%
%TO.N,D8*%
G36*
X95607659Y-27828525D02*
G01*
X95609925Y-27830555D01*
X96711168Y-29112681D01*
X96713958Y-29121189D01*
X96711466Y-29127565D01*
X95929513Y-30115561D01*
X95921692Y-30119922D01*
X95920339Y-30120000D01*
X95680965Y-30120000D01*
X95672692Y-30116573D01*
X95672551Y-30116430D01*
X95628786Y-30071132D01*
X95625500Y-30063002D01*
X95625500Y-29905266D01*
X95595548Y-29677763D01*
X95536158Y-29456114D01*
X95536154Y-29456103D01*
X95448347Y-29244120D01*
X95448344Y-29244112D01*
X95333611Y-29045388D01*
X95193919Y-28863339D01*
X95031661Y-28701081D01*
X95017373Y-28690117D01*
X95012896Y-28682362D01*
X95014838Y-28674232D01*
X95591397Y-27831573D01*
X95598896Y-27826681D01*
X95607659Y-27828525D01*
G37*
%TD.AperFunction*%
%TD*%
%TA.AperFunction,Conductor*%
%TO.N,D8*%
G36*
X95926159Y-30611113D02*
G01*
X95928844Y-30615285D01*
X96188501Y-31309104D01*
X96188191Y-31318054D01*
X96181644Y-31324163D01*
X96179854Y-31324675D01*
X95803311Y-31400534D01*
X95798689Y-31400534D01*
X95422145Y-31324675D01*
X95414712Y-31319681D01*
X95412986Y-31310894D01*
X95413495Y-31309112D01*
X95673156Y-30615284D01*
X95679265Y-30608738D01*
X95684114Y-30607686D01*
X95917886Y-30607686D01*
X95926159Y-30611113D01*
G37*
%TD.AperFunction*%
%TD*%
%TA.AperFunction,Conductor*%
%TO.N,D8*%
G36*
X125923209Y-87167033D02*
G01*
X126597422Y-87474033D01*
X126603531Y-87480580D01*
X126603221Y-87489530D01*
X126602317Y-87491157D01*
X126389700Y-87811054D01*
X126386432Y-87814322D01*
X126066535Y-88026939D01*
X126057748Y-88028665D01*
X126050315Y-88023671D01*
X126049411Y-88022044D01*
X125742412Y-87347833D01*
X125742102Y-87338883D01*
X125744785Y-87334713D01*
X125910090Y-87169408D01*
X125918362Y-87165982D01*
X125923209Y-87167033D01*
G37*
%TD.AperFunction*%
%TD*%
%TA.AperFunction,Conductor*%
%TO.N,D8*%
G36*
X126829074Y-88072067D02*
G01*
X127633204Y-88258457D01*
X127640489Y-88263664D01*
X127640985Y-88264542D01*
X128465438Y-89881952D01*
X128466142Y-89890879D01*
X128460327Y-89897689D01*
X128455311Y-89898961D01*
X127103887Y-89933258D01*
X127095529Y-89930042D01*
X127092283Y-89924571D01*
X126965845Y-89449422D01*
X126647714Y-88253893D01*
X126648899Y-88245018D01*
X126650744Y-88242616D01*
X126818168Y-88075192D01*
X126826440Y-88071766D01*
X126829074Y-88072067D01*
G37*
%TD.AperFunction*%
%TD*%
%TA.AperFunction,Conductor*%
%TO.N,D8*%
G36*
X126725062Y-87600950D02*
G01*
X126725966Y-87602577D01*
X127032965Y-88276788D01*
X127033275Y-88285738D01*
X127030590Y-88289910D01*
X126865288Y-88455212D01*
X126857015Y-88458639D01*
X126852166Y-88457587D01*
X126177955Y-88150588D01*
X126171846Y-88144041D01*
X126172156Y-88135091D01*
X126173054Y-88133474D01*
X126385677Y-87813566D01*
X126388945Y-87810299D01*
X126708844Y-87597681D01*
X126717629Y-87595956D01*
X126725062Y-87600950D01*
G37*
%TD.AperFunction*%
%TD*%
%TA.AperFunction,Conductor*%
%TO.N,D8*%
G36*
X95928612Y-43523427D02*
G01*
X95929513Y-43524439D01*
X96711466Y-44512434D01*
X96713914Y-44521048D01*
X96711168Y-44527318D01*
X95609928Y-45809441D01*
X95601937Y-45813484D01*
X95593429Y-45810694D01*
X95591396Y-45808425D01*
X94715227Y-44527874D01*
X94713383Y-44519111D01*
X94716468Y-44513138D01*
X95672551Y-43523570D01*
X95680764Y-43520002D01*
X95680965Y-43520000D01*
X95920339Y-43520000D01*
X95928612Y-43523427D01*
G37*
%TD.AperFunction*%
%TD*%
%TA.AperFunction,Conductor*%
%TO.N,D8*%
G36*
X96179854Y-31475324D02*
G01*
X96187287Y-31480318D01*
X96189013Y-31489105D01*
X96188501Y-31490895D01*
X95928844Y-32184715D01*
X95922735Y-32191262D01*
X95917886Y-32192314D01*
X95684114Y-32192314D01*
X95675841Y-32188887D01*
X95673156Y-32184715D01*
X95413498Y-31490895D01*
X95413808Y-31481945D01*
X95420355Y-31475836D01*
X95422138Y-31475325D01*
X95798692Y-31399465D01*
X95803308Y-31399465D01*
X96179854Y-31475324D01*
G37*
%TD.AperFunction*%
%TD*%
%TA.AperFunction,Conductor*%
%TO.N,D8*%
G36*
X99487373Y-66438639D02*
G01*
X99488277Y-66440266D01*
X99795276Y-67114477D01*
X99795586Y-67123427D01*
X99792901Y-67127599D01*
X99627599Y-67292901D01*
X99619326Y-67296328D01*
X99614477Y-67295276D01*
X98940266Y-66988277D01*
X98934157Y-66981730D01*
X98934467Y-66972780D01*
X98935365Y-66971163D01*
X99147988Y-66651255D01*
X99151256Y-66647988D01*
X99471155Y-66435370D01*
X99479940Y-66433645D01*
X99487373Y-66438639D01*
G37*
%TD.AperFunction*%
%TD*%
%TA.AperFunction,Conductor*%
%TO.N,D8*%
G36*
X114760596Y-50704893D02*
G01*
X115491938Y-51129196D01*
X115494340Y-51131043D01*
X115661655Y-51298358D01*
X115665082Y-51306631D01*
X115661655Y-51314904D01*
X115661547Y-51315011D01*
X114761087Y-52192442D01*
X114752770Y-52195761D01*
X114747562Y-52194462D01*
X113324494Y-51461097D01*
X113318710Y-51454261D01*
X113319454Y-51445337D01*
X113324484Y-51440302D01*
X114749359Y-50704616D01*
X114758281Y-50703866D01*
X114760596Y-50704893D01*
G37*
%TD.AperFunction*%
%TD*%
%TA.AperFunction,Conductor*%
%TO.N,D8*%
G36*
X98685520Y-66004722D02*
G01*
X99359733Y-66311722D01*
X99365842Y-66318269D01*
X99365532Y-66327219D01*
X99364628Y-66328846D01*
X99152011Y-66648743D01*
X99148743Y-66652011D01*
X98828846Y-66864628D01*
X98820059Y-66866354D01*
X98812626Y-66861360D01*
X98811722Y-66859733D01*
X98504723Y-66185522D01*
X98504413Y-66176572D01*
X98507096Y-66172402D01*
X98672401Y-66007097D01*
X98680673Y-66003671D01*
X98685520Y-66004722D01*
G37*
%TD.AperFunction*%
%TD*%
%TA.AperFunction,Conductor*%
%TO.N,D9*%
G36*
X125643283Y-60360284D02*
G01*
X125809833Y-60526834D01*
X125813260Y-60535107D01*
X125813024Y-60537445D01*
X125417650Y-62476478D01*
X125412639Y-62483899D01*
X125403848Y-62485604D01*
X125402434Y-62485222D01*
X124418894Y-62152264D01*
X124412157Y-62146365D01*
X124412148Y-62146347D01*
X123927238Y-61160742D01*
X123926660Y-61151806D01*
X123932571Y-61145079D01*
X123932756Y-61144990D01*
X125630089Y-60357942D01*
X125639035Y-60357571D01*
X125643283Y-60360284D01*
G37*
%TD.AperFunction*%
%TD*%
%TA.AperFunction,Conductor*%
%TO.N,D9*%
G36*
X115172462Y-49293468D02*
G01*
X115713142Y-49685818D01*
X115717824Y-49693449D01*
X115716013Y-49701762D01*
X115503407Y-50021644D01*
X115495974Y-50026638D01*
X115495922Y-50026648D01*
X115119263Y-50100758D01*
X115110484Y-50098993D01*
X115105524Y-50091537D01*
X115105522Y-50091526D01*
X114988744Y-49470446D01*
X114990584Y-49461685D01*
X114991965Y-49460019D01*
X115157320Y-49294664D01*
X115165592Y-49291238D01*
X115172462Y-49293468D01*
G37*
%TD.AperFunction*%
%TD*%
%TA.AperFunction,Conductor*%
%TO.N,D9*%
G36*
X115136922Y-48780598D02*
G01*
X115140460Y-48786048D01*
X115464371Y-49853854D01*
X115463493Y-49862765D01*
X115456571Y-49868446D01*
X115453175Y-49868950D01*
X115219115Y-49868950D01*
X115218755Y-49868944D01*
X113316380Y-49810349D01*
X113308216Y-49806670D01*
X113305040Y-49798655D01*
X113305040Y-48919888D01*
X113308467Y-48911615D01*
X113315898Y-48908218D01*
X115128426Y-48777774D01*
X115136922Y-48780598D01*
G37*
%TD.AperFunction*%
%TD*%
%TA.AperFunction,Conductor*%
%TO.N,D9*%
G36*
X132778854Y-50175324D02*
G01*
X132786287Y-50180318D01*
X132788013Y-50189105D01*
X132787501Y-50190895D01*
X132527844Y-50884715D01*
X132521735Y-50891262D01*
X132516886Y-50892314D01*
X132283114Y-50892314D01*
X132274841Y-50888887D01*
X132272156Y-50884715D01*
X132012498Y-50190895D01*
X132012808Y-50181945D01*
X132019355Y-50175836D01*
X132021138Y-50175325D01*
X132397692Y-50099465D01*
X132402308Y-50099465D01*
X132778854Y-50175324D01*
G37*
%TD.AperFunction*%
%TD*%
%TA.AperFunction,Conductor*%
%TO.N,D10*%
G36*
X118277909Y-60693462D02*
G01*
X118291829Y-60698434D01*
X119600581Y-61165819D01*
X119607220Y-61171828D01*
X119608122Y-61179117D01*
X119416525Y-62143322D01*
X119411551Y-62150769D01*
X119407320Y-62152519D01*
X118445166Y-62342922D01*
X118436385Y-62341167D01*
X118431537Y-62334251D01*
X118386206Y-62150769D01*
X118144352Y-61171828D01*
X118029584Y-60707287D01*
X118030926Y-60698434D01*
X118038136Y-60693123D01*
X118040942Y-60692781D01*
X118273975Y-60692781D01*
X118277909Y-60693462D01*
G37*
%TD.AperFunction*%
%TD*%
%TA.AperFunction,Conductor*%
%TO.N,D10*%
G36*
X115005370Y-45872968D02*
G01*
X115008287Y-45875221D01*
X115893491Y-46816224D01*
X115896664Y-46824598D01*
X115893242Y-46832514D01*
X115727019Y-46998737D01*
X115720978Y-47001949D01*
X115660648Y-47013672D01*
X115652566Y-47012320D01*
X115588712Y-46975454D01*
X115555784Y-46956444D01*
X115555783Y-46956443D01*
X115555780Y-46956442D01*
X115555782Y-46956442D01*
X115403059Y-46915521D01*
X115403057Y-46915521D01*
X115244943Y-46915521D01*
X115244940Y-46915521D01*
X115092218Y-46956442D01*
X114955282Y-47035502D01*
X114843481Y-47147303D01*
X114843477Y-47147308D01*
X114829777Y-47171038D01*
X114822673Y-47176489D01*
X114821877Y-47176673D01*
X114435868Y-47251687D01*
X114427093Y-47249901D01*
X114426415Y-47249408D01*
X114296239Y-47147303D01*
X113322211Y-46383316D01*
X113317818Y-46375515D01*
X113320227Y-46366890D01*
X113326133Y-46362886D01*
X114996468Y-45872013D01*
X115005370Y-45872968D01*
G37*
%TD.AperFunction*%
%TD*%
%TA.AperFunction,Conductor*%
%TO.N,D3*%
G36*
X41607659Y-24948525D02*
G01*
X41609925Y-24950555D01*
X42711168Y-26232681D01*
X42713958Y-26241189D01*
X42711466Y-26247565D01*
X41929513Y-27235561D01*
X41921692Y-27239922D01*
X41920339Y-27240000D01*
X41680965Y-27240000D01*
X41672692Y-27236573D01*
X41672551Y-27236430D01*
X41628786Y-27191132D01*
X41625500Y-27183002D01*
X41625500Y-27025266D01*
X41595548Y-26797763D01*
X41536158Y-26576114D01*
X41536154Y-26576103D01*
X41448347Y-26364120D01*
X41448344Y-26364112D01*
X41333611Y-26165388D01*
X41193919Y-25983339D01*
X41031661Y-25821081D01*
X41017373Y-25810117D01*
X41012896Y-25802362D01*
X41014838Y-25794232D01*
X41591397Y-24951573D01*
X41598896Y-24946681D01*
X41607659Y-24948525D01*
G37*
%TD.AperFunction*%
%TD*%
%TA.AperFunction,Conductor*%
%TO.N,D3*%
G36*
X41928612Y-40643427D02*
G01*
X41929513Y-40644439D01*
X42711466Y-41632434D01*
X42713914Y-41641048D01*
X42711168Y-41647318D01*
X41609928Y-42929441D01*
X41601937Y-42933484D01*
X41593429Y-42930694D01*
X41591396Y-42928425D01*
X40715227Y-41647874D01*
X40713383Y-41639111D01*
X40716468Y-41633138D01*
X41672551Y-40643570D01*
X41680764Y-40640002D01*
X41680965Y-40640000D01*
X41920339Y-40640000D01*
X41928612Y-40643427D01*
G37*
%TD.AperFunction*%
%TD*%
%TA.AperFunction,Conductor*%
%TO.N,D3*%
G36*
X42891307Y-43277221D02*
G01*
X42898442Y-43282632D01*
X42900043Y-43288482D01*
X42909443Y-45228243D01*
X42906056Y-45236533D01*
X42897800Y-45240000D01*
X42663015Y-45240000D01*
X42656568Y-45238064D01*
X41494766Y-44470943D01*
X41490406Y-44465658D01*
X41448344Y-44364112D01*
X41333611Y-44165388D01*
X41225825Y-44024920D01*
X41223508Y-44016271D01*
X41224062Y-44013943D01*
X41596436Y-42949189D01*
X41602401Y-42942513D01*
X41610442Y-42941735D01*
X42891307Y-43277221D01*
G37*
%TD.AperFunction*%
%TD*%
%TA.AperFunction,Conductor*%
%TO.N,D3*%
G36*
X41926159Y-28311113D02*
G01*
X41928844Y-28315285D01*
X42188501Y-29009104D01*
X42188191Y-29018054D01*
X42181644Y-29024163D01*
X42179854Y-29024675D01*
X41803311Y-29100534D01*
X41798689Y-29100534D01*
X41422145Y-29024675D01*
X41414712Y-29019681D01*
X41412986Y-29010894D01*
X41413495Y-29009112D01*
X41673156Y-28315284D01*
X41679265Y-28308738D01*
X41684114Y-28307686D01*
X41917886Y-28307686D01*
X41926159Y-28311113D01*
G37*
%TD.AperFunction*%
%TD*%
%TA.AperFunction,Conductor*%
%TO.N,D3*%
G36*
X42179854Y-29175324D02*
G01*
X42187287Y-29180318D01*
X42189013Y-29189105D01*
X42188501Y-29190895D01*
X41928844Y-29884715D01*
X41922735Y-29891262D01*
X41917886Y-29892314D01*
X41684114Y-29892314D01*
X41675841Y-29888887D01*
X41673156Y-29884715D01*
X41413498Y-29190895D01*
X41413808Y-29181945D01*
X41420355Y-29175836D01*
X41422138Y-29175325D01*
X41798692Y-29099465D01*
X41803308Y-29099465D01*
X42179854Y-29175324D01*
G37*
%TD.AperFunction*%
%TD*%
%TA.AperFunction,Conductor*%
%TO.N,D2*%
G36*
X23928612Y-65843427D02*
G01*
X23929513Y-65844439D01*
X24711466Y-66832434D01*
X24713914Y-66841048D01*
X24711168Y-66847318D01*
X23609928Y-68129441D01*
X23601937Y-68133484D01*
X23593429Y-68130694D01*
X23591396Y-68128425D01*
X22715227Y-66847874D01*
X22713383Y-66839111D01*
X22716468Y-66833138D01*
X23672551Y-65843570D01*
X23680764Y-65840002D01*
X23680965Y-65840000D01*
X23920339Y-65840000D01*
X23928612Y-65843427D01*
G37*
%TD.AperFunction*%
%TD*%
%TA.AperFunction,Conductor*%
%TO.N,D2*%
G36*
X23608436Y-50148296D02*
G01*
X23611483Y-50150491D01*
X24421835Y-50961468D01*
X24894167Y-51434163D01*
X24897591Y-51442438D01*
X24896459Y-51447453D01*
X24428173Y-52433320D01*
X24421528Y-52439323D01*
X24417605Y-52440000D01*
X24179171Y-52440000D01*
X24171770Y-52437362D01*
X23587840Y-51960476D01*
X23583940Y-51954443D01*
X23536158Y-51776113D01*
X23448344Y-51564112D01*
X23333611Y-51365388D01*
X23193919Y-51183339D01*
X23122998Y-51112418D01*
X23119571Y-51104145D01*
X23120801Y-51098923D01*
X23592742Y-50153537D01*
X23599503Y-50147667D01*
X23608436Y-50148296D01*
G37*
%TD.AperFunction*%
%TD*%
%TA.AperFunction,Conductor*%
%TO.N,D2*%
G36*
X24425159Y-63911113D02*
G01*
X24427844Y-63915285D01*
X24687501Y-64609104D01*
X24687191Y-64618054D01*
X24680644Y-64624163D01*
X24678854Y-64624675D01*
X24302311Y-64700534D01*
X24297689Y-64700534D01*
X23921145Y-64624675D01*
X23913712Y-64619681D01*
X23911986Y-64610894D01*
X23912495Y-64609112D01*
X24172156Y-63915284D01*
X24178265Y-63908738D01*
X24183114Y-63907686D01*
X24416886Y-63907686D01*
X24425159Y-63911113D01*
G37*
%TD.AperFunction*%
%TD*%
%TA.AperFunction,Conductor*%
%TO.N,D2*%
G36*
X24291256Y-64697283D02*
G01*
X24295218Y-64698061D01*
X24302676Y-64703018D01*
X24302701Y-64703055D01*
X24514404Y-65020843D01*
X24516139Y-65029628D01*
X24511154Y-65037067D01*
X24509238Y-65038100D01*
X23928191Y-65284692D01*
X23923620Y-65285622D01*
X23692477Y-65285622D01*
X23684204Y-65282195D01*
X23680777Y-65273922D01*
X23681431Y-65270066D01*
X23765369Y-65029628D01*
X23904342Y-64631541D01*
X23910303Y-64624861D01*
X23917638Y-64623918D01*
X24291256Y-64697283D01*
G37*
%TD.AperFunction*%
%TD*%
%TA.AperFunction,Conductor*%
%TO.N,D2*%
G36*
X23928612Y-47843427D02*
G01*
X23929513Y-47844439D01*
X24711466Y-48832434D01*
X24713914Y-48841048D01*
X24711168Y-48847318D01*
X23609928Y-50129441D01*
X23601937Y-50133484D01*
X23593429Y-50130694D01*
X23591396Y-50128425D01*
X22715227Y-48847874D01*
X22713383Y-48839111D01*
X22716468Y-48833138D01*
X23672551Y-47843570D01*
X23680764Y-47840002D01*
X23680965Y-47840000D01*
X23920339Y-47840000D01*
X23928612Y-47843427D01*
G37*
%TD.AperFunction*%
%TD*%
%TA.AperFunction,Conductor*%
%TO.N,pos*%
G36*
X116623483Y-46289969D02*
G01*
X116624500Y-46294739D01*
X116624500Y-46871750D01*
X116621073Y-46880023D01*
X116612800Y-46883450D01*
X116392004Y-46883450D01*
X116383731Y-46880023D01*
X116380304Y-46871750D01*
X116381077Y-46867569D01*
X116601873Y-46290558D01*
X116608030Y-46284056D01*
X116616981Y-46283812D01*
X116623483Y-46289969D01*
G37*
%TD.AperFunction*%
%TD*%
%TA.AperFunction,Conductor*%
%TO.N,pos*%
G36*
X118243735Y-44981655D02*
G01*
X118250047Y-44988007D01*
X118250923Y-44992450D01*
X118250923Y-45224177D01*
X118250809Y-45225809D01*
X118196765Y-45609432D01*
X118192217Y-45617146D01*
X118185179Y-45619500D01*
X117353019Y-45619500D01*
X117344746Y-45616073D01*
X117341541Y-45610066D01*
X117295592Y-45377358D01*
X117297351Y-45368578D01*
X117302625Y-45364268D01*
X118234781Y-44981626D01*
X118243735Y-44981655D01*
G37*
%TD.AperFunction*%
%TD*%
%TA.AperFunction,Conductor*%
%TO.N,pos*%
G36*
X129348020Y-65242222D02*
G01*
X130022233Y-65549222D01*
X130028342Y-65555769D01*
X130028032Y-65564719D01*
X130027128Y-65566346D01*
X129814511Y-65886243D01*
X129811243Y-65889511D01*
X129491346Y-66102128D01*
X129482559Y-66103854D01*
X129475126Y-66098860D01*
X129474222Y-66097233D01*
X129167223Y-65423022D01*
X129166913Y-65414072D01*
X129169596Y-65409902D01*
X129334901Y-65244597D01*
X129343173Y-65241171D01*
X129348020Y-65242222D01*
G37*
%TD.AperFunction*%
%TD*%
%TA.AperFunction,Conductor*%
%TO.N,pos*%
G36*
X130149873Y-65676139D02*
G01*
X130150777Y-65677766D01*
X130457776Y-66351977D01*
X130458086Y-66360927D01*
X130455401Y-66365099D01*
X130290099Y-66530401D01*
X130281826Y-66533828D01*
X130276977Y-66532776D01*
X129602766Y-66225777D01*
X129596657Y-66219230D01*
X129596967Y-66210280D01*
X129597865Y-66208663D01*
X129810488Y-65888755D01*
X129813756Y-65885488D01*
X130133655Y-65672870D01*
X130142440Y-65671145D01*
X130149873Y-65676139D01*
G37*
%TD.AperFunction*%
%TD*%
%TA.AperFunction,Conductor*%
%TO.N,pos*%
G36*
X129090171Y-64525877D02*
G01*
X129095004Y-64532764D01*
X129246152Y-65139553D01*
X129244827Y-65148409D01*
X129243072Y-65150654D01*
X129077714Y-65316012D01*
X129069441Y-65319439D01*
X129063012Y-65317514D01*
X128487594Y-64939048D01*
X128482565Y-64931639D01*
X128484248Y-64922844D01*
X128484279Y-64922797D01*
X128696594Y-64603353D01*
X128704022Y-64598362D01*
X129081394Y-64524112D01*
X129090171Y-64525877D01*
G37*
%TD.AperFunction*%
%TD*%
%TA.AperFunction,Conductor*%
%TO.N,pos*%
G36*
X118827301Y-59351691D02*
G01*
X118828503Y-59353100D01*
X119201473Y-59867951D01*
X119203551Y-59876661D01*
X119198862Y-59884290D01*
X119198518Y-59884530D01*
X118880049Y-60098281D01*
X118871270Y-60100046D01*
X118871218Y-60100036D01*
X118494442Y-60024131D01*
X118487009Y-60019137D01*
X118485159Y-60011092D01*
X118573627Y-59358392D01*
X118578134Y-59350655D01*
X118585221Y-59348264D01*
X118819028Y-59348264D01*
X118827301Y-59351691D01*
G37*
%TD.AperFunction*%
%TD*%
M02*
