%TF.GenerationSoftware,KiCad,Pcbnew,9.0.4*%
%TF.CreationDate,2025-09-04T10:39:47+02:00*%
%TF.ProjectId,avocado_v3,61766f63-6164-46f5-9f76-332e6b696361,0.0.3*%
%TF.SameCoordinates,Original*%
%TF.FileFunction,Profile,NP*%
%FSLAX46Y46*%
G04 Gerber Fmt 4.6, Leading zero omitted, Abs format (unit mm)*
G04 Created by KiCad (PCBNEW 9.0.4) date 2025-09-04 10:39:47*
%MOMM*%
%LPD*%
G01*
G04 APERTURE LIST*
%TA.AperFunction,Profile*%
%ADD10C,0.150000*%
%TD*%
%TA.AperFunction,Profile*%
%ADD11C,0.050000*%
%TD*%
G04 APERTURE END LIST*
D10*
X52075000Y-18090000D02*
X52075000Y-17050000D01*
X111675000Y-35030000D02*
X132875000Y-35030000D01*
X34075000Y-25290000D02*
X34075000Y-22090000D01*
X36075000Y-20090000D02*
X50075000Y-20090000D01*
X72035008Y-78629200D02*
G75*
G02*
X70075000Y-76629600I39992J1999600D01*
G01*
X55675000Y-74650000D02*
G75*
G02*
X57675000Y-72650000I2000000J0D01*
G01*
X52075000Y-18090000D02*
G75*
G02*
X50075000Y-20090000I-2000000J0D01*
G01*
X77114992Y-78730800D02*
G75*
G02*
X79075000Y-80730400I-39992J-1999600D01*
G01*
X90470140Y-21644654D02*
X91675000Y-22970000D01*
X68075000Y-72650000D02*
G75*
G02*
X70075000Y-74650000I0J-2000000D01*
G01*
X119467976Y-104593999D02*
G75*
G02*
X119657946Y-104645538I-428176J-1954101D01*
G01*
X79075000Y-99270000D02*
X79075000Y-80730400D01*
X34075000Y-22090000D02*
G75*
G02*
X36075000Y-20090000I2000000J0D01*
G01*
X18075000Y-84890000D02*
G75*
G02*
X16075000Y-82890000I0J2000000D01*
G01*
X68075000Y-72650000D02*
X57675000Y-72650000D01*
X37675000Y-79690000D02*
X37675000Y-82890000D01*
X37675000Y-82890000D02*
G75*
G02*
X35675000Y-84890000I-2000000J0D01*
G01*
X54075000Y-15050000D02*
X71675000Y-15050000D01*
X55675000Y-75690000D02*
G75*
G02*
X53675000Y-77690000I-2000000J0D01*
G01*
X134781134Y-109559361D02*
X119657946Y-104645539D01*
X119467976Y-104593999D02*
X115490222Y-103722435D01*
X81075000Y-101270000D02*
G75*
G02*
X79075000Y-99270000I0J2000000D01*
G01*
X134875000Y-37030000D02*
X134875000Y-84655342D01*
X18075000Y-27290000D02*
X32075000Y-27290000D01*
X91675000Y-22970000D02*
X107675000Y-22970000D01*
X137301281Y-108275282D02*
G75*
G02*
X134781156Y-109559293I-1902081J618082D01*
G01*
X109675000Y-24970000D02*
X109675000Y-33030000D01*
X16075000Y-82890000D02*
X16075000Y-29290000D01*
X136081863Y-86491352D02*
X141686315Y-88912417D01*
X70075000Y-76629600D02*
X70075000Y-74650000D01*
X75675000Y-20990000D02*
G75*
G02*
X73675000Y-18990000I0J2000000D01*
G01*
X16075000Y-29290000D02*
G75*
G02*
X18075000Y-27290000I2000000J0D01*
G01*
X136081863Y-86491352D02*
G75*
G02*
X134874962Y-84655342I793137J1836052D01*
G01*
X75675000Y-20990000D02*
X88990260Y-20990000D01*
X88990260Y-20990000D02*
G75*
G02*
X90470162Y-21644634I40J-2000000D01*
G01*
X77114992Y-78730800D02*
X72035008Y-78629200D01*
X53675000Y-77690000D02*
X39675000Y-77690000D01*
X107675000Y-22970000D02*
G75*
G02*
X109675000Y-24970000I0J-2000000D01*
G01*
X111675000Y-35030000D02*
G75*
G02*
X109675000Y-33030000I0J2000000D01*
G01*
X96942789Y-101270000D02*
G75*
G02*
X97206060Y-101287401I11J-2000100D01*
G01*
X52075000Y-17050000D02*
G75*
G02*
X54075000Y-15050000I2000000J0D01*
G01*
X132875000Y-35030000D02*
G75*
G02*
X134875000Y-37030000I0J-2000000D01*
G01*
X73675000Y-17050000D02*
X73675000Y-18990000D01*
X71675000Y-15050000D02*
G75*
G02*
X73675000Y-17050000I0J-2000000D01*
G01*
X115325429Y-103693492D02*
G75*
G02*
X115490221Y-103722439I-263429J-1983208D01*
G01*
X96942789Y-101270000D02*
X81075000Y-101270000D01*
X142795290Y-91366461D02*
X137301281Y-108275282D01*
X115325429Y-103693492D02*
X97206060Y-101287404D01*
X55675000Y-74650000D02*
X55675000Y-75690000D01*
X35675000Y-84890000D02*
X18075000Y-84890000D01*
X37675000Y-79690000D02*
G75*
G02*
X39675000Y-77690000I2000000J0D01*
G01*
X141686314Y-88912417D02*
G75*
G02*
X142795270Y-91366455I-793114J-1835983D01*
G01*
X34075000Y-25290000D02*
G75*
G02*
X32075000Y-27290000I-2000000J0D01*
G01*
%TO.C,MCU1*%
D11*
X124225000Y-46120000D02*
X126625000Y-46120000D01*
X126625000Y-47620000D01*
X124225000Y-47620000D01*
X124225000Y-46120000D01*
X120175000Y-40370000D02*
X123575000Y-40370000D01*
X123575000Y-41870000D01*
X120175000Y-41870000D01*
X120175000Y-40370000D01*
X117125000Y-46120000D02*
X119525000Y-46120000D01*
X119525000Y-47620000D01*
X117125000Y-47620000D01*
X117125000Y-46120000D01*
%TD*%
M02*
