%TF.GenerationSoftware,KiCad,Pcbnew,8.0.3*%
%TF.CreationDate,2024-07-17T09:05:20+02:00*%
%TF.ProjectId,avocado,61766f63-6164-46f2-9e6b-696361645f70,rev?*%
%TF.SameCoordinates,Original*%
%TF.FileFunction,Legend,Top*%
%TF.FilePolarity,Positive*%
%FSLAX46Y46*%
G04 Gerber Fmt 4.6, Leading zero omitted, Abs format (unit mm)*
G04 Created by KiCad (PCBNEW 8.0.3) date 2024-07-17 09:05:20*
%MOMM*%
%LPD*%
G01*
G04 APERTURE LIST*
%ADD10C,0.150000*%
%ADD11C,0.120000*%
%ADD12C,0.200000*%
G04 APERTURE END LIST*
D10*
X39389160Y-82824132D02*
X39865350Y-82824132D01*
X39293922Y-83109847D02*
X39627255Y-82109847D01*
X39627255Y-82109847D02*
X39960588Y-83109847D01*
X40198684Y-82443180D02*
X40436779Y-83109847D01*
X40436779Y-83109847D02*
X40674874Y-82443180D01*
X41198684Y-83109847D02*
X41103446Y-83062228D01*
X41103446Y-83062228D02*
X41055827Y-83014608D01*
X41055827Y-83014608D02*
X41008208Y-82919370D01*
X41008208Y-82919370D02*
X41008208Y-82633656D01*
X41008208Y-82633656D02*
X41055827Y-82538418D01*
X41055827Y-82538418D02*
X41103446Y-82490799D01*
X41103446Y-82490799D02*
X41198684Y-82443180D01*
X41198684Y-82443180D02*
X41341541Y-82443180D01*
X41341541Y-82443180D02*
X41436779Y-82490799D01*
X41436779Y-82490799D02*
X41484398Y-82538418D01*
X41484398Y-82538418D02*
X41532017Y-82633656D01*
X41532017Y-82633656D02*
X41532017Y-82919370D01*
X41532017Y-82919370D02*
X41484398Y-83014608D01*
X41484398Y-83014608D02*
X41436779Y-83062228D01*
X41436779Y-83062228D02*
X41341541Y-83109847D01*
X41341541Y-83109847D02*
X41198684Y-83109847D01*
X42389160Y-83062228D02*
X42293922Y-83109847D01*
X42293922Y-83109847D02*
X42103446Y-83109847D01*
X42103446Y-83109847D02*
X42008208Y-83062228D01*
X42008208Y-83062228D02*
X41960589Y-83014608D01*
X41960589Y-83014608D02*
X41912970Y-82919370D01*
X41912970Y-82919370D02*
X41912970Y-82633656D01*
X41912970Y-82633656D02*
X41960589Y-82538418D01*
X41960589Y-82538418D02*
X42008208Y-82490799D01*
X42008208Y-82490799D02*
X42103446Y-82443180D01*
X42103446Y-82443180D02*
X42293922Y-82443180D01*
X42293922Y-82443180D02*
X42389160Y-82490799D01*
X43246303Y-83109847D02*
X43246303Y-82586037D01*
X43246303Y-82586037D02*
X43198684Y-82490799D01*
X43198684Y-82490799D02*
X43103446Y-82443180D01*
X43103446Y-82443180D02*
X42912970Y-82443180D01*
X42912970Y-82443180D02*
X42817732Y-82490799D01*
X43246303Y-83062228D02*
X43151065Y-83109847D01*
X43151065Y-83109847D02*
X42912970Y-83109847D01*
X42912970Y-83109847D02*
X42817732Y-83062228D01*
X42817732Y-83062228D02*
X42770113Y-82966989D01*
X42770113Y-82966989D02*
X42770113Y-82871751D01*
X42770113Y-82871751D02*
X42817732Y-82776513D01*
X42817732Y-82776513D02*
X42912970Y-82728894D01*
X42912970Y-82728894D02*
X43151065Y-82728894D01*
X43151065Y-82728894D02*
X43246303Y-82681275D01*
X44151065Y-83109847D02*
X44151065Y-82109847D01*
X44151065Y-83062228D02*
X44055827Y-83109847D01*
X44055827Y-83109847D02*
X43865351Y-83109847D01*
X43865351Y-83109847D02*
X43770113Y-83062228D01*
X43770113Y-83062228D02*
X43722494Y-83014608D01*
X43722494Y-83014608D02*
X43674875Y-82919370D01*
X43674875Y-82919370D02*
X43674875Y-82633656D01*
X43674875Y-82633656D02*
X43722494Y-82538418D01*
X43722494Y-82538418D02*
X43770113Y-82490799D01*
X43770113Y-82490799D02*
X43865351Y-82443180D01*
X43865351Y-82443180D02*
X44055827Y-82443180D01*
X44055827Y-82443180D02*
X44151065Y-82490799D01*
X44770113Y-83109847D02*
X44674875Y-83062228D01*
X44674875Y-83062228D02*
X44627256Y-83014608D01*
X44627256Y-83014608D02*
X44579637Y-82919370D01*
X44579637Y-82919370D02*
X44579637Y-82633656D01*
X44579637Y-82633656D02*
X44627256Y-82538418D01*
X44627256Y-82538418D02*
X44674875Y-82490799D01*
X44674875Y-82490799D02*
X44770113Y-82443180D01*
X44770113Y-82443180D02*
X44912970Y-82443180D01*
X44912970Y-82443180D02*
X45008208Y-82490799D01*
X45008208Y-82490799D02*
X45055827Y-82538418D01*
X45055827Y-82538418D02*
X45103446Y-82633656D01*
X45103446Y-82633656D02*
X45103446Y-82919370D01*
X45103446Y-82919370D02*
X45055827Y-83014608D01*
X45055827Y-83014608D02*
X45008208Y-83062228D01*
X45008208Y-83062228D02*
X44912970Y-83109847D01*
X44912970Y-83109847D02*
X44770113Y-83109847D01*
X39389160Y-84434076D02*
X39865350Y-84434076D01*
X39293922Y-84719791D02*
X39627255Y-83719791D01*
X39627255Y-83719791D02*
X39960588Y-84719791D01*
X41055827Y-84719791D02*
X41055827Y-83719791D01*
X41151065Y-84338838D02*
X41436779Y-84719791D01*
X41436779Y-84053124D02*
X41055827Y-84434076D01*
X42246303Y-84672172D02*
X42151065Y-84719791D01*
X42151065Y-84719791D02*
X41960589Y-84719791D01*
X41960589Y-84719791D02*
X41865351Y-84672172D01*
X41865351Y-84672172D02*
X41817732Y-84576933D01*
X41817732Y-84576933D02*
X41817732Y-84195981D01*
X41817732Y-84195981D02*
X41865351Y-84100743D01*
X41865351Y-84100743D02*
X41960589Y-84053124D01*
X41960589Y-84053124D02*
X42151065Y-84053124D01*
X42151065Y-84053124D02*
X42246303Y-84100743D01*
X42246303Y-84100743D02*
X42293922Y-84195981D01*
X42293922Y-84195981D02*
X42293922Y-84291219D01*
X42293922Y-84291219D02*
X41817732Y-84386457D01*
X42627256Y-84053124D02*
X42865351Y-84719791D01*
X43103446Y-84053124D02*
X42865351Y-84719791D01*
X42865351Y-84719791D02*
X42770113Y-84957886D01*
X42770113Y-84957886D02*
X42722494Y-85005505D01*
X42722494Y-85005505D02*
X42627256Y-85053124D01*
X43484399Y-84719791D02*
X43484399Y-83719791D01*
X43484399Y-84100743D02*
X43579637Y-84053124D01*
X43579637Y-84053124D02*
X43770113Y-84053124D01*
X43770113Y-84053124D02*
X43865351Y-84100743D01*
X43865351Y-84100743D02*
X43912970Y-84148362D01*
X43912970Y-84148362D02*
X43960589Y-84243600D01*
X43960589Y-84243600D02*
X43960589Y-84529314D01*
X43960589Y-84529314D02*
X43912970Y-84624552D01*
X43912970Y-84624552D02*
X43865351Y-84672172D01*
X43865351Y-84672172D02*
X43770113Y-84719791D01*
X43770113Y-84719791D02*
X43579637Y-84719791D01*
X43579637Y-84719791D02*
X43484399Y-84672172D01*
X44532018Y-84719791D02*
X44436780Y-84672172D01*
X44436780Y-84672172D02*
X44389161Y-84624552D01*
X44389161Y-84624552D02*
X44341542Y-84529314D01*
X44341542Y-84529314D02*
X44341542Y-84243600D01*
X44341542Y-84243600D02*
X44389161Y-84148362D01*
X44389161Y-84148362D02*
X44436780Y-84100743D01*
X44436780Y-84100743D02*
X44532018Y-84053124D01*
X44532018Y-84053124D02*
X44674875Y-84053124D01*
X44674875Y-84053124D02*
X44770113Y-84100743D01*
X44770113Y-84100743D02*
X44817732Y-84148362D01*
X44817732Y-84148362D02*
X44865351Y-84243600D01*
X44865351Y-84243600D02*
X44865351Y-84529314D01*
X44865351Y-84529314D02*
X44817732Y-84624552D01*
X44817732Y-84624552D02*
X44770113Y-84672172D01*
X44770113Y-84672172D02*
X44674875Y-84719791D01*
X44674875Y-84719791D02*
X44532018Y-84719791D01*
X45722494Y-84719791D02*
X45722494Y-84195981D01*
X45722494Y-84195981D02*
X45674875Y-84100743D01*
X45674875Y-84100743D02*
X45579637Y-84053124D01*
X45579637Y-84053124D02*
X45389161Y-84053124D01*
X45389161Y-84053124D02*
X45293923Y-84100743D01*
X45722494Y-84672172D02*
X45627256Y-84719791D01*
X45627256Y-84719791D02*
X45389161Y-84719791D01*
X45389161Y-84719791D02*
X45293923Y-84672172D01*
X45293923Y-84672172D02*
X45246304Y-84576933D01*
X45246304Y-84576933D02*
X45246304Y-84481695D01*
X45246304Y-84481695D02*
X45293923Y-84386457D01*
X45293923Y-84386457D02*
X45389161Y-84338838D01*
X45389161Y-84338838D02*
X45627256Y-84338838D01*
X45627256Y-84338838D02*
X45722494Y-84291219D01*
X46198685Y-84719791D02*
X46198685Y-84053124D01*
X46198685Y-84243600D02*
X46246304Y-84148362D01*
X46246304Y-84148362D02*
X46293923Y-84100743D01*
X46293923Y-84100743D02*
X46389161Y-84053124D01*
X46389161Y-84053124D02*
X46484399Y-84053124D01*
X47246304Y-84719791D02*
X47246304Y-83719791D01*
X47246304Y-84672172D02*
X47151066Y-84719791D01*
X47151066Y-84719791D02*
X46960590Y-84719791D01*
X46960590Y-84719791D02*
X46865352Y-84672172D01*
X46865352Y-84672172D02*
X46817733Y-84624552D01*
X46817733Y-84624552D02*
X46770114Y-84529314D01*
X46770114Y-84529314D02*
X46770114Y-84243600D01*
X46770114Y-84243600D02*
X46817733Y-84148362D01*
X46817733Y-84148362D02*
X46865352Y-84100743D01*
X46865352Y-84100743D02*
X46960590Y-84053124D01*
X46960590Y-84053124D02*
X47151066Y-84053124D01*
X47151066Y-84053124D02*
X47246304Y-84100743D01*
X48341543Y-84053124D02*
X48722495Y-84053124D01*
X48484400Y-84719791D02*
X48484400Y-83862648D01*
X48484400Y-83862648D02*
X48532019Y-83767410D01*
X48532019Y-83767410D02*
X48627257Y-83719791D01*
X48627257Y-83719791D02*
X48722495Y-83719791D01*
X49055829Y-84719791D02*
X49055829Y-84053124D01*
X49055829Y-84243600D02*
X49103448Y-84148362D01*
X49103448Y-84148362D02*
X49151067Y-84100743D01*
X49151067Y-84100743D02*
X49246305Y-84053124D01*
X49246305Y-84053124D02*
X49341543Y-84053124D01*
X49817734Y-84719791D02*
X49722496Y-84672172D01*
X49722496Y-84672172D02*
X49674877Y-84624552D01*
X49674877Y-84624552D02*
X49627258Y-84529314D01*
X49627258Y-84529314D02*
X49627258Y-84243600D01*
X49627258Y-84243600D02*
X49674877Y-84148362D01*
X49674877Y-84148362D02*
X49722496Y-84100743D01*
X49722496Y-84100743D02*
X49817734Y-84053124D01*
X49817734Y-84053124D02*
X49960591Y-84053124D01*
X49960591Y-84053124D02*
X50055829Y-84100743D01*
X50055829Y-84100743D02*
X50103448Y-84148362D01*
X50103448Y-84148362D02*
X50151067Y-84243600D01*
X50151067Y-84243600D02*
X50151067Y-84529314D01*
X50151067Y-84529314D02*
X50103448Y-84624552D01*
X50103448Y-84624552D02*
X50055829Y-84672172D01*
X50055829Y-84672172D02*
X49960591Y-84719791D01*
X49960591Y-84719791D02*
X49817734Y-84719791D01*
X50579639Y-84719791D02*
X50579639Y-84053124D01*
X50579639Y-84148362D02*
X50627258Y-84100743D01*
X50627258Y-84100743D02*
X50722496Y-84053124D01*
X50722496Y-84053124D02*
X50865353Y-84053124D01*
X50865353Y-84053124D02*
X50960591Y-84100743D01*
X50960591Y-84100743D02*
X51008210Y-84195981D01*
X51008210Y-84195981D02*
X51008210Y-84719791D01*
X51008210Y-84195981D02*
X51055829Y-84100743D01*
X51055829Y-84100743D02*
X51151067Y-84053124D01*
X51151067Y-84053124D02*
X51293924Y-84053124D01*
X51293924Y-84053124D02*
X51389163Y-84100743D01*
X51389163Y-84100743D02*
X51436782Y-84195981D01*
X51436782Y-84195981D02*
X51436782Y-84719791D01*
X52627258Y-84434076D02*
X53103448Y-84434076D01*
X52532020Y-84719791D02*
X52865353Y-83719791D01*
X52865353Y-83719791D02*
X53198686Y-84719791D01*
X53960591Y-84053124D02*
X53960591Y-84719791D01*
X53532020Y-84053124D02*
X53532020Y-84576933D01*
X53532020Y-84576933D02*
X53579639Y-84672172D01*
X53579639Y-84672172D02*
X53674877Y-84719791D01*
X53674877Y-84719791D02*
X53817734Y-84719791D01*
X53817734Y-84719791D02*
X53912972Y-84672172D01*
X53912972Y-84672172D02*
X53960591Y-84624552D01*
X54436782Y-84719791D02*
X54436782Y-84053124D01*
X54436782Y-84243600D02*
X54484401Y-84148362D01*
X54484401Y-84148362D02*
X54532020Y-84100743D01*
X54532020Y-84100743D02*
X54627258Y-84053124D01*
X54627258Y-84053124D02*
X54722496Y-84053124D01*
X54960592Y-84053124D02*
X55198687Y-84719791D01*
X55436782Y-84053124D02*
X55198687Y-84719791D01*
X55198687Y-84719791D02*
X55103449Y-84957886D01*
X55103449Y-84957886D02*
X55055830Y-85005505D01*
X55055830Y-85005505D02*
X54960592Y-85053124D01*
X55817735Y-84053124D02*
X55817735Y-84719791D01*
X55817735Y-84148362D02*
X55865354Y-84100743D01*
X55865354Y-84100743D02*
X55960592Y-84053124D01*
X55960592Y-84053124D02*
X56103449Y-84053124D01*
X56103449Y-84053124D02*
X56198687Y-84100743D01*
X56198687Y-84100743D02*
X56246306Y-84195981D01*
X56246306Y-84195981D02*
X56246306Y-84719791D01*
X117052380Y-64854819D02*
X116719047Y-64378628D01*
X116480952Y-64854819D02*
X116480952Y-63854819D01*
X116480952Y-63854819D02*
X116861904Y-63854819D01*
X116861904Y-63854819D02*
X116957142Y-63902438D01*
X116957142Y-63902438D02*
X117004761Y-63950057D01*
X117004761Y-63950057D02*
X117052380Y-64045295D01*
X117052380Y-64045295D02*
X117052380Y-64188152D01*
X117052380Y-64188152D02*
X117004761Y-64283390D01*
X117004761Y-64283390D02*
X116957142Y-64331009D01*
X116957142Y-64331009D02*
X116861904Y-64378628D01*
X116861904Y-64378628D02*
X116480952Y-64378628D01*
X117480952Y-64759580D02*
X117528571Y-64807200D01*
X117528571Y-64807200D02*
X117480952Y-64854819D01*
X117480952Y-64854819D02*
X117433333Y-64807200D01*
X117433333Y-64807200D02*
X117480952Y-64759580D01*
X117480952Y-64759580D02*
X117480952Y-64854819D01*
X118671428Y-64807200D02*
X118814285Y-64854819D01*
X118814285Y-64854819D02*
X119052380Y-64854819D01*
X119052380Y-64854819D02*
X119147618Y-64807200D01*
X119147618Y-64807200D02*
X119195237Y-64759580D01*
X119195237Y-64759580D02*
X119242856Y-64664342D01*
X119242856Y-64664342D02*
X119242856Y-64569104D01*
X119242856Y-64569104D02*
X119195237Y-64473866D01*
X119195237Y-64473866D02*
X119147618Y-64426247D01*
X119147618Y-64426247D02*
X119052380Y-64378628D01*
X119052380Y-64378628D02*
X118861904Y-64331009D01*
X118861904Y-64331009D02*
X118766666Y-64283390D01*
X118766666Y-64283390D02*
X118719047Y-64235771D01*
X118719047Y-64235771D02*
X118671428Y-64140533D01*
X118671428Y-64140533D02*
X118671428Y-64045295D01*
X118671428Y-64045295D02*
X118719047Y-63950057D01*
X118719047Y-63950057D02*
X118766666Y-63902438D01*
X118766666Y-63902438D02*
X118861904Y-63854819D01*
X118861904Y-63854819D02*
X119099999Y-63854819D01*
X119099999Y-63854819D02*
X119242856Y-63902438D01*
X119671428Y-64854819D02*
X119671428Y-64188152D01*
X119671428Y-63854819D02*
X119623809Y-63902438D01*
X119623809Y-63902438D02*
X119671428Y-63950057D01*
X119671428Y-63950057D02*
X119719047Y-63902438D01*
X119719047Y-63902438D02*
X119671428Y-63854819D01*
X119671428Y-63854819D02*
X119671428Y-63950057D01*
X120576189Y-64854819D02*
X120576189Y-63854819D01*
X120576189Y-64807200D02*
X120480951Y-64854819D01*
X120480951Y-64854819D02*
X120290475Y-64854819D01*
X120290475Y-64854819D02*
X120195237Y-64807200D01*
X120195237Y-64807200D02*
X120147618Y-64759580D01*
X120147618Y-64759580D02*
X120099999Y-64664342D01*
X120099999Y-64664342D02*
X120099999Y-64378628D01*
X120099999Y-64378628D02*
X120147618Y-64283390D01*
X120147618Y-64283390D02*
X120195237Y-64235771D01*
X120195237Y-64235771D02*
X120290475Y-64188152D01*
X120290475Y-64188152D02*
X120480951Y-64188152D01*
X120480951Y-64188152D02*
X120576189Y-64235771D01*
X121433332Y-64807200D02*
X121338094Y-64854819D01*
X121338094Y-64854819D02*
X121147618Y-64854819D01*
X121147618Y-64854819D02*
X121052380Y-64807200D01*
X121052380Y-64807200D02*
X121004761Y-64711961D01*
X121004761Y-64711961D02*
X121004761Y-64331009D01*
X121004761Y-64331009D02*
X121052380Y-64235771D01*
X121052380Y-64235771D02*
X121147618Y-64188152D01*
X121147618Y-64188152D02*
X121338094Y-64188152D01*
X121338094Y-64188152D02*
X121433332Y-64235771D01*
X121433332Y-64235771D02*
X121480951Y-64331009D01*
X121480951Y-64331009D02*
X121480951Y-64426247D01*
X121480951Y-64426247D02*
X121004761Y-64521485D01*
X122671428Y-64473866D02*
X123433333Y-64473866D01*
X124957142Y-63854819D02*
X124957142Y-64569104D01*
X124957142Y-64569104D02*
X124909523Y-64711961D01*
X124909523Y-64711961D02*
X124814285Y-64807200D01*
X124814285Y-64807200D02*
X124671428Y-64854819D01*
X124671428Y-64854819D02*
X124576190Y-64854819D01*
X125861904Y-64188152D02*
X125861904Y-64854819D01*
X125433333Y-64188152D02*
X125433333Y-64711961D01*
X125433333Y-64711961D02*
X125480952Y-64807200D01*
X125480952Y-64807200D02*
X125576190Y-64854819D01*
X125576190Y-64854819D02*
X125719047Y-64854819D01*
X125719047Y-64854819D02*
X125814285Y-64807200D01*
X125814285Y-64807200D02*
X125861904Y-64759580D01*
X126338095Y-64854819D02*
X126338095Y-64188152D01*
X126338095Y-64283390D02*
X126385714Y-64235771D01*
X126385714Y-64235771D02*
X126480952Y-64188152D01*
X126480952Y-64188152D02*
X126623809Y-64188152D01*
X126623809Y-64188152D02*
X126719047Y-64235771D01*
X126719047Y-64235771D02*
X126766666Y-64331009D01*
X126766666Y-64331009D02*
X126766666Y-64854819D01*
X126766666Y-64331009D02*
X126814285Y-64235771D01*
X126814285Y-64235771D02*
X126909523Y-64188152D01*
X126909523Y-64188152D02*
X127052380Y-64188152D01*
X127052380Y-64188152D02*
X127147619Y-64235771D01*
X127147619Y-64235771D02*
X127195238Y-64331009D01*
X127195238Y-64331009D02*
X127195238Y-64854819D01*
X127671428Y-64188152D02*
X127671428Y-65188152D01*
X127671428Y-64235771D02*
X127766666Y-64188152D01*
X127766666Y-64188152D02*
X127957142Y-64188152D01*
X127957142Y-64188152D02*
X128052380Y-64235771D01*
X128052380Y-64235771D02*
X128099999Y-64283390D01*
X128099999Y-64283390D02*
X128147618Y-64378628D01*
X128147618Y-64378628D02*
X128147618Y-64664342D01*
X128147618Y-64664342D02*
X128099999Y-64759580D01*
X128099999Y-64759580D02*
X128052380Y-64807200D01*
X128052380Y-64807200D02*
X127957142Y-64854819D01*
X127957142Y-64854819D02*
X127766666Y-64854819D01*
X127766666Y-64854819D02*
X127671428Y-64807200D01*
X128957142Y-64807200D02*
X128861904Y-64854819D01*
X128861904Y-64854819D02*
X128671428Y-64854819D01*
X128671428Y-64854819D02*
X128576190Y-64807200D01*
X128576190Y-64807200D02*
X128528571Y-64711961D01*
X128528571Y-64711961D02*
X128528571Y-64331009D01*
X128528571Y-64331009D02*
X128576190Y-64235771D01*
X128576190Y-64235771D02*
X128671428Y-64188152D01*
X128671428Y-64188152D02*
X128861904Y-64188152D01*
X128861904Y-64188152D02*
X128957142Y-64235771D01*
X128957142Y-64235771D02*
X129004761Y-64331009D01*
X129004761Y-64331009D02*
X129004761Y-64426247D01*
X129004761Y-64426247D02*
X128528571Y-64521485D01*
X129433333Y-64854819D02*
X129433333Y-64188152D01*
X129433333Y-64378628D02*
X129480952Y-64283390D01*
X129480952Y-64283390D02*
X129528571Y-64235771D01*
X129528571Y-64235771D02*
X129623809Y-64188152D01*
X129623809Y-64188152D02*
X129719047Y-64188152D01*
X130814286Y-64854819D02*
X130814286Y-63854819D01*
X130814286Y-64331009D02*
X131385714Y-64331009D01*
X131385714Y-64854819D02*
X131385714Y-63854819D01*
X132242857Y-64807200D02*
X132147619Y-64854819D01*
X132147619Y-64854819D02*
X131957143Y-64854819D01*
X131957143Y-64854819D02*
X131861905Y-64807200D01*
X131861905Y-64807200D02*
X131814286Y-64711961D01*
X131814286Y-64711961D02*
X131814286Y-64331009D01*
X131814286Y-64331009D02*
X131861905Y-64235771D01*
X131861905Y-64235771D02*
X131957143Y-64188152D01*
X131957143Y-64188152D02*
X132147619Y-64188152D01*
X132147619Y-64188152D02*
X132242857Y-64235771D01*
X132242857Y-64235771D02*
X132290476Y-64331009D01*
X132290476Y-64331009D02*
X132290476Y-64426247D01*
X132290476Y-64426247D02*
X131814286Y-64521485D01*
X132719048Y-64854819D02*
X132719048Y-64188152D01*
X132719048Y-64378628D02*
X132766667Y-64283390D01*
X132766667Y-64283390D02*
X132814286Y-64235771D01*
X132814286Y-64235771D02*
X132909524Y-64188152D01*
X132909524Y-64188152D02*
X133004762Y-64188152D01*
X133719048Y-64807200D02*
X133623810Y-64854819D01*
X133623810Y-64854819D02*
X133433334Y-64854819D01*
X133433334Y-64854819D02*
X133338096Y-64807200D01*
X133338096Y-64807200D02*
X133290477Y-64711961D01*
X133290477Y-64711961D02*
X133290477Y-64331009D01*
X133290477Y-64331009D02*
X133338096Y-64235771D01*
X133338096Y-64235771D02*
X133433334Y-64188152D01*
X133433334Y-64188152D02*
X133623810Y-64188152D01*
X133623810Y-64188152D02*
X133719048Y-64235771D01*
X133719048Y-64235771D02*
X133766667Y-64331009D01*
X133766667Y-64331009D02*
X133766667Y-64426247D01*
X133766667Y-64426247D02*
X133290477Y-64521485D01*
X122028571Y-26188152D02*
X122028571Y-27188152D01*
X122028571Y-26235771D02*
X122123809Y-26188152D01*
X122123809Y-26188152D02*
X122314285Y-26188152D01*
X122314285Y-26188152D02*
X122409523Y-26235771D01*
X122409523Y-26235771D02*
X122457142Y-26283390D01*
X122457142Y-26283390D02*
X122504761Y-26378628D01*
X122504761Y-26378628D02*
X122504761Y-26664342D01*
X122504761Y-26664342D02*
X122457142Y-26759580D01*
X122457142Y-26759580D02*
X122409523Y-26807200D01*
X122409523Y-26807200D02*
X122314285Y-26854819D01*
X122314285Y-26854819D02*
X122123809Y-26854819D01*
X122123809Y-26854819D02*
X122028571Y-26807200D01*
X122933333Y-26854819D02*
X122933333Y-26188152D01*
X122933333Y-26378628D02*
X122980952Y-26283390D01*
X122980952Y-26283390D02*
X123028571Y-26235771D01*
X123028571Y-26235771D02*
X123123809Y-26188152D01*
X123123809Y-26188152D02*
X123219047Y-26188152D01*
X123695238Y-26854819D02*
X123600000Y-26807200D01*
X123600000Y-26807200D02*
X123552381Y-26759580D01*
X123552381Y-26759580D02*
X123504762Y-26664342D01*
X123504762Y-26664342D02*
X123504762Y-26378628D01*
X123504762Y-26378628D02*
X123552381Y-26283390D01*
X123552381Y-26283390D02*
X123600000Y-26235771D01*
X123600000Y-26235771D02*
X123695238Y-26188152D01*
X123695238Y-26188152D02*
X123838095Y-26188152D01*
X123838095Y-26188152D02*
X123933333Y-26235771D01*
X123933333Y-26235771D02*
X123980952Y-26283390D01*
X123980952Y-26283390D02*
X124028571Y-26378628D01*
X124028571Y-26378628D02*
X124028571Y-26664342D01*
X124028571Y-26664342D02*
X123980952Y-26759580D01*
X123980952Y-26759580D02*
X123933333Y-26807200D01*
X123933333Y-26807200D02*
X123838095Y-26854819D01*
X123838095Y-26854819D02*
X123695238Y-26854819D01*
X124457143Y-26854819D02*
X124457143Y-26188152D01*
X124457143Y-26283390D02*
X124504762Y-26235771D01*
X124504762Y-26235771D02*
X124600000Y-26188152D01*
X124600000Y-26188152D02*
X124742857Y-26188152D01*
X124742857Y-26188152D02*
X124838095Y-26235771D01*
X124838095Y-26235771D02*
X124885714Y-26331009D01*
X124885714Y-26331009D02*
X124885714Y-26854819D01*
X124885714Y-26331009D02*
X124933333Y-26235771D01*
X124933333Y-26235771D02*
X125028571Y-26188152D01*
X125028571Y-26188152D02*
X125171428Y-26188152D01*
X125171428Y-26188152D02*
X125266667Y-26235771D01*
X125266667Y-26235771D02*
X125314286Y-26331009D01*
X125314286Y-26331009D02*
X125314286Y-26854819D01*
X125790476Y-26854819D02*
X125790476Y-26188152D01*
X125790476Y-25854819D02*
X125742857Y-25902438D01*
X125742857Y-25902438D02*
X125790476Y-25950057D01*
X125790476Y-25950057D02*
X125838095Y-25902438D01*
X125838095Y-25902438D02*
X125790476Y-25854819D01*
X125790476Y-25854819D02*
X125790476Y-25950057D01*
X126695237Y-26807200D02*
X126599999Y-26854819D01*
X126599999Y-26854819D02*
X126409523Y-26854819D01*
X126409523Y-26854819D02*
X126314285Y-26807200D01*
X126314285Y-26807200D02*
X126266666Y-26759580D01*
X126266666Y-26759580D02*
X126219047Y-26664342D01*
X126219047Y-26664342D02*
X126219047Y-26378628D01*
X126219047Y-26378628D02*
X126266666Y-26283390D01*
X126266666Y-26283390D02*
X126314285Y-26235771D01*
X126314285Y-26235771D02*
X126409523Y-26188152D01*
X126409523Y-26188152D02*
X126599999Y-26188152D01*
X126599999Y-26188152D02*
X126695237Y-26235771D01*
X127123809Y-26854819D02*
X127123809Y-26188152D01*
X127123809Y-26378628D02*
X127171428Y-26283390D01*
X127171428Y-26283390D02*
X127219047Y-26235771D01*
X127219047Y-26235771D02*
X127314285Y-26188152D01*
X127314285Y-26188152D02*
X127409523Y-26188152D01*
X127885714Y-26854819D02*
X127790476Y-26807200D01*
X127790476Y-26807200D02*
X127742857Y-26759580D01*
X127742857Y-26759580D02*
X127695238Y-26664342D01*
X127695238Y-26664342D02*
X127695238Y-26378628D01*
X127695238Y-26378628D02*
X127742857Y-26283390D01*
X127742857Y-26283390D02*
X127790476Y-26235771D01*
X127790476Y-26235771D02*
X127885714Y-26188152D01*
X127885714Y-26188152D02*
X128028571Y-26188152D01*
X128028571Y-26188152D02*
X128123809Y-26235771D01*
X128123809Y-26235771D02*
X128171428Y-26283390D01*
X128171428Y-26283390D02*
X128219047Y-26378628D01*
X128219047Y-26378628D02*
X128219047Y-26664342D01*
X128219047Y-26664342D02*
X128171428Y-26759580D01*
X128171428Y-26759580D02*
X128123809Y-26807200D01*
X128123809Y-26807200D02*
X128028571Y-26854819D01*
X128028571Y-26854819D02*
X127885714Y-26854819D01*
D11*
%TO.C,D1*%
X18550000Y-80320000D02*
X20450000Y-80320000D01*
X18550000Y-80320000D02*
X18550000Y-76660000D01*
X20450000Y-80320000D02*
X20450000Y-76660000D01*
%TO.C,D2*%
X18550000Y-61320000D02*
X20450000Y-61320000D01*
X18550000Y-61320000D02*
X18550000Y-57660000D01*
X20450000Y-61320000D02*
X20450000Y-57660000D01*
%TO.C,D3*%
X18550000Y-42320000D02*
X20450000Y-42320000D01*
X18550000Y-42320000D02*
X18550000Y-38660000D01*
X20450000Y-42320000D02*
X20450000Y-38660000D01*
%TO.C,D4*%
X37550000Y-72720000D02*
X39450000Y-72720000D01*
X37550000Y-72720000D02*
X37550000Y-69060000D01*
X39450000Y-72720000D02*
X39450000Y-69060000D01*
%TO.C,D5*%
X37550000Y-53720000D02*
X39450000Y-53720000D01*
X37550000Y-53720000D02*
X37550000Y-50060000D01*
X39450000Y-53720000D02*
X39450000Y-50060000D01*
%TO.C,D6*%
X37550000Y-34720000D02*
X39450000Y-34720000D01*
X37550000Y-34720000D02*
X37550000Y-31060000D01*
X39450000Y-34720000D02*
X39450000Y-31060000D01*
%TO.C,D7*%
X56550000Y-67400000D02*
X58450000Y-67400000D01*
X56550000Y-67400000D02*
X56550000Y-63740000D01*
X58450000Y-67400000D02*
X58450000Y-63740000D01*
%TO.C,D8*%
X56550000Y-48400000D02*
X58450000Y-48400000D01*
X56550000Y-48400000D02*
X56550000Y-44740000D01*
X58450000Y-48400000D02*
X58450000Y-44740000D01*
%TO.C,D9*%
X56550000Y-29400000D02*
X58450000Y-29400000D01*
X56550000Y-29400000D02*
X56550000Y-25740000D01*
X58450000Y-29400000D02*
X58450000Y-25740000D01*
%TO.C,D10*%
X75550000Y-73670000D02*
X77450000Y-73670000D01*
X75550000Y-73670000D02*
X75550000Y-70010000D01*
X77450000Y-73670000D02*
X77450000Y-70010000D01*
%TO.C,D11*%
X75550000Y-54670000D02*
X77450000Y-54670000D01*
X75550000Y-54670000D02*
X75550000Y-51010000D01*
X77450000Y-54670000D02*
X77450000Y-51010000D01*
%TO.C,D12*%
X75550000Y-35670000D02*
X77450000Y-35670000D01*
X75550000Y-35670000D02*
X75550000Y-32010000D01*
X77450000Y-35670000D02*
X77450000Y-32010000D01*
%TO.C,D13*%
X94550000Y-75760000D02*
X96450000Y-75760000D01*
X94550000Y-75760000D02*
X94550000Y-72100000D01*
X96450000Y-75760000D02*
X96450000Y-72100000D01*
%TO.C,D14*%
X94550000Y-56760000D02*
X96450000Y-56760000D01*
X94550000Y-56760000D02*
X94550000Y-53100000D01*
X96450000Y-56760000D02*
X96450000Y-53100000D01*
%TO.C,D15*%
X94550000Y-37760000D02*
X96450000Y-37760000D01*
X94550000Y-37760000D02*
X94550000Y-34100000D01*
X96450000Y-37760000D02*
X96450000Y-34100000D01*
%TO.C,D16*%
X75550000Y-97610000D02*
X77450000Y-97610000D01*
X75550000Y-97610000D02*
X75550000Y-93950000D01*
X77450000Y-97610000D02*
X77450000Y-93950000D01*
%TO.C,D17*%
X98170273Y-97752944D02*
X100044216Y-98066535D01*
X98170273Y-97752944D02*
X98774347Y-94143139D01*
X100044216Y-98066535D02*
X100648290Y-94456729D01*
%TO.C,D18*%
X120224358Y-102542316D02*
X122020844Y-103160896D01*
X120224358Y-102542316D02*
X121415938Y-99081718D01*
X122020844Y-103160896D02*
X123212423Y-99700298D01*
D10*
%TO.C,*%
X133990000Y-31160000D02*
X133990000Y-61640000D01*
X133990000Y-31160000D02*
X128910000Y-31160000D01*
X128910000Y-31160000D02*
X128910000Y-28620000D01*
X128910000Y-28620000D02*
X121290000Y-28620000D01*
X121290000Y-28620000D02*
X121290000Y-31160000D01*
X121290000Y-31160000D02*
X116210000Y-31160000D01*
X116210000Y-31160000D02*
X116210000Y-61640000D01*
X116210000Y-61640000D02*
X133990000Y-61640000D01*
D11*
%TO.C,_2*%
X126160000Y-75360000D02*
X126160000Y-67540000D01*
X126160000Y-73760000D02*
X125240000Y-73760000D01*
X126160000Y-67540000D02*
X120040000Y-67540000D01*
X125400000Y-71400000D02*
X125400000Y-69800000D01*
X125400000Y-69800000D02*
X124400000Y-69800000D01*
X125240000Y-75360000D02*
X126160000Y-75360000D01*
X125240000Y-73760000D02*
X125240000Y-75360000D01*
X124960000Y-73760000D02*
X125240000Y-73760000D01*
X124960000Y-73760000D02*
X124960000Y-74975000D01*
X124900000Y-69800000D02*
X124900000Y-67540000D01*
X124400000Y-71400000D02*
X125400000Y-71400000D01*
X124400000Y-69800000D02*
X124400000Y-71400000D01*
X124400000Y-69800000D02*
X124400000Y-67540000D01*
X123600000Y-71900000D02*
X122600000Y-71900000D01*
X123600000Y-67540000D02*
X123600000Y-71900000D01*
X122600000Y-71900000D02*
X122600000Y-67540000D01*
X121800000Y-71400000D02*
X120800000Y-71400000D01*
X121800000Y-69800000D02*
X121800000Y-71400000D01*
X120960000Y-75360000D02*
X120960000Y-73760000D01*
X120960000Y-73760000D02*
X121240000Y-73760000D01*
X120800000Y-71400000D02*
X120800000Y-69800000D01*
X120800000Y-69800000D02*
X121800000Y-69800000D01*
X120040000Y-75360000D02*
X120960000Y-75360000D01*
X120040000Y-73760000D02*
X120960000Y-73760000D01*
X120040000Y-67540000D02*
X120040000Y-75360000D01*
D12*
%TO.C,S19*%
X132000000Y-81000000D02*
X131050000Y-81000000D01*
X131050000Y-81000000D02*
X131050000Y-74800000D01*
X131050000Y-74800000D02*
X132000000Y-74800000D01*
X134200000Y-81000000D02*
X135150000Y-81000000D01*
X135150000Y-81000000D02*
X135150000Y-74800000D01*
X135150000Y-74800000D02*
X134200000Y-74800000D01*
X132000000Y-80500000D02*
G75*
G02*
X131800000Y-80500000I-100000J0D01*
G01*
X131800000Y-80500000D02*
G75*
G02*
X132000000Y-80500000I100000J0D01*
G01*
%TD*%
M02*
