M48
; DRILL file {KiCad 8.0.3} date 2024-07-17T09:05:14+0200
; FORMAT={-:-/ absolute / inch / decimal}
; #@! TF.CreationDate,2024-07-17T09:05:14+02:00
; #@! TF.GenerationSoftware,Kicad,Pcbnew,8.0.3
; #@! TF.FileFunction,NonPlated,1,2,NPTH
FMAT,2
INCH
; #@! TA.AperFunction,NonPlated,NPTH,ComponentDrill
T1C0.0354
; #@! TA.AperFunction,NonPlated,NPTH,ComponentDrill
T2C0.0670
; #@! TA.AperFunction,NonPlated,NPTH,ComponentDrill
T3C0.1570
%
G90
G05
T1
X5.2728Y-2.6535
X5.2728Y-2.6535
X5.2728Y-2.7717
X5.2728Y-2.7717
T2
X0.8669Y-1.5142
X0.8669Y-2.2622
X0.8669Y-3.0102
X1.2669Y-1.5142
X1.2669Y-2.2622
X1.2669Y-3.0102
X1.615Y-1.215
X1.615Y-1.963
X1.615Y-2.711
X2.015Y-1.215
X2.015Y-1.963
X2.015Y-2.711
X2.363Y-1.0055
X2.363Y-1.7535
X2.363Y-2.5016
X2.763Y-1.0055
X2.763Y-1.7535
X2.763Y-2.5016
X3.111Y-1.2524
X3.111Y-2.0004
X3.111Y-2.7484
X3.111Y-3.6909
X3.511Y-1.2524
X3.511Y-2.0004
X3.511Y-2.7484
X3.511Y-3.6909
X3.8591Y-1.3346
X3.8591Y-2.0827
X3.8591Y-2.8307
X4.0248Y-3.7212
X4.2591Y-1.3346
X4.2591Y-2.0827
X4.2591Y-2.8307
X4.4193Y-3.7872
X4.9119Y-3.9379
X5.2901Y-4.0681
T3
X1.0669Y-1.5142
X1.0669Y-2.2622
X1.0669Y-3.0102
X1.815Y-1.215
X1.815Y-1.963
X1.815Y-2.711
X2.563Y-1.0055
X2.563Y-1.7535
X2.563Y-2.5016
X3.311Y-1.2524
X3.311Y-2.0004
X3.311Y-2.7484
X3.311Y-3.6909
X4.0591Y-1.3346
X4.0591Y-2.0827
X4.0591Y-2.8307
X4.2221Y-3.7542
X5.101Y-4.003
M30
