M48
; DRILL file {KiCad 8.0.3} date 2024-07-17T09:05:14+0200
; FORMAT={-:-/ absolute / inch / decimal}
; #@! TF.CreationDate,2024-07-17T09:05:14+02:00
; #@! TF.GenerationSoftware,Kicad,Pcbnew,8.0.3
; #@! TF.FileFunction,Plated,1,2,PTH
FMAT,2
INCH
; #@! TA.AperFunction,Plated,PTH,ComponentDrill
T1C0.0118
; #@! TA.AperFunction,Plated,PTH,ViaDrill
T2C0.0157
; #@! TA.AperFunction,Plated,PTH,ComponentDrill
T3C0.0157
; #@! TA.AperFunction,Plated,PTH,ComponentDrill
T4C0.0295
; #@! TA.AperFunction,Plated,PTH,ComponentDrill
T5C0.0394
; #@! TA.AperFunction,Plated,PTH,ComponentDrill
T6C0.0590
; #@! TA.AperFunction,Plated,PTH,ComponentDrill
T7C0.0866
%
G90
G05
T1
X0.7677Y-1.522
X0.7677Y-1.6323
X0.7677Y-2.2701
X0.7677Y-2.3803
X0.7677Y-3.0181
X0.7677Y-3.1283
X1.5157Y-1.2228
X1.5157Y-1.3331
X1.5157Y-1.9709
X1.5157Y-2.0811
X1.5157Y-2.7189
X1.5157Y-2.8291
X2.2638Y-1.0134
X2.2638Y-1.1236
X2.2638Y-1.7614
X2.2638Y-1.8717
X2.2638Y-2.5094
X2.2638Y-2.6197
X3.0118Y-1.2602
X3.0118Y-1.3705
X3.0118Y-2.0083
X3.0118Y-2.1185
X3.0118Y-2.7563
X3.0118Y-2.8665
X3.0118Y-3.6988
X3.0118Y-3.8091
X3.7598Y-1.3425
X3.7598Y-1.4528
X3.7598Y-2.0906
X3.7598Y-2.2008
X3.7598Y-2.8386
X3.7598Y-2.9488
X3.9074Y-3.8213
X3.9256Y-3.7126
X4.7796Y-4.0173
X4.8155Y-3.913
X5.2402Y-2.939
X5.2402Y-3.1949
T2
X5.0787Y-2.6181
X5.0787Y-2.7165
T3
X4.7968Y-1.2768
X4.7968Y-1.3768
X4.7968Y-1.4768
X4.7968Y-1.5768
X4.7968Y-1.6768
X4.7968Y-1.7768
X4.7968Y-1.8768
X4.7968Y-1.9768
X4.7968Y-2.0768
X4.7968Y-2.1768
X4.7968Y-2.2768
X4.7968Y-2.3768
X5.0536Y-1.2768
X5.0536Y-1.3768
X5.0536Y-1.4768
X5.0536Y-1.5768
X5.0536Y-1.6768
X5.0536Y-1.7768
X5.0536Y-1.8768
X5.0536Y-1.9768
X5.0536Y-2.0768
X5.0536Y-2.1768
X5.0536Y-2.2768
X5.0536Y-2.3768
T4
X4.8071Y-2.9094
X4.8858Y-2.9094
T5
X4.6252Y-1.2768
X4.6252Y-1.3768
X4.6252Y-1.4768
X4.6252Y-1.5768
X4.6252Y-1.6768
X4.6252Y-1.7768
X4.6252Y-1.8768
X4.6252Y-1.9768
X4.6252Y-2.0768
X4.6252Y-2.1768
X4.6252Y-2.2768
X4.6252Y-2.3768
X5.2252Y-1.2768
X5.2252Y-1.3768
X5.2252Y-1.4768
X5.2252Y-1.5768
X5.2252Y-1.6768
X5.2252Y-1.7768
X5.2252Y-1.8768
X5.2252Y-1.9768
X5.2252Y-2.0768
X5.2252Y-2.1768
X5.2252Y-2.2768
X5.2252Y-2.3768
T6
X0.9169Y-1.4142
X0.9169Y-2.1622
X0.9169Y-2.9102
X0.9669Y-1.3142
X0.9669Y-2.0622
X0.9669Y-2.8102
X1.1669Y-1.3142
X1.1669Y-2.0622
X1.1669Y-2.8102
X1.2169Y-1.4142
X1.2169Y-2.1622
X1.2169Y-2.9102
X1.665Y-1.115
X1.665Y-1.863
X1.665Y-2.611
X1.715Y-1.015
X1.715Y-1.763
X1.715Y-2.511
X1.915Y-1.015
X1.915Y-1.763
X1.915Y-2.511
X1.965Y-1.115
X1.965Y-1.863
X1.965Y-2.611
X2.413Y-0.9055
X2.413Y-1.6535
X2.413Y-2.4016
X2.463Y-0.8055
X2.463Y-1.5535
X2.463Y-2.3016
X2.663Y-0.8055
X2.663Y-1.5535
X2.663Y-2.3016
X2.713Y-0.9055
X2.713Y-1.6535
X2.713Y-2.4016
X3.161Y-1.1524
X3.161Y-1.9004
X3.161Y-2.6484
X3.161Y-3.5909
X3.211Y-1.0524
X3.211Y-1.8004
X3.211Y-2.5484
X3.211Y-3.4909
X3.411Y-1.0524
X3.411Y-1.8004
X3.411Y-2.5484
X3.411Y-3.4909
X3.461Y-1.1524
X3.461Y-1.9004
X3.461Y-2.6484
X3.461Y-3.5909
X3.9091Y-1.2346
X3.9091Y-1.9827
X3.9091Y-2.7307
X3.9591Y-1.1346
X3.9591Y-1.8827
X3.9591Y-2.6307
X4.0906Y-3.6308
X4.1564Y-3.5405
X4.1591Y-1.1346
X4.1591Y-1.8827
X4.1591Y-2.6307
X4.2091Y-1.2346
X4.2091Y-1.9827
X4.2091Y-2.7307
X4.3537Y-3.5735
X4.3865Y-3.6803
X4.9917Y-3.8596
X5.0716Y-3.7813
X5.2607Y-3.8465
X5.2754Y-3.9573
T7
X1.4672Y-1.5837
X1.4672Y-2.3318
X3.685Y-1.6675
X3.685Y-2.4156
X4.6615Y-3.8786
M30
