%TF.GenerationSoftware,KiCad,Pcbnew,8.0.3*%
%TF.CreationDate,2024-07-17T09:05:20+02:00*%
%TF.ProjectId,avocado,61766f63-6164-46f2-9e6b-696361645f70,rev?*%
%TF.SameCoordinates,Original*%
%TF.FileFunction,Profile,NP*%
%FSLAX46Y46*%
G04 Gerber Fmt 4.6, Leading zero omitted, Abs format (unit mm)*
G04 Created by KiCad (PCBNEW 8.0.3) date 2024-07-17 09:05:20*
%MOMM*%
%LPD*%
G01*
G04 APERTURE LIST*
%TA.AperFunction,Profile*%
%ADD10C,0.150000*%
%TD*%
G04 APERTURE END LIST*
D10*
X137583031Y-83773789D02*
X143578941Y-93810828D01*
X143753009Y-95487645D02*
X137283806Y-114275574D01*
X134741633Y-115515474D02*
X118685729Y-109986983D01*
X118650024Y-109974309D02*
X113028336Y-107918684D01*
X112671590Y-107824476D02*
X97995106Y-105368475D01*
X97728694Y-105342061D02*
X91731832Y-105151014D01*
X91668149Y-105150000D02*
X73604729Y-105150000D01*
X72102647Y-104470511D02*
X58097353Y-88539489D01*
X17700000Y-87860000D02*
X56595271Y-87860000D01*
X15700000Y-85860000D02*
X15700000Y-29060000D01*
X17700000Y-27060000D02*
X32700000Y-27060000D01*
X34700000Y-25060000D02*
X34700000Y-21460000D01*
X36700000Y-19460000D02*
X51700000Y-19460000D01*
X53700000Y-17460000D02*
X53700000Y-16140000D01*
X55700000Y-14140000D02*
X74500000Y-14140000D01*
X76500000Y-16140000D02*
X76500000Y-18410000D01*
X78500000Y-20410000D02*
X92715260Y-20410000D01*
X94195140Y-21064654D02*
X95500000Y-22500000D01*
X95500000Y-22500000D02*
X111363932Y-22500000D01*
X113152786Y-23605573D02*
X113947214Y-25194427D01*
X115736068Y-26300000D02*
X135300000Y-26300000D01*
X137300000Y-28300000D02*
X137300000Y-82748109D01*
X143578941Y-93810829D02*
G75*
G02*
X143753009Y-95487645I-1716969J-1025679D01*
G01*
X137283806Y-114275573D02*
G75*
G02*
X134741633Y-115515474I-1891037J651136D01*
G01*
X118685730Y-109986983D02*
G75*
G02*
X118650024Y-109974309I651136J1891037D01*
G01*
X112671589Y-107824476D02*
G75*
G02*
X113028336Y-107918684I-330095J-1972571D01*
G01*
X97728694Y-105342060D02*
G75*
G02*
X97995106Y-105368475I-63683J-1998986D01*
G01*
X91668149Y-105150000D02*
G75*
G02*
X91731832Y-105151014I0J-2000000D01*
G01*
X73604729Y-105150000D02*
G75*
G02*
X72102647Y-104470511I0J2000000D01*
G01*
X56595271Y-87860000D02*
G75*
G02*
X58097353Y-88539489I0J-2000000D01*
G01*
X17700000Y-87860000D02*
G75*
G02*
X15700000Y-85860000I0J2000000D01*
G01*
X15700000Y-29060000D02*
G75*
G02*
X17700000Y-27060000I2000000J0D01*
G01*
X34700000Y-25060000D02*
G75*
G02*
X32700000Y-27060000I-2000000J0D01*
G01*
X34700000Y-21460000D02*
G75*
G02*
X36700000Y-19460000I2000000J0D01*
G01*
X53700000Y-17460000D02*
G75*
G02*
X51700000Y-19460000I-2000000J0D01*
G01*
X53700000Y-16140000D02*
G75*
G02*
X55700000Y-14140000I2000000J0D01*
G01*
X74500000Y-14140000D02*
G75*
G02*
X76500000Y-16140000I0J-2000000D01*
G01*
X78500000Y-20410000D02*
G75*
G02*
X76500000Y-18410000I0J2000000D01*
G01*
X92715260Y-20410000D02*
G75*
G02*
X94195140Y-21064654I0J-2000000D01*
G01*
X111363932Y-22500000D02*
G75*
G02*
X113152786Y-23605573I0J-2000000D01*
G01*
X115736068Y-26300000D02*
G75*
G02*
X113947214Y-25194427I0J2000000D01*
G01*
X135300000Y-26300000D02*
G75*
G02*
X137300000Y-28300000I0J-2000000D01*
G01*
X137583031Y-83773789D02*
G75*
G02*
X137299999Y-82748109I1716969J1025680D01*
G01*
M02*
