<svg version="1.0" xmlns="http://www.w3.org/2000/svg" viewBox="0 0 750 1000">
  <path d="M416 68c-7 5-14 13-17 19-2 3-2 6-2 11 1 9 5 18 19 42 17 28 17 28 13 37-2 4-7 9-22 24-12 12-20 20-21 23-4 7-5 16-5 34l-1 20c-3 14-12 24-25 31-7 3-8 3-18 3-9 0-10 0-16-3-13-6-23-20-24-33-1-16 7-31 25-52 11-13 13-16 13-27 0-12-3-16-12-21-9-4-16-12-23-26l-4-5c-1 0 1 8 4 12l9 14c10 12 13 17 12 28 0 12-2 18-10 27-9 9-20 16-44 27-28 12-35 18-48 37l-5 8v8l3 17c9 28 8 59-2 69-5 4-9 6-15 4-8-2-12-5-16-13-8-17-12-24-22-34-11-11-19-21-25-31l-3-6-1 6c0 8 2 14 10 31 8 18 10 26 10 38 0 18-6 33-22 57l-16 27-8 13v-6l-1-11-1-5-1 5-3 17c-4 21-9 33-19 42-11 12-20 10-20-4 0-8 2-14 8-25 10-19 11-23 12-30 0-5 0-6-3-11a118 118 0 0 1-17-60c0-6-1-5-3 4-3 13-3 20-1 40 3 28 3 31-11 51l-12 18c-12 23-14 53-6 86 10 44 15 72 21 120a270 270 0 0 0 42 118l-7-21a177 177 0 0 1-16-101l2-22c0-16-1-24-8-44l-7-20c-3-16 4-33 22-55 9-12 14-19 15-24v-5l1 4v32l-5 14c-4 10-6 20-4 26 3 9 10 15 22 16 6 0 7 0 11-3 4-2 6-5 8-9 8-13 8-30 3-63-6-33-5-40 7-59a126 126 0 0 0 25-78c2 0 8 8 11 14 5 10 6 16 6 34v16l2 4c5 6 10 8 20 8 9 0 16-2 22-8s6-8 8-32c2-31 4-41 15-51 7-8 14-10 43-20 27-8 43-14 54-20 19-10 32-22 39-36l4-8v9c0 22-7 42-21 59l-8 12c-3 3-4 4-11 6-20 5-36 14-51 29-11 13-21 27-35 53-22 43-37 65-71 108a357 357 0 0 0-74 119 88 88 0 0 1-30-46c-3-11-3-14 1-15 10-5 9-22 0-27-11-4-21 2-21 13 0 5 2 9 7 13 3 2 4 3 4 8l4 14c5 16 12 28 25 41l8 8-1 5a181 181 0 0 0 100 201l8 5-8 14c-8 11-8 12-9 10-5-12-24-14-24-2 0 7 17 20 23 17 2 0 8-9 14-18l12-18 10 4a406 406 0 0 0 116 20c32 1 53 1 74-2l8-2 3 6 8 17c6 15 8 17 13 17 6-1 13-5 17-9 7-7 5-14-4-16-5 0-12 3-15 7l-2 3-6-12-5-13 11-4a176 176 0 0 0 140-156v-11l7-2c17-9 33-23 43-42l3-5-1 5-4 18a274 274 0 0 1-132 181 225 225 0 0 0 94-73c23-31 39-67 51-122l6-17c1-2 2-4 2-11l3-24c9-42 14-56 26-64 15-10 26-36 31-71v-5l-4 4c-9 8-20 13-32 13-10 0-15-3-18-10l-3-7c0-3-1-3-5-2-5 2-13 2-17 1-5-2-10-7-14-13-8-13-9-26-4-51l3-20c0-8-3-19-10-36-11-29-13-36-13-42 0-9 2-17 8-30 6-14 7-17 5-26-1-7-6-20-7-20s-4 12-7 34c-4 27-6 34-9 41-4 8-7 10-17 11-6 0-8 0-13-3-4-1-9-5-12-8-13-12-15-24-10-64 3-24 3-30-3-43-3-7-12-21-20-31-9-11-11-20-13-44v-14l-2 5c-3 7-3 15-1 32 3 18 4 20 1 27-3 11-20 23-33 23-11 0-24-9-33-23s-9-17 5-59c3-9 7-21 7-25 3-14-1-22-20-50l-15-25c-5-11-3-24 4-34 4-5 3-6-6 0zm46 310c2 3 5 7 6 11 3 6 4 7 4 16 0 8-1 11-3 18a158 158 0 0 0-6 23c0 2-1 1-8-6l-13-12-6-4 5-6c11-12 17-25 16-38v-6l5 4zm75 54c0 16 2 28 6 39 3 9 6 14 21 33l14 23c4 8 5 9 5 19v10l-8 14c-10 21-15 37-15 48 0 7 3 14 6 18 4 5 12 8 17 8 3-1 7-5 9-9l8-28c3-13 7-24 11-28l4-4-1 12c0 19 2 26 16 45 16 21 21 36 22 62l-1 16c-5-2-13 4-15 11-2 5-1 8 3 12l3 4-4 6a90 90 0 0 1-42 38l-1-10c0-21-4-40-11-62-5-16-20-47-33-68-31-48-45-75-54-101l-12-47h6c6 0 7 0 11-2 7-3 10-9 14-24a135 135 0 0 1 21-48v13zm-151 6c29 5 51 23 64 51 5 11 8 20 10 35 6 45 13 65 41 119 25 48 33 67 37 93 13 74-20 148-78 180-15 9-30 14-51 17-11 2-16 2-49 2-46 1-64-1-97-10-24-7-53-19-70-31a158 158 0 0 1-65-139c1-36 11-65 35-100 9-13 19-26 43-54 27-32 34-42 60-89 15-28 18-33 29-44a100 100 0 0 1 91-30z"/>
  <path d="M294 565c-11 5-15 21-8 32 4 7 12 11 21 11 5 0 7-1 11-3l7-6c3-3 3-3 11-2l10-1c3-3 2-4-4-4s-12-3-16-6l-4-8c-5-8-8-11-12-13-5-3-10-3-16 0zm15 8 6 8 5 8 2 3-2 3c-3 3-9 6-12 6-12 0-21-10-18-20s12-14 19-8zM409 578l-11 9c-9 9-13 11-22 9l-7-1c-3 2 7 8 14 8 3 0 4 0 6 4 7 12 21 17 33 11 16-8 17-31 2-39-4-2-11-3-15-1zm14 9c8 6 5 20-4 25h-16l-9-9c-1-2 1-3 7-9l9-9c4-2 10-1 13 2zM323 624l-1 5c-1 4-5 7-9 8l-4 2c-1 3 1 17 4 25 6 20 19 29 38 29 8 1 9 0 15-2 9-5 17-14 23-25l5-14c0-3 0-4-3-5-4-3-6-6-7-11 0-6-1-7-5-5-8 6-11 7-21 6-12 0-18-2-26-9-6-5-7-6-9-4zM303 725a86 86 0 0 0-58 101c7 29 28 49 57 56 12 3 31 3 43 0 47-13 72-64 53-108a92 92 0 0 0-59-49c-10-2-27-3-36 0zm8 33c4 2 10 7 12 13 3 5 3 18 0 24-4 10-13 15-22 15-14 0-23-10-23-26 0-6 0-8 3-13 3-7 9-13 15-15 3-1 10 0 15 2z"/>
</svg>
