<?xml version="1.0" standalone="no"?>
<!DOCTYPE svg PUBLIC "-//W3C//DTD SVG 20010904//EN"
 "http://www.w3.org/TR/2001/REC-SVG-20010904/DTD/svg10.dtd">
<svg version="1.0" xmlns="http://www.w3.org/2000/svg"
 width="1280.000000pt" height="1098.000000pt" viewBox="0 0 1280.000000 1098.000000"
 preserveAspectRatio="xMidYMid meet">

<g transform="translate(0.000000,1098.000000) scale(0.100000,-0.100000)"
fill="#000000" stroke="none">
<path d="M1975 9853 c-38 -38 -85 -145 -95 -216 -5 -33 -10 -60 -12 -62 -2 -1
-18 -5 -36 -8 -29 -6 -33 -4 -27 12 8 27 -10 67 -40 87 -24 16 -29 16 -59 1
-19 -9 -40 -30 -49 -50 -18 -37 -22 -97 -9 -112 5 -6 -15 -32 -45 -62 -50 -48
-54 -51 -64 -32 -5 11 -9 30 -7 42 3 19 9 22 47 22 29 0 46 5 49 14 7 20 -26
41 -65 41 -77 0 -111 -95 -57 -159 16 -19 25 -41 23 -58 -4 -59 1 -73 41 -102
46 -33 245 -101 296 -101 39 0 38 3 20 -58 -25 -82 -64 -274 -76 -372 -13
-102 -16 -548 -6 -690 4 -47 11 -119 17 -160 5 -41 14 -106 19 -145 5 -38 13
-83 19 -100 5 -16 24 -77 42 -135 18 -58 47 -138 66 -179 18 -40 33 -78 33
-83 0 -16 176 -360 232 -455 97 -160 211 -291 397 -454 l75 -66 -21 -29 c-34
-48 -169 -275 -195 -329 -14 -28 -37 -70 -51 -95 -24 -43 -79 -207 -111 -336
-9 -33 -42 -116 -75 -185 -68 -142 -97 -223 -141 -399 -17 -69 -58 -206 -90
-305 -61 -188 -71 -247 -91 -485 -8 -110 -8 -167 0 -235 7 -49 16 -128 20
-175 5 -47 18 -125 29 -175 11 -49 25 -117 32 -149 7 -32 21 -84 31 -114 10
-30 19 -66 19 -80 0 -27 65 -174 156 -357 60 -119 175 -301 267 -423 32 -42
70 -95 84 -116 66 -102 511 -527 693 -662 222 -167 648 -419 791 -469 272 -96
405 -128 679 -161 187 -23 808 -27 880 -6 29 9 149 16 340 22 214 5 310 12
350 23 30 9 98 21 150 27 52 7 122 21 155 31 33 10 109 25 168 33 59 9 131 22
160 31 28 8 96 19 150 25 121 12 134 15 228 55 41 18 120 43 175 55 108 25
155 45 225 96 25 18 103 61 173 95 111 54 134 69 174 118 26 30 74 85 108 121
76 82 112 133 208 297 168 289 220 434 229 648 3 56 12 119 21 144 19 53 37
279 38 476 0 126 -3 151 -31 256 -18 68 -32 142 -32 180 -2 120 -29 324 -55
419 -15 52 -33 117 -40 145 -8 27 -19 98 -24 156 -6 61 -21 140 -35 184 -74
227 -115 370 -115 403 0 62 -27 146 -80 252 -27 55 -61 142 -75 194 -26 103
-50 156 -99 226 -18 25 -35 50 -39 56 -7 12 31 38 198 138 43 27 104 70 135
96 30 26 110 84 176 129 124 82 183 141 353 345 35 42 97 107 138 144 143 128
245 261 385 501 132 227 143 255 254 625 36 120 84 431 84 541 0 100 -28 345
-49 440 -35 152 -37 146 77 205 123 64 220 141 250 200 17 34 22 61 22 120 0
56 5 86 20 115 24 47 26 108 4 129 -21 22 -82 20 -126 -3 l-37 -18 -23 46
c-20 41 -27 46 -60 49 -30 3 -44 -3 -76 -32 -22 -20 -42 -36 -44 -36 -3 0 -8
30 -12 68 -13 139 -49 202 -115 202 -73 0 -102 -60 -122 -259 -12 -112 -14
-120 -37 -131 -29 -13 -36 -8 -51 41 -35 108 -108 80 -141 -53 -11 -43 -14
-46 -51 -52 -26 -4 -44 -14 -55 -31 -37 -56 -25 -175 18 -175 17 0 19 -4 14
-26 -10 -37 18 -124 50 -158 15 -15 41 -34 58 -41 53 -21 194 -38 272 -32 71
5 74 5 74 -16 0 -12 9 -65 21 -117 11 -52 26 -167 34 -255 13 -142 13 -174 0
-290 -26 -218 -41 -291 -108 -515 -72 -239 -98 -297 -239 -533 -113 -190 -165
-255 -349 -437 -80 -80 -179 -185 -218 -233 -107 -130 -174 -191 -296 -272
-60 -39 -135 -94 -165 -121 -31 -27 -87 -69 -125 -93 -39 -24 -89 -57 -112
-72 -23 -16 -47 -29 -55 -29 -7 0 -21 21 -30 48 -10 26 -47 94 -83 151 -35 57
-74 129 -86 160 -11 31 -55 110 -98 176 -43 66 -84 131 -91 145 -7 14 -41 64
-74 112 -34 48 -86 126 -116 173 -30 47 -73 108 -96 135 -23 27 -86 122 -140
212 -55 89 -123 188 -151 219 -29 31 -53 60 -53 64 0 4 35 44 77 89 42 44 101
114 131 155 31 41 78 99 105 129 52 58 92 134 83 158 -10 25 -35 15 -55 -23
-10 -21 -31 -49 -46 -63 -15 -14 -64 -68 -108 -120 -44 -52 -115 -132 -157
-178 l-78 -83 -21 37 c-12 20 -44 64 -72 98 -76 92 -212 353 -292 561 -60 153
-86 248 -117 426 -34 196 -90 460 -112 529 -26 82 -79 187 -113 228 -42 51
-230 180 -365 251 -69 37 -134 72 -145 78 -58 32 -143 46 -280 46 -138 0 -141
0 -240 -38 -132 -50 -190 -81 -312 -168 -124 -89 -269 -215 -388 -338 -186
-194 -313 -380 -534 -784 -46 -82 -91 -166 -102 -185 -24 -43 -175 -344 -182
-362 -6 -17 -85 58 -145 140 -46 62 -68 75 -78 47 -9 -22 37 -88 122 -175 l73
-75 -38 -95 c-70 -174 -238 -504 -313 -614 -40 -60 -106 -159 -146 -220 -40
-61 -124 -181 -186 -266 -62 -85 -134 -186 -161 -225 -26 -38 -50 -72 -51 -74
-2 -2 -50 37 -107 87 -150 132 -255 258 -357 427 -48 81 -179 344 -243 490
-51 116 -116 332 -127 417 -5 40 -14 111 -20 158 -15 113 -27 542 -19 661 13
174 31 287 75 464 28 111 29 113 92 121 69 8 198 72 252 125 23 23 44 55 51
81 8 26 28 57 51 79 46 44 48 70 7 111 -29 30 -33 31 -94 25 l-63 -6 5 38 c10
75 -65 105 -152 61 -21 -11 -41 -18 -43 -15 -3 2 1 24 7 49 15 60 14 199 -1
214 -20 20 -54 14 -83 -15z m34 -191 l-12 -83 -36 3 c-35 3 -36 4 -33 38 4 46
37 136 65 174 l22 31 3 -40 c2 -22 -2 -77 -9 -123z m7615 -34 c17 -28 35 -113
38 -187 l3 -54 -75 -18 c-41 -9 -76 -16 -78 -14 -9 9 23 216 38 253 22 48 51
56 74 20z m-3971 -40 c116 -38 219 -89 277 -137 25 -20 74 -58 110 -84 63 -44
103 -87 129 -135 20 -37 8 -35 -50 8 -29 22 -60 40 -69 40 -9 0 -25 7 -37 15
-52 36 -152 64 -275 76 -110 11 -134 10 -214 -6 -181 -35 -272 -91 -449 -277
-121 -128 -157 -173 -255 -323 -33 -49 -80 -119 -105 -155 -25 -36 -81 -135
-123 -220 -88 -175 -153 -290 -177 -310 -28 -23 -86 -128 -116 -211 -37 -101
-56 -139 -113 -222 -25 -37 -61 -98 -81 -137 -19 -38 -39 -70 -43 -70 -4 0
-83 76 -176 170 l-168 170 78 157 c43 87 87 174 99 193 12 19 47 82 77 140 31
58 76 139 100 181 23 41 63 111 88 154 54 93 163 255 241 357 90 116 306 328
486 476 59 49 252 152 285 152 13 1 52 9 88 20 98 29 268 20 393 -22z m-3892
3 l16 -28 -37 -17 c-20 -9 -40 -16 -43 -16 -13 0 -7 46 9 68 20 29 36 28 55
-7z m434 -31 c0 -30 13 -52 26 -45 5 4 9 2 9 -4 0 -5 -4 -12 -9 -15 -11 -7
-121 52 -121 65 0 14 40 29 70 26 19 -2 25 -8 25 -27z m-94 -70 c75 -23 151
-68 174 -104 36 -54 -12 -120 -130 -180 -76 -40 -77 -40 -182 -38 -113 3 -206
27 -313 80 -42 21 -56 33 -58 52 -6 52 90 161 168 192 37 14 167 27 226 22 28
-2 80 -13 115 -24z m268 -24 c10 -12 8 -19 -9 -36 -23 -23 -23 -22 -73 19 -18
15 -18 16 0 22 30 13 70 10 82 -5z m7489 -48 c5 -18 7 -36 5 -40 -6 -11 -113
-10 -113 1 0 14 69 71 85 71 8 0 18 -15 23 -32z m192 -50 c0 -45 -14 -51 -54
-27 l-38 22 23 13 c39 22 69 18 69 -8z m-709 -58 c11 -35 10 -43 -4 -57 -15
-15 -18 -15 -36 1 -11 10 -18 23 -16 29 29 81 39 86 56 27z m-3491 -35 c128
-41 197 -84 294 -181 90 -90 99 -116 206 -604 33 -149 101 -340 173 -485 67
-137 218 -398 258 -446 39 -48 99 -138 99 -150 0 -9 -178 -164 -261 -227 -118
-90 -220 -154 -303 -190 -69 -31 -92 -36 -152 -36 -62 0 -78 4 -120 30 -41 25
-49 35 -49 59 0 25 -4 31 -27 33 -19 2 -30 -3 -38 -18 -33 -61 73 -153 202
-174 l36 -7 -1 -77 c0 -42 5 -95 13 -117 20 -61 76 -142 109 -160 38 -19 131
-19 179 0 36 16 135 96 179 145 42 47 73 145 85 266 l11 113 -28 46 c-15 26
-25 48 -23 49 25 17 106 83 157 129 36 31 69 57 73 57 23 0 115 -118 194 -246
49 -80 120 -185 157 -233 37 -47 85 -112 105 -145 20 -32 56 -86 80 -120 131
-189 268 -408 282 -451 18 -56 43 -103 100 -190 61 -95 95 -181 79 -201 -6 -8
-16 -14 -21 -14 -5 0 -35 -15 -66 -33 -70 -40 -201 -93 -264 -107 -26 -5 -68
-18 -95 -29 -26 -10 -67 -22 -90 -26 -85 -14 -79 -65 8 -65 42 0 115 15 252
51 22 6 102 40 179 77 l140 66 19 -25 c50 -63 91 -153 118 -260 19 -74 48
-153 84 -227 40 -79 57 -129 62 -170 9 -88 33 -183 86 -344 37 -114 51 -174
60 -260 6 -62 20 -146 31 -187 46 -172 59 -231 73 -335 8 -61 15 -144 15 -186
0 -50 10 -117 30 -198 25 -104 30 -143 30 -250 0 -149 -23 -401 -45 -487 -8
-33 -15 -94 -16 -135 -3 -121 -39 -248 -111 -390 -113 -223 -242 -424 -313
-490 -15 -14 -50 -54 -78 -89 -47 -59 -61 -69 -166 -118 -62 -30 -149 -78
-193 -108 -88 -60 -81 -57 -198 -80 -46 -10 -109 -28 -140 -42 -99 -45 -133
-54 -240 -64 -58 -5 -132 -18 -165 -28 -33 -11 -103 -24 -155 -30 -52 -7 -135
-23 -185 -36 -49 -13 -128 -29 -175 -35 -47 -6 -101 -16 -120 -22 -19 -6 -165
-14 -325 -18 -208 -5 -313 -12 -370 -24 -66 -14 -130 -17 -365 -15 -486 5
-536 12 -712 100 -118 60 -183 106 -263 190 -38 40 -150 152 -249 248 -157
154 -266 278 -318 361 -8 14 -47 57 -87 97 -96 96 -231 317 -327 534 -40 92
-89 201 -108 243 -20 42 -43 106 -52 143 -31 137 -47 190 -80 278 -29 75 -36
109 -45 220 -19 253 -30 351 -50 434 -18 77 -19 96 -10 245 6 88 20 229 31
311 12 88 20 206 20 288 0 101 5 160 20 225 78 343 169 579 301 777 14 22 34
63 44 90 10 28 21 53 24 57 4 4 57 -17 119 -47 62 -30 146 -64 185 -75 40 -12
118 -37 175 -56 117 -39 125 -40 147 -18 18 18 5 44 -24 44 -17 0 -104 28
-256 80 -120 41 -315 132 -315 147 0 6 18 34 40 62 40 50 71 111 115 226 23
63 190 400 292 591 32 60 69 135 82 165 69 161 168 349 184 349 4 0 48 -35 98
-77 50 -43 103 -87 118 -98 15 -11 46 -35 69 -53 l42 -34 -20 -28 c-22 -30
-50 -182 -50 -268 0 -144 73 -338 153 -408 64 -55 98 -67 176 -58 88 9 141 35
200 99 58 64 73 113 70 229 -1 45 1 82 5 84 3 2 30 -1 59 -7 91 -19 169 -18
214 3 45 20 56 36 73 110 21 90 -32 91 -61 1 -10 -34 -22 -51 -40 -57 -54 -21
-275 19 -320 58 -8 8 -20 14 -25 14 -5 0 -38 21 -74 45 -36 25 -83 57 -105 72
-22 15 -62 46 -90 68 -27 23 -64 50 -81 61 -42 27 -310 242 -372 299 -10 9 -5
26 25 86 21 41 60 108 87 149 53 81 106 181 106 198 0 25 71 162 114 220 25
34 54 82 63 105 9 23 29 63 45 88 15 25 28 50 28 54 0 9 111 193 154 255 18
25 47 72 65 105 60 108 163 264 214 325 115 138 259 261 374 319 106 53 272
52 443 -4z m3784 30 c10 -14 17 -14 71 0 82 21 210 20 255 -3 39 -19 47 -41
49 -137 1 -77 -17 -107 -105 -173 -60 -45 -210 -132 -228 -132 -3 0 -6 6 -6
14 0 8 -5 18 -10 21 -16 10 -60 -23 -54 -39 11 -28 -111 -34 -241 -11 -90 16
-125 43 -144 111 -13 47 -2 71 82 179 58 75 68 83 166 133 107 54 146 63 165
37z m-344 -98 c0 -2 -25 -36 -55 -77 l-54 -73 -12 29 c-12 34 -5 94 13 106 7
4 29 6 49 2 22 -3 40 -1 44 5 6 10 15 15 15 8z m-5529 -1553 c30 -31 105 -106
167 -168 l112 -111 -48 -80 c-27 -44 -79 -145 -115 -225 -36 -80 -82 -176
-103 -215 -49 -94 -174 -343 -174 -348 0 -3 -15 -32 -34 -66 -34 -59 -67 -131
-135 -292 -18 -42 -49 -96 -69 -121 -20 -25 -41 -53 -47 -62 -9 -16 -23 -11
-130 39 -128 60 -299 159 -353 203 l-32 27 70 102 c38 56 116 165 172 242 91
125 217 309 346 509 40 62 262 504 262 522 0 15 41 100 49 100 4 0 32 -25 62
-56z m2834 -915 c10 -11 -74 -99 -94 -99 -6 0 -16 18 -22 40 -9 31 -9 43 0 54
22 26 92 29 116 5z m-1785 -205 c22 -9 40 -20 40 -24 0 -15 -99 -99 -125 -106
-38 -9 -45 4 -33 66 16 81 41 95 118 64z m-1950 -428 c47 -31 159 -93 250
-137 91 -45 167 -83 169 -84 7 -7 -32 -106 -56 -142 -14 -21 -34 -51 -43 -68
-10 -16 -33 -56 -53 -87 -51 -84 -149 -372 -202 -593 -10 -40 -23 -165 -30
-295 -7 -124 -20 -283 -28 -355 -26 -225 -31 -411 -13 -488 19 -83 43 -284 55
-461 8 -117 13 -142 50 -237 22 -59 49 -153 61 -209 13 -66 36 -138 64 -199
24 -53 58 -130 76 -171 76 -178 117 -260 170 -345 31 -49 68 -111 83 -136 14
-26 54 -80 88 -120 34 -41 89 -110 122 -154 126 -170 430 -481 614 -627 56
-45 101 -84 99 -86 -5 -4 -116 25 -191 50 -92 31 -493 261 -614 351 -72 55
-239 164 -270 177 -44 19 -175 118 -276 207 -90 81 -192 190 -313 336 -112
136 -358 519 -399 622 -13 33 -32 76 -43 95 -62 115 -190 579 -190 688 0 33
-6 75 -14 93 -17 40 -19 127 -13 405 l4 200 56 165 c30 90 74 236 97 324 44
171 87 288 156 427 27 53 62 152 90 250 49 174 73 226 212 458 95 158 131 212
140 206 4 -2 45 -30 92 -60z"/>
<path d="M5470 6272 c-39 -5 -260 -82 -315 -110 -27 -13 -68 -37 -90 -52 -22
-15 -67 -41 -100 -58 -93 -47 -140 -86 -195 -161 -30 -41 -80 -92 -124 -125
-86 -67 -127 -121 -162 -213 -14 -37 -37 -97 -51 -133 -14 -36 -42 -117 -61
-180 l-35 -115 -1 -250 c-1 -191 3 -278 17 -370 10 -66 22 -156 28 -200 8 -61
20 -97 48 -150 51 -93 96 -204 122 -295 32 -119 97 -223 231 -375 21 -23 77
-66 124 -96 48 -30 124 -86 170 -126 45 -40 122 -96 171 -124 48 -29 107 -67
131 -85 24 -18 76 -45 115 -60 40 -15 111 -42 159 -61 205 -81 422 -82 803 -2
127 26 163 38 235 77 47 26 128 68 180 94 146 74 270 150 327 202 58 53 142
197 186 321 14 39 36 95 49 125 67 151 98 303 98 481 0 65 -7 148 -14 186 -20
94 -81 311 -99 354 -22 52 -95 307 -124 428 -27 115 -44 155 -99 227 -40 52
-152 230 -229 363 -71 123 -115 173 -233 267 -100 79 -217 148 -307 181 -75
27 -324 43 -635 41 -162 -1 -306 -4 -320 -6z m753 -62 c67 -5 142 -16 166 -25
68 -24 225 -109 271 -146 33 -28 39 -38 34 -59 -3 -14 -12 -65 -19 -114 -8
-48 -16 -91 -19 -93 -3 -3 -40 16 -82 43 -42 27 -90 56 -105 65 -16 9 -36 22
-44 29 -37 30 -64 -16 -96 -164 -11 -50 -23 -123 -27 -163 l-7 -72 -49 30
c-26 17 -121 69 -210 117 -180 96 -221 129 -231 188 -4 21 -8 45 -11 52 -6 21
-34 26 -51 9 -13 -13 -14 -27 -4 -98 12 -90 15 -395 4 -527 l-6 -83 -111 109
c-109 107 -205 178 -349 256 -121 66 -177 105 -177 125 0 32 -11 51 -30 51
-14 0 -21 -16 -34 -72 -34 -146 -75 -575 -63 -660 3 -24 2 -50 -4 -58 -8 -12
-14 -10 -32 15 -69 93 -117 132 -254 204 -128 67 -213 127 -213 151 0 27 101
275 125 306 15 19 57 59 93 89 37 30 94 89 127 132 62 79 98 108 221 176 38
20 96 53 128 71 33 19 114 54 180 78 l121 43 295 6 c162 3 305 4 318 2 12 -2
78 -8 145 -13z m606 -321 c22 -28 61 -90 87 -137 66 -121 175 -300 228 -372
48 -66 61 -98 101 -269 15 -63 53 -196 86 -295 87 -265 129 -435 129 -528 0
-43 -4 -78 -8 -78 -5 0 -31 16 -58 36 -27 19 -59 39 -72 44 -17 8 -22 16 -20
42 3 27 -1 34 -18 36 -18 3 -23 -3 -28 -35 -7 -39 -24 -116 -57 -263 -10 -47
-20 -99 -21 -116 l-3 -31 -110 43 c-128 51 -275 123 -291 143 -6 8 -18 11 -28
8 -26 -10 -22 -174 9 -440 6 -47 5 -48 -16 -36 -12 6 -79 66 -148 133 -69 66
-169 155 -221 197 -52 42 -137 118 -189 168 -59 58 -99 90 -108 87 -8 -3 -24
-27 -35 -53 -26 -59 -27 -158 -4 -373 21 -199 29 -330 22 -330 -27 0 -119 64
-211 146 -147 131 -253 214 -294 231 -30 13 -35 12 -53 -4 -11 -10 -24 -25
-29 -35 -5 -9 -20 -129 -34 -266 -14 -137 -32 -274 -40 -306 -8 -31 -15 -59
-15 -61 0 -25 -150 68 -251 155 -44 38 -123 95 -177 128 -100 62 -117 80 -216
226 -62 90 -100 168 -121 242 -30 108 -46 145 -70 154 -18 7 -24 21 -35 87 -7
43 -24 110 -38 148 -33 94 -45 206 -46 413 -1 136 -4 175 -15 181 -25 16 3
298 32 328 3 2 29 -14 58 -36 30 -23 108 -69 174 -103 81 -42 133 -77 160
-106 101 -109 138 -143 150 -139 7 3 15 20 19 38 3 18 13 41 22 50 13 15 14
23 4 54 -7 20 -9 55 -6 78 3 23 13 126 21 229 14 176 29 285 40 296 2 3 15 -3
27 -12 47 -34 96 -65 190 -120 128 -74 212 -139 342 -261 71 -66 106 -106 106
-121 0 -54 39 -111 56 -82 10 17 12 131 2 144 -4 6 -4 106 2 224 6 118 7 243
4 279 l-7 65 34 -22 c19 -13 63 -39 99 -59 36 -20 123 -70 195 -110 71 -41
141 -76 155 -80 14 -3 33 -12 42 -21 10 -8 24 -12 33 -9 17 7 20 42 5 52 -17
10 -11 123 11 245 12 63 24 118 28 122 3 4 43 -17 88 -47 98 -66 201 -104 238
-87 27 12 35 52 11 52 -23 0 -25 11 -16 90 14 114 17 122 39 110 11 -5 37 -33
60 -61z m514 -1683 c20 -19 54 -42 76 -53 35 -15 41 -23 41 -49 0 -47 -44
-211 -80 -295 -17 -40 -49 -119 -70 -174 -50 -128 -129 -256 -178 -290 -67
-47 -154 -96 -352 -200 -189 -99 -199 -103 -340 -133 -196 -42 -277 -52 -439
-52 -156 0 -235 12 -301 45 -25 12 -72 30 -105 40 -80 23 -153 61 -157 82 -2
10 4 50 14 88 10 39 30 173 44 300 17 147 32 237 41 252 17 25 0 38 302 -232
58 -52 109 -88 168 -115 46 -22 89 -40 96 -40 26 0 35 20 25 58 -6 20 -14 91
-18 157 -5 66 -14 170 -21 230 -14 127 -18 310 -6 321 5 5 45 -30 90 -78 45
-47 125 -121 177 -164 52 -44 137 -122 190 -175 104 -105 291 -245 315 -235
21 8 19 20 -9 53 -21 26 -25 46 -40 228 -9 110 -18 210 -20 223 -4 27 8 28 42
3 39 -27 160 -86 245 -120 40 -16 100 -45 133 -65 32 -20 65 -36 72 -36 20 0
14 37 -13 68 -32 39 -32 86 0 217 14 55 25 110 25 122 0 20 9 53 15 53 1 0 18
-15 38 -34z"/>
<path d="M11950 5845 c-58 -14 -211 -49 -340 -80 -434 -102 -584 -136 -810
-186 -268 -58 -461 -104 -915 -214 -187 -46 -365 -89 -395 -96 -105 -23 -390
-109 -430 -129 -22 -11 -40 -25 -40 -31 0 -21 31 -20 92 4 82 32 350 103 838
221 562 136 641 154 770 181 119 24 568 127 960 220 124 29 273 63 333 75 90
19 107 26 107 41 0 25 -36 24 -170 -6z"/>
<path d="M12316 4752 c-6 -10 -88 -27 -336 -67 -85 -14 -222 -39 -305 -56
-238 -48 -479 -86 -620 -98 -131 -11 -237 -15 -745 -30 -282 -8 -355 -19 -355
-51 0 -11 10 -14 35 -13 49 4 424 20 735 32 427 17 454 20 1065 136 102 19
217 40 255 46 104 15 235 39 278 50 31 8 38 14 35 32 -3 22 -32 35 -42 19z"/>
<path d="M9270 3945 c-18 -21 -3 -35 37 -35 19 0 83 -18 142 -39 58 -22 140
-50 181 -62 41 -11 151 -46 244 -75 93 -30 207 -63 255 -74 101 -22 376 -65
511 -80 52 -6 154 -19 225 -29 72 -11 182 -27 245 -36 139 -20 241 -44 379
-91 94 -33 283 -74 339 -74 22 0 31 23 13 34 -5 3 -65 17 -132 31 -68 13 -169
40 -225 58 -134 46 -253 73 -404 92 -69 9 -163 22 -210 30 -47 8 -164 24 -260
35 -293 34 -572 89 -695 138 -28 11 -128 43 -224 71 -95 29 -213 67 -261 86
-94 38 -141 43 -160 20z"/>
</g>
</svg>
