%TF.GenerationSoftware,KiCad,Pcbnew,8.0.3*%
%TF.CreationDate,2024-07-17T09:40:22+02:00*%
%TF.ProjectId,top_plate,746f705f-706c-4617-9465-2e6b69636164,rev?*%
%TF.SameCoordinates,Original*%
%TF.FileFunction,Legend,Bot*%
%TF.FilePolarity,Positive*%
%FSLAX46Y46*%
G04 Gerber Fmt 4.6, Leading zero omitted, Abs format (unit mm)*
G04 Created by KiCad (PCBNEW 8.0.3) date 2024-07-17 09:40:22*
%MOMM*%
%LPD*%
G01*
G04 APERTURE LIST*
%ADD10C,0.150000*%
G04 APERTURE END LIST*
D10*
X90663220Y-80024819D02*
X90663220Y-79024819D01*
X90663220Y-79024819D02*
X90329887Y-79739104D01*
X90329887Y-79739104D02*
X89996554Y-79024819D01*
X89996554Y-79024819D02*
X89996554Y-80024819D01*
X89615601Y-79024819D02*
X88948935Y-80024819D01*
X88948935Y-79024819D02*
X89615601Y-80024819D01*
X87853696Y-79977200D02*
X87710839Y-80024819D01*
X87710839Y-80024819D02*
X87472744Y-80024819D01*
X87472744Y-80024819D02*
X87377506Y-79977200D01*
X87377506Y-79977200D02*
X87329887Y-79929580D01*
X87329887Y-79929580D02*
X87282268Y-79834342D01*
X87282268Y-79834342D02*
X87282268Y-79739104D01*
X87282268Y-79739104D02*
X87329887Y-79643866D01*
X87329887Y-79643866D02*
X87377506Y-79596247D01*
X87377506Y-79596247D02*
X87472744Y-79548628D01*
X87472744Y-79548628D02*
X87663220Y-79501009D01*
X87663220Y-79501009D02*
X87758458Y-79453390D01*
X87758458Y-79453390D02*
X87806077Y-79405771D01*
X87806077Y-79405771D02*
X87853696Y-79310533D01*
X87853696Y-79310533D02*
X87853696Y-79215295D01*
X87853696Y-79215295D02*
X87806077Y-79120057D01*
X87806077Y-79120057D02*
X87758458Y-79072438D01*
X87758458Y-79072438D02*
X87663220Y-79024819D01*
X87663220Y-79024819D02*
X87425125Y-79024819D01*
X87425125Y-79024819D02*
X87282268Y-79072438D01*
X86948934Y-79358152D02*
X86758458Y-80024819D01*
X86758458Y-80024819D02*
X86567982Y-79548628D01*
X86567982Y-79548628D02*
X86377506Y-80024819D01*
X86377506Y-80024819D02*
X86187030Y-79358152D01*
X85806077Y-80024819D02*
X85806077Y-79358152D01*
X85806077Y-79024819D02*
X85853696Y-79072438D01*
X85853696Y-79072438D02*
X85806077Y-79120057D01*
X85806077Y-79120057D02*
X85758458Y-79072438D01*
X85758458Y-79072438D02*
X85806077Y-79024819D01*
X85806077Y-79024819D02*
X85806077Y-79120057D01*
X85472744Y-79358152D02*
X85091792Y-79358152D01*
X85329887Y-79024819D02*
X85329887Y-79881961D01*
X85329887Y-79881961D02*
X85282268Y-79977200D01*
X85282268Y-79977200D02*
X85187030Y-80024819D01*
X85187030Y-80024819D02*
X85091792Y-80024819D01*
X84329887Y-79977200D02*
X84425125Y-80024819D01*
X84425125Y-80024819D02*
X84615601Y-80024819D01*
X84615601Y-80024819D02*
X84710839Y-79977200D01*
X84710839Y-79977200D02*
X84758458Y-79929580D01*
X84758458Y-79929580D02*
X84806077Y-79834342D01*
X84806077Y-79834342D02*
X84806077Y-79548628D01*
X84806077Y-79548628D02*
X84758458Y-79453390D01*
X84758458Y-79453390D02*
X84710839Y-79405771D01*
X84710839Y-79405771D02*
X84615601Y-79358152D01*
X84615601Y-79358152D02*
X84425125Y-79358152D01*
X84425125Y-79358152D02*
X84329887Y-79405771D01*
X83901315Y-80024819D02*
X83901315Y-79024819D01*
X83472744Y-80024819D02*
X83472744Y-79501009D01*
X83472744Y-79501009D02*
X83520363Y-79405771D01*
X83520363Y-79405771D02*
X83615601Y-79358152D01*
X83615601Y-79358152D02*
X83758458Y-79358152D01*
X83758458Y-79358152D02*
X83853696Y-79405771D01*
X83853696Y-79405771D02*
X83901315Y-79453390D01*
X82234648Y-80024819D02*
X82234648Y-79024819D01*
X82234648Y-79024819D02*
X81853696Y-79024819D01*
X81853696Y-79024819D02*
X81758458Y-79072438D01*
X81758458Y-79072438D02*
X81710839Y-79120057D01*
X81710839Y-79120057D02*
X81663220Y-79215295D01*
X81663220Y-79215295D02*
X81663220Y-79358152D01*
X81663220Y-79358152D02*
X81710839Y-79453390D01*
X81710839Y-79453390D02*
X81758458Y-79501009D01*
X81758458Y-79501009D02*
X81853696Y-79548628D01*
X81853696Y-79548628D02*
X82234648Y-79548628D01*
X81091791Y-80024819D02*
X81187029Y-79977200D01*
X81187029Y-79977200D02*
X81234648Y-79881961D01*
X81234648Y-79881961D02*
X81234648Y-79024819D01*
X80282267Y-80024819D02*
X80282267Y-79501009D01*
X80282267Y-79501009D02*
X80329886Y-79405771D01*
X80329886Y-79405771D02*
X80425124Y-79358152D01*
X80425124Y-79358152D02*
X80615600Y-79358152D01*
X80615600Y-79358152D02*
X80710838Y-79405771D01*
X80282267Y-79977200D02*
X80377505Y-80024819D01*
X80377505Y-80024819D02*
X80615600Y-80024819D01*
X80615600Y-80024819D02*
X80710838Y-79977200D01*
X80710838Y-79977200D02*
X80758457Y-79881961D01*
X80758457Y-79881961D02*
X80758457Y-79786723D01*
X80758457Y-79786723D02*
X80710838Y-79691485D01*
X80710838Y-79691485D02*
X80615600Y-79643866D01*
X80615600Y-79643866D02*
X80377505Y-79643866D01*
X80377505Y-79643866D02*
X80282267Y-79596247D01*
X79948933Y-79358152D02*
X79567981Y-79358152D01*
X79806076Y-79024819D02*
X79806076Y-79881961D01*
X79806076Y-79881961D02*
X79758457Y-79977200D01*
X79758457Y-79977200D02*
X79663219Y-80024819D01*
X79663219Y-80024819D02*
X79567981Y-80024819D01*
X78853695Y-79977200D02*
X78948933Y-80024819D01*
X78948933Y-80024819D02*
X79139409Y-80024819D01*
X79139409Y-80024819D02*
X79234647Y-79977200D01*
X79234647Y-79977200D02*
X79282266Y-79881961D01*
X79282266Y-79881961D02*
X79282266Y-79501009D01*
X79282266Y-79501009D02*
X79234647Y-79405771D01*
X79234647Y-79405771D02*
X79139409Y-79358152D01*
X79139409Y-79358152D02*
X78948933Y-79358152D01*
X78948933Y-79358152D02*
X78853695Y-79405771D01*
X78853695Y-79405771D02*
X78806076Y-79501009D01*
X78806076Y-79501009D02*
X78806076Y-79596247D01*
X78806076Y-79596247D02*
X79282266Y-79691485D01*
M02*
