%TF.GenerationSoftware,KiCad,Pcbnew,8.0.3*%
%TF.CreationDate,2024-07-17T09:40:22+02:00*%
%TF.ProjectId,top_plate,746f705f-706c-4617-9465-2e6b69636164,rev?*%
%TF.SameCoordinates,Original*%
%TF.FileFunction,Legend,Top*%
%TF.FilePolarity,Positive*%
%FSLAX46Y46*%
G04 Gerber Fmt 4.6, Leading zero omitted, Abs format (unit mm)*
G04 Created by KiCad (PCBNEW 8.0.3) date 2024-07-17 09:40:22*
%MOMM*%
%LPD*%
G01*
G04 APERTURE LIST*
%ADD10C,0.150000*%
G04 APERTURE END LIST*
D10*
X77336779Y-80024819D02*
X77336779Y-79024819D01*
X77336779Y-79024819D02*
X77670112Y-79739104D01*
X77670112Y-79739104D02*
X78003445Y-79024819D01*
X78003445Y-79024819D02*
X78003445Y-80024819D01*
X78384398Y-79024819D02*
X79051064Y-80024819D01*
X79051064Y-79024819D02*
X78384398Y-80024819D01*
X80146303Y-79977200D02*
X80289160Y-80024819D01*
X80289160Y-80024819D02*
X80527255Y-80024819D01*
X80527255Y-80024819D02*
X80622493Y-79977200D01*
X80622493Y-79977200D02*
X80670112Y-79929580D01*
X80670112Y-79929580D02*
X80717731Y-79834342D01*
X80717731Y-79834342D02*
X80717731Y-79739104D01*
X80717731Y-79739104D02*
X80670112Y-79643866D01*
X80670112Y-79643866D02*
X80622493Y-79596247D01*
X80622493Y-79596247D02*
X80527255Y-79548628D01*
X80527255Y-79548628D02*
X80336779Y-79501009D01*
X80336779Y-79501009D02*
X80241541Y-79453390D01*
X80241541Y-79453390D02*
X80193922Y-79405771D01*
X80193922Y-79405771D02*
X80146303Y-79310533D01*
X80146303Y-79310533D02*
X80146303Y-79215295D01*
X80146303Y-79215295D02*
X80193922Y-79120057D01*
X80193922Y-79120057D02*
X80241541Y-79072438D01*
X80241541Y-79072438D02*
X80336779Y-79024819D01*
X80336779Y-79024819D02*
X80574874Y-79024819D01*
X80574874Y-79024819D02*
X80717731Y-79072438D01*
X81051065Y-79358152D02*
X81241541Y-80024819D01*
X81241541Y-80024819D02*
X81432017Y-79548628D01*
X81432017Y-79548628D02*
X81622493Y-80024819D01*
X81622493Y-80024819D02*
X81812969Y-79358152D01*
X82193922Y-80024819D02*
X82193922Y-79358152D01*
X82193922Y-79024819D02*
X82146303Y-79072438D01*
X82146303Y-79072438D02*
X82193922Y-79120057D01*
X82193922Y-79120057D02*
X82241541Y-79072438D01*
X82241541Y-79072438D02*
X82193922Y-79024819D01*
X82193922Y-79024819D02*
X82193922Y-79120057D01*
X82527255Y-79358152D02*
X82908207Y-79358152D01*
X82670112Y-79024819D02*
X82670112Y-79881961D01*
X82670112Y-79881961D02*
X82717731Y-79977200D01*
X82717731Y-79977200D02*
X82812969Y-80024819D01*
X82812969Y-80024819D02*
X82908207Y-80024819D01*
X83670112Y-79977200D02*
X83574874Y-80024819D01*
X83574874Y-80024819D02*
X83384398Y-80024819D01*
X83384398Y-80024819D02*
X83289160Y-79977200D01*
X83289160Y-79977200D02*
X83241541Y-79929580D01*
X83241541Y-79929580D02*
X83193922Y-79834342D01*
X83193922Y-79834342D02*
X83193922Y-79548628D01*
X83193922Y-79548628D02*
X83241541Y-79453390D01*
X83241541Y-79453390D02*
X83289160Y-79405771D01*
X83289160Y-79405771D02*
X83384398Y-79358152D01*
X83384398Y-79358152D02*
X83574874Y-79358152D01*
X83574874Y-79358152D02*
X83670112Y-79405771D01*
X84098684Y-80024819D02*
X84098684Y-79024819D01*
X84527255Y-80024819D02*
X84527255Y-79501009D01*
X84527255Y-79501009D02*
X84479636Y-79405771D01*
X84479636Y-79405771D02*
X84384398Y-79358152D01*
X84384398Y-79358152D02*
X84241541Y-79358152D01*
X84241541Y-79358152D02*
X84146303Y-79405771D01*
X84146303Y-79405771D02*
X84098684Y-79453390D01*
X85765351Y-80024819D02*
X85765351Y-79024819D01*
X85765351Y-79024819D02*
X86146303Y-79024819D01*
X86146303Y-79024819D02*
X86241541Y-79072438D01*
X86241541Y-79072438D02*
X86289160Y-79120057D01*
X86289160Y-79120057D02*
X86336779Y-79215295D01*
X86336779Y-79215295D02*
X86336779Y-79358152D01*
X86336779Y-79358152D02*
X86289160Y-79453390D01*
X86289160Y-79453390D02*
X86241541Y-79501009D01*
X86241541Y-79501009D02*
X86146303Y-79548628D01*
X86146303Y-79548628D02*
X85765351Y-79548628D01*
X86908208Y-80024819D02*
X86812970Y-79977200D01*
X86812970Y-79977200D02*
X86765351Y-79881961D01*
X86765351Y-79881961D02*
X86765351Y-79024819D01*
X87717732Y-80024819D02*
X87717732Y-79501009D01*
X87717732Y-79501009D02*
X87670113Y-79405771D01*
X87670113Y-79405771D02*
X87574875Y-79358152D01*
X87574875Y-79358152D02*
X87384399Y-79358152D01*
X87384399Y-79358152D02*
X87289161Y-79405771D01*
X87717732Y-79977200D02*
X87622494Y-80024819D01*
X87622494Y-80024819D02*
X87384399Y-80024819D01*
X87384399Y-80024819D02*
X87289161Y-79977200D01*
X87289161Y-79977200D02*
X87241542Y-79881961D01*
X87241542Y-79881961D02*
X87241542Y-79786723D01*
X87241542Y-79786723D02*
X87289161Y-79691485D01*
X87289161Y-79691485D02*
X87384399Y-79643866D01*
X87384399Y-79643866D02*
X87622494Y-79643866D01*
X87622494Y-79643866D02*
X87717732Y-79596247D01*
X88051066Y-79358152D02*
X88432018Y-79358152D01*
X88193923Y-79024819D02*
X88193923Y-79881961D01*
X88193923Y-79881961D02*
X88241542Y-79977200D01*
X88241542Y-79977200D02*
X88336780Y-80024819D01*
X88336780Y-80024819D02*
X88432018Y-80024819D01*
X89146304Y-79977200D02*
X89051066Y-80024819D01*
X89051066Y-80024819D02*
X88860590Y-80024819D01*
X88860590Y-80024819D02*
X88765352Y-79977200D01*
X88765352Y-79977200D02*
X88717733Y-79881961D01*
X88717733Y-79881961D02*
X88717733Y-79501009D01*
X88717733Y-79501009D02*
X88765352Y-79405771D01*
X88765352Y-79405771D02*
X88860590Y-79358152D01*
X88860590Y-79358152D02*
X89051066Y-79358152D01*
X89051066Y-79358152D02*
X89146304Y-79405771D01*
X89146304Y-79405771D02*
X89193923Y-79501009D01*
X89193923Y-79501009D02*
X89193923Y-79596247D01*
X89193923Y-79596247D02*
X88717733Y-79691485D01*
M02*
