%TF.GenerationSoftware,KiCad,Pcbnew,8.0.3*%
%TF.CreationDate,2024-07-17T09:45:22+02:00*%
%TF.ProjectId,bottom_plate,626f7474-6f6d-45f7-906c-6174652e6b69,rev?*%
%TF.SameCoordinates,Original*%
%TF.FileFunction,Legend,Bot*%
%TF.FilePolarity,Positive*%
%FSLAX46Y46*%
G04 Gerber Fmt 4.6, Leading zero omitted, Abs format (unit mm)*
G04 Created by KiCad (PCBNEW 8.0.3) date 2024-07-17 09:45:22*
%MOMM*%
%LPD*%
G01*
G04 APERTURE LIST*
%ADD10C,0.150000*%
G04 APERTURE END LIST*
D10*
X26110839Y-88469104D02*
X25634649Y-88469104D01*
X26206077Y-88754819D02*
X25872744Y-87754819D01*
X25872744Y-87754819D02*
X25539411Y-88754819D01*
X25301315Y-88088152D02*
X25063220Y-88754819D01*
X25063220Y-88754819D02*
X24825125Y-88088152D01*
X24301315Y-88754819D02*
X24396553Y-88707200D01*
X24396553Y-88707200D02*
X24444172Y-88659580D01*
X24444172Y-88659580D02*
X24491791Y-88564342D01*
X24491791Y-88564342D02*
X24491791Y-88278628D01*
X24491791Y-88278628D02*
X24444172Y-88183390D01*
X24444172Y-88183390D02*
X24396553Y-88135771D01*
X24396553Y-88135771D02*
X24301315Y-88088152D01*
X24301315Y-88088152D02*
X24158458Y-88088152D01*
X24158458Y-88088152D02*
X24063220Y-88135771D01*
X24063220Y-88135771D02*
X24015601Y-88183390D01*
X24015601Y-88183390D02*
X23967982Y-88278628D01*
X23967982Y-88278628D02*
X23967982Y-88564342D01*
X23967982Y-88564342D02*
X24015601Y-88659580D01*
X24015601Y-88659580D02*
X24063220Y-88707200D01*
X24063220Y-88707200D02*
X24158458Y-88754819D01*
X24158458Y-88754819D02*
X24301315Y-88754819D01*
X23110839Y-88707200D02*
X23206077Y-88754819D01*
X23206077Y-88754819D02*
X23396553Y-88754819D01*
X23396553Y-88754819D02*
X23491791Y-88707200D01*
X23491791Y-88707200D02*
X23539410Y-88659580D01*
X23539410Y-88659580D02*
X23587029Y-88564342D01*
X23587029Y-88564342D02*
X23587029Y-88278628D01*
X23587029Y-88278628D02*
X23539410Y-88183390D01*
X23539410Y-88183390D02*
X23491791Y-88135771D01*
X23491791Y-88135771D02*
X23396553Y-88088152D01*
X23396553Y-88088152D02*
X23206077Y-88088152D01*
X23206077Y-88088152D02*
X23110839Y-88135771D01*
X22253696Y-88754819D02*
X22253696Y-88231009D01*
X22253696Y-88231009D02*
X22301315Y-88135771D01*
X22301315Y-88135771D02*
X22396553Y-88088152D01*
X22396553Y-88088152D02*
X22587029Y-88088152D01*
X22587029Y-88088152D02*
X22682267Y-88135771D01*
X22253696Y-88707200D02*
X22348934Y-88754819D01*
X22348934Y-88754819D02*
X22587029Y-88754819D01*
X22587029Y-88754819D02*
X22682267Y-88707200D01*
X22682267Y-88707200D02*
X22729886Y-88611961D01*
X22729886Y-88611961D02*
X22729886Y-88516723D01*
X22729886Y-88516723D02*
X22682267Y-88421485D01*
X22682267Y-88421485D02*
X22587029Y-88373866D01*
X22587029Y-88373866D02*
X22348934Y-88373866D01*
X22348934Y-88373866D02*
X22253696Y-88326247D01*
X21348934Y-88754819D02*
X21348934Y-87754819D01*
X21348934Y-88707200D02*
X21444172Y-88754819D01*
X21444172Y-88754819D02*
X21634648Y-88754819D01*
X21634648Y-88754819D02*
X21729886Y-88707200D01*
X21729886Y-88707200D02*
X21777505Y-88659580D01*
X21777505Y-88659580D02*
X21825124Y-88564342D01*
X21825124Y-88564342D02*
X21825124Y-88278628D01*
X21825124Y-88278628D02*
X21777505Y-88183390D01*
X21777505Y-88183390D02*
X21729886Y-88135771D01*
X21729886Y-88135771D02*
X21634648Y-88088152D01*
X21634648Y-88088152D02*
X21444172Y-88088152D01*
X21444172Y-88088152D02*
X21348934Y-88135771D01*
X20729886Y-88754819D02*
X20825124Y-88707200D01*
X20825124Y-88707200D02*
X20872743Y-88659580D01*
X20872743Y-88659580D02*
X20920362Y-88564342D01*
X20920362Y-88564342D02*
X20920362Y-88278628D01*
X20920362Y-88278628D02*
X20872743Y-88183390D01*
X20872743Y-88183390D02*
X20825124Y-88135771D01*
X20825124Y-88135771D02*
X20729886Y-88088152D01*
X20729886Y-88088152D02*
X20587029Y-88088152D01*
X20587029Y-88088152D02*
X20491791Y-88135771D01*
X20491791Y-88135771D02*
X20444172Y-88183390D01*
X20444172Y-88183390D02*
X20396553Y-88278628D01*
X20396553Y-88278628D02*
X20396553Y-88564342D01*
X20396553Y-88564342D02*
X20444172Y-88659580D01*
X20444172Y-88659580D02*
X20491791Y-88707200D01*
X20491791Y-88707200D02*
X20587029Y-88754819D01*
X20587029Y-88754819D02*
X20729886Y-88754819D01*
M02*
